<svg width="37" height="37" viewBox="0 0 37 37" fill="none" xmlns="http://www.w3.org/2000/svg">
<circle cx="18.5" cy="18.5" r="17.5" fill="white" fill-opacity="0.5" stroke="#009FA2" stroke-width="2"/>
<path d="M18.8486 10.7736C19.3401 10.7797 19.7586 11.1908 19.7588 11.7179C19.7588 11.7506 19.7566 11.7808 19.7539 11.8058L19.749 11.8517V11.8986C19.7114 14.6911 19.5564 17.4337 19.1904 20.2199C19.1635 20.4192 19.1616 20.6919 19.2803 20.966C19.4086 21.2621 19.7145 21.6031 20.2109 21.6427C20.6589 21.6784 20.9819 21.4426 21.1475 21.2609C21.3084 21.084 21.4016 20.8785 21.4551 20.6867L21.457 20.6877C22.3498 17.7294 22.812 14.7557 23.1396 11.7472L23.1455 11.6925V11.6349C23.1455 11.5771 23.1543 11.5161 23.1729 11.4503L23.1748 11.4435L23.1768 11.4357L23.1846 11.4084C23.2046 11.3283 23.2517 11.2588 23.3164 11.2111L23.3379 11.1945L23.3584 11.1779C23.458 11.0958 23.5824 11.0508 23.71 11.05C23.794 11.0503 23.8771 11.0696 23.9531 11.1066C24.0295 11.1438 24.0972 11.1983 24.1504 11.2658L24.1729 11.2941L24.1973 11.3205C24.2374 11.3645 24.2619 11.4099 24.2754 11.4601C24.2888 11.5098 24.2988 11.5945 24.2715 11.7277C23.699 14.4634 23.0929 17.0484 21.8887 19.6261C21.8098 19.7946 21.7213 20.0445 21.7363 20.3312C21.7526 20.639 21.9351 21.188 22.5508 21.3449C23.0199 21.4643 23.3856 21.2419 23.5283 21.1378C23.7115 21.0043 23.8532 20.8333 23.96 20.6652L23.959 20.6642C24.2507 20.2084 24.5203 19.7512 24.7715 19.2931C24.7102 19.4076 24.6564 19.5419 24.6328 19.6955C24.6046 19.8794 24.612 20.1426 24.7607 20.4044C24.9159 20.6776 25.1593 20.8332 25.3848 20.9015C25.7762 21.02 26.1156 20.893 26.2773 20.8146C26.4713 20.7205 26.641 20.584 26.7842 20.4298L26.7852 20.4308C27.4216 19.7609 27.9514 19.0631 28.4121 18.3546C27.7755 19.4899 26.9404 20.7392 25.9922 21.9787C24.5133 23.9118 22.8141 25.7571 21.293 27.049C20.1636 28.0087 19.4401 28.3158 18.8506 28.3195C18.2574 28.3134 17.5317 28.0058 16.4062 27.049H16.4053C14.8842 25.7571 13.1859 23.9117 11.707 21.9787C10.7586 20.7389 9.92186 19.4901 9.28516 18.3546C9.74623 19.0632 10.2767 19.7608 10.9131 20.4308V20.4298C11.0569 20.5842 11.2281 20.7202 11.4229 20.8146C11.5827 20.8921 11.9227 21.0206 12.3154 20.9015C12.5423 20.8327 12.787 20.6756 12.9414 20.4005C13.089 20.1375 13.0941 19.8738 13.0654 19.6916C13.0445 19.5586 13.0013 19.4399 12.9502 19.3361C13.1948 19.78 13.4565 20.2233 13.7393 20.6652V20.6662C13.8464 20.8349 13.989 21.0061 14.1738 21.1398C14.3191 21.245 14.686 21.4653 15.1543 21.3429C15.7638 21.1837 15.9465 20.6395 15.9629 20.3302C15.978 20.0445 15.889 19.796 15.8096 19.6271H15.8105C14.6068 17.0504 14.0038 14.4665 13.4277 11.7296C13.4001 11.5958 13.4102 11.5102 13.4238 11.4591C13.4376 11.4076 13.4629 11.361 13.5029 11.3166L13.5244 11.2921L13.5449 11.2668C13.5982 11.1991 13.6657 11.1439 13.7422 11.1066C13.8181 11.0696 13.9014 11.0504 13.9854 11.05C14.1131 11.0506 14.2371 11.0957 14.3369 11.1779L14.3594 11.1955L14.3818 11.2121C14.414 11.2357 14.4378 11.2606 14.4561 11.2873C14.474 11.3135 14.4941 11.352 14.5088 11.4103L14.5361 11.5216L14.542 11.5324C14.5465 11.5613 14.5498 11.5951 14.5498 11.6349V11.6925L14.5557 11.7472C14.8833 14.7555 15.345 17.7293 16.2383 20.6877L16.2393 20.6867C16.2922 20.8775 16.3855 21.082 16.5449 21.2589C16.7088 21.4408 17.0319 21.6807 17.4844 21.6447C17.9855 21.6047 18.2898 21.2593 18.416 20.966C18.5041 20.7612 18.5256 20.5571 18.5195 20.3839L18.5059 20.2228C18.1396 17.4354 17.9834 14.6919 17.9463 11.8986V11.8527L17.9414 11.8058L17.9365 11.7218C17.9382 11.1921 18.3583 10.7806 18.8486 10.7736ZM27.7422 12.2101C27.8788 12.2109 28.0107 12.3293 28.0107 12.4953V12.5031C28.009 12.5497 27.9975 12.5957 27.9766 12.6369L27.9502 12.6886L27.9297 12.7433C27.1152 14.9448 26.3443 16.983 24.9346 19.0461C24.8905 19.1009 24.8435 19.1671 24.7988 19.2433C26.01 17.0222 26.7831 14.7803 27.4492 12.5509L27.4648 12.4962L27.4756 12.4406C27.4873 12.3751 27.5209 12.3162 27.5703 12.2746C27.619 12.2335 27.6799 12.2109 27.7422 12.2101ZM9.95801 12.2111C10.0778 12.2111 10.1987 12.3027 10.2246 12.4445L10.2344 12.4982L10.25 12.5509C10.9147 14.7768 11.6848 17.0159 12.8926 19.2336C12.8502 19.1627 12.8062 19.1009 12.7646 19.049C11.3535 16.9851 10.5835 14.9454 9.76855 12.7423L9.74609 12.6818L9.71582 12.6232C9.70529 12.6031 9.69817 12.5814 9.69434 12.5587L9.69043 12.5373L9.6875 12.5109V12.4962C9.6875 12.3297 9.82089 12.2111 9.95801 12.2111Z" fill="#009FA2" stroke="#009FA2" stroke-width="2"/>
</svg>
