<svg width="25" height="25" viewBox="0 0 25 25" fill="none" xmlns="http://www.w3.org/2000/svg">
<path d="M8.74836 14.7377C9.10379 14.7377 9.44466 14.5954 9.69599 14.3422C9.94732 14.0889 10.0885 13.7455 10.0885 13.3873C10.0885 13.0292 9.94732 12.6858 9.69599 12.4325C9.44466 12.1793 9.10379 12.037 8.74836 12.037C8.39293 12.037 8.05205 12.1793 7.80073 12.4325C7.5494 12.6858 7.4082 13.0292 7.4082 13.3873C7.4082 13.7455 7.5494 14.0889 7.80073 14.3422C8.05205 14.5954 8.39293 14.7377 8.74836 14.7377ZM8.74836 18.5185C9.10379 18.5185 9.44466 18.3763 9.69599 18.123C9.94732 17.8698 10.0885 17.5263 10.0885 17.1682C10.0885 16.8101 9.94732 16.4666 9.69599 16.2134C9.44466 15.9602 9.10379 15.8179 8.74836 15.8179C8.39293 15.8179 8.05205 15.9602 7.80073 16.2134C7.5494 16.4666 7.4082 16.8101 7.4082 17.1682C7.4082 17.5263 7.5494 17.8698 7.80073 18.123C8.05205 18.3763 8.39293 18.5185 8.74836 18.5185ZM13.841 13.3873C13.841 13.7455 13.6998 14.0889 13.4484 14.3422C13.1971 14.5954 12.8562 14.7377 12.5008 14.7377C12.1454 14.7377 11.8045 14.5954 11.5532 14.3422C11.3018 14.0889 11.1606 13.7455 11.1606 13.3873C11.1606 13.0292 11.3018 12.6858 11.5532 12.4325C11.8045 12.1793 12.1454 12.037 12.5008 12.037C12.8562 12.037 13.1971 12.1793 13.4484 12.4325C13.6998 12.6858 13.841 13.0292 13.841 13.3873ZM12.5008 18.5185C12.8562 18.5185 13.1971 18.3763 13.4484 18.123C13.6998 17.8698 13.841 17.5263 13.841 17.1682C13.841 16.8101 13.6998 16.4666 13.4484 16.2134C13.1971 15.9602 12.8562 15.8179 12.5008 15.8179C12.1454 15.8179 11.8045 15.9602 11.5532 16.2134C11.3018 16.4666 11.1606 16.8101 11.1606 17.1682C11.1606 17.5263 11.3018 17.8698 11.5532 18.123C11.8045 18.3763 12.1454 18.5185 12.5008 18.5185ZM17.5934 13.3873C17.5934 13.7455 17.4522 14.0889 17.2009 14.3422C16.9495 14.5954 16.6087 14.7377 16.2532 14.7377C15.8978 14.7377 15.5569 14.5954 15.3056 14.3422C15.0543 14.0889 14.9131 13.7455 14.9131 13.3873C14.9131 13.0292 15.0543 12.6858 15.3056 12.4325C15.5569 12.1793 15.8978 12.037 16.2532 12.037C16.6087 12.037 16.9495 12.1793 17.2009 12.4325C17.4522 12.6858 17.5934 13.0292 17.5934 13.3873Z" fill="#9DA9BC"/>
<path fill-rule="evenodd" clip-rule="evenodd" d="M8.43715 3.7037C8.63915 3.7037 8.83288 3.78548 8.97572 3.93103C9.11855 4.07659 9.1988 4.274 9.1988 4.47985V5.25599H15.7998V4.47985C15.7998 4.274 15.88 4.07659 16.0228 3.93103C16.1657 3.78548 16.3594 3.7037 16.5614 3.7037C16.7634 3.7037 16.9571 3.78548 17.1 3.93103C17.2428 4.07659 17.3231 4.274 17.3231 4.47985V5.26427C17.4774 5.26841 17.6213 5.276 17.7547 5.28704C18.1406 5.31808 18.5021 5.38845 18.8443 5.56645C19.3699 5.83931 19.7972 6.27475 20.065 6.81035C20.2397 7.1591 20.3087 7.52751 20.3392 7.92075C20.3696 8.29848 20.3696 8.75899 20.3696 9.31264V17.2397C20.3696 17.7933 20.3696 18.2538 20.3392 18.6315C20.3087 19.0248 20.2397 19.3932 20.065 19.7419C19.7975 20.2774 19.3706 20.7128 18.8453 20.9858C18.5021 21.1638 18.1406 21.2342 17.7547 21.2652C17.384 21.2963 16.9321 21.2963 16.3898 21.2963H8.60979C8.06648 21.2963 7.61457 21.2963 7.2439 21.2652C6.858 21.2342 6.49647 21.1638 6.15423 20.9858C5.62895 20.7135 5.20168 20.2788 4.93357 19.744C4.75889 19.3942 4.68984 19.0258 4.65937 18.6326C4.62891 18.2548 4.62891 17.7943 4.62891 17.2417V9.31264C4.62891 8.75899 4.62891 8.29848 4.65937 7.92075C4.68984 7.52751 4.75889 7.1591 4.93357 6.81035C5.20133 6.27475 5.62864 5.83931 6.15423 5.56645C6.49647 5.38845 6.858 5.31808 7.2439 5.28704C7.37727 5.276 7.52114 5.26841 7.6755 5.26427V4.47985C7.6755 4.37792 7.6952 4.277 7.73348 4.18283C7.77175 4.08867 7.82786 4.0031 7.89858 3.93103C7.96931 3.85896 8.05327 3.80179 8.14568 3.76279C8.23809 3.72378 8.33713 3.7037 8.43715 3.7037ZM7.6755 7.06699V6.81656C7.5728 6.81978 7.4702 6.82564 7.3678 6.83415C7.07634 6.85795 6.93721 6.90142 6.84581 6.94902C6.60657 7.07311 6.41209 7.27129 6.29032 7.51509C6.2436 7.60823 6.20095 7.75 6.17759 8.047C6.15322 8.35332 6.1522 8.75071 6.1522 9.34368V9.91285H18.8464V9.34368C18.8464 8.75174 18.8464 8.35332 18.821 8.047C18.7976 7.75 18.755 7.60823 18.7082 7.51509C18.5865 7.27129 18.392 7.07311 18.1527 6.94902C18.0613 6.90142 17.9222 6.85795 17.6297 6.83415C17.5277 6.82566 17.4254 6.8198 17.3231 6.81656V7.06699C17.3231 7.27284 17.2428 7.47026 17.1 7.61581C16.9571 7.76137 16.7634 7.84314 16.5614 7.84314C16.3594 7.84314 16.1657 7.76137 16.0228 7.61581C15.88 7.47026 15.7998 7.27284 15.7998 7.06699V6.80828H9.1988V7.06699C9.1988 7.27284 9.11855 7.47026 8.97572 7.61581C8.83288 7.76137 8.63915 7.84314 8.43715 7.84314C8.23515 7.84314 8.04142 7.76137 7.89858 7.61581C7.75575 7.47026 7.6755 7.27284 7.6755 7.06699ZM18.8464 10.9477H6.1522V17.2086C6.1522 17.8005 6.1522 18.199 6.17759 18.5042C6.20095 18.8023 6.2436 18.9441 6.29032 19.0372C6.41218 19.2814 6.60615 19.4791 6.84581 19.6033C6.93721 19.6509 7.07634 19.6943 7.3678 19.7181C7.66839 19.743 8.05836 19.744 8.64026 19.744H16.3583C16.9392 19.744 17.3302 19.744 17.6297 19.7181C17.9222 19.6943 18.0613 19.6509 18.1527 19.6033C18.392 19.4792 18.5865 19.281 18.7082 19.0372C18.755 18.9441 18.7976 18.8023 18.821 18.5042C18.8453 18.199 18.8464 17.8005 18.8464 17.2086V10.9477Z" fill="#9DA9BC"/>
<path fill-rule="evenodd" clip-rule="evenodd" d="M10.1855 8.33334C10.1855 8.08776 10.2668 7.85225 10.4115 7.67861C10.5562 7.50496 10.7525 7.40741 10.9572 7.40741H14.0436C14.2482 7.40741 14.4445 7.50496 14.5892 7.67861C14.7339 7.85225 14.8152 8.08776 14.8152 8.33334C14.8152 8.57891 14.7339 8.81442 14.5892 8.98806C14.4445 9.16171 14.2482 9.25926 14.0436 9.25926H10.9572C10.7525 9.25926 10.5562 9.16171 10.4115 8.98806C10.2668 8.81442 10.1855 8.57891 10.1855 8.33334Z" fill="#9DA9BC"/>
</svg>
