<svg width="24" height="24" viewBox="0 0 24 24" fill="none" xmlns="http://www.w3.org/2000/svg">
<path fill-rule="evenodd" clip-rule="evenodd" d="M21.1076 2.2499C20.5999 1.74222 19.7768 1.74222 19.2691 2.2499L11.5072 10.0119C11.383 10.136 11.2767 10.2767 11.1912 10.43L9.75437 13.0069C9.30793 13.8075 10.1917 14.6913 10.9923 14.2448L13.5692 12.808C13.7225 12.7225 13.8632 12.6162 13.9874 12.4921L21.7493 4.73011C22.257 4.22243 22.257 3.39931 21.7493 2.89163L21.1076 2.2499ZM8.99961 2.1002H8.93518C7.57579 2.10017 6.46491 2.10015 5.58787 2.21806C4.67113 2.34132 3.87633 2.60805 3.24189 3.24249C2.60746 3.87692 2.34072 4.67172 2.21747 5.58846C2.09956 6.4655 2.09958 7.57637 2.09961 8.93576V9.0002V15.0002V15.0646C2.09958 16.424 2.09956 17.5349 2.21747 18.4119C2.34072 19.3287 2.60746 20.1235 3.2419 20.7579C3.87633 21.3924 4.67113 21.6591 5.58787 21.7823C6.46491 21.9003 7.57579 21.9002 8.93519 21.9002H8.99961H14.9996H15.064C16.4234 21.9002 17.5343 21.9003 18.4114 21.7823C19.3281 21.6591 20.1229 21.3924 20.7573 20.7579C21.3918 20.1235 21.6585 19.3287 21.7817 18.4119C21.8997 17.5349 21.8996 16.424 21.8996 15.0646V15.0002V12.0002C21.8996 11.5031 21.4967 11.1002 20.9996 11.1002C20.5026 11.1002 20.0996 11.5031 20.0996 12.0002V15.0002C20.0996 16.4399 20.0977 17.4291 19.9978 18.1721C19.9014 18.8892 19.7288 19.2409 19.4845 19.4851C19.2403 19.7294 18.8886 19.902 18.1715 19.9984C17.4285 20.0983 16.4393 20.1002 14.9996 20.1002H8.99961C7.55995 20.1002 6.57075 20.0983 5.82772 19.9984C5.11058 19.902 4.75893 19.7294 4.51469 19.4851C4.27044 19.2409 4.09784 18.8892 4.00142 18.1721C3.90152 17.4291 3.89961 16.4399 3.89961 15.0002V9.0002C3.89961 7.56055 3.90152 6.57134 4.00142 5.82831C4.09784 5.11117 4.27044 4.75953 4.51469 4.51528C4.75893 4.27103 5.11058 4.09843 5.82772 4.00201C6.57075 3.90211 7.55996 3.9002 8.99961 3.9002H11.9996C12.4967 3.9002 12.8996 3.49726 12.8996 3.0002C12.8996 2.50315 12.4967 2.1002 11.9996 2.1002H8.99961Z" fill="#009FA2"/>
</svg>
