<svg width="20" height="19" viewBox="0 0 20 19" fill="none" xmlns="http://www.w3.org/2000/svg">
<g clip-path="url(#clip0_870_299)">
<path d="M6.33944 6.19389H13.8716M6.33944 9.97243H11.9886M15.7546 1.4707C16.5038 1.4707 17.2222 1.76928 17.7519 2.30074C18.2816 2.8322 18.5792 3.55301 18.5792 4.30461V11.8617C18.5792 12.6133 18.2816 13.3341 17.7519 13.8656C17.2222 14.397 16.5038 14.6956 15.7546 14.6956H11.047L6.33944 17.5295V14.6956H4.4564C3.70728 14.6956 2.98884 14.397 2.45913 13.8656C1.92942 13.3341 1.63184 12.6133 1.63184 11.8617V4.30461C1.63184 3.55301 1.92942 2.8322 2.45913 2.30074C2.98884 1.76928 3.70728 1.4707 4.4564 1.4707H15.7546Z" stroke="#748CA4" stroke-width="1.5" stroke-linecap="round" stroke-linejoin="round"/>
</g>
<defs>
<clipPath id="clip0_870_299">
<rect width="20" height="19" fill="white"/>
</clipPath>
</defs>
</svg>
