<svg width="271" height="71" viewBox="0 0 271 71" fill="none" xmlns="http://www.w3.org/2000/svg">
<path fill-rule="evenodd" clip-rule="evenodd" d="M150.803 68.1528C150.803 68.2529 150.749 68.2986 150.64 68.2986H149.844C149.735 68.2986 149.681 68.2529 149.681 68.1528L149.464 61.7171V61.39C149.464 61.2797 149.473 61.1707 149.482 61.0616L149.292 61.7995L147.637 66.1584C147.6 66.2497 147.537 66.2953 147.429 66.2953H147.02C146.921 66.2953 146.849 66.2497 146.812 66.1584L145.229 61.7995C145.181 61.6794 145.147 61.5538 145.129 61.4255C145.102 61.2898 145.084 61.1719 145.066 61.0616C145.053 61.1582 145.046 61.2557 145.048 61.3532V61.7171L144.84 68.1528C144.84 68.2529 144.785 68.2986 144.677 68.2986H143.88C143.772 68.2986 143.718 68.2529 143.718 68.1528L144.233 59.8787C144.233 59.7773 144.288 59.7329 144.396 59.7329H145.283C145.355 59.7329 145.411 59.7786 145.437 59.8787L147.048 64.1742C147.076 64.2478 147.111 64.3657 147.148 64.5292C147.184 64.694 147.211 64.8297 147.219 64.9476C147.252 64.7925 147.289 64.6382 147.329 64.4848C147.355 64.3834 147.392 64.2845 147.429 64.1844L149.057 59.8876C149.094 59.7874 149.148 59.7418 149.211 59.7418H150.097C150.207 59.7418 150.261 59.7874 150.261 59.8876L150.803 68.1528ZM157.717 59.8508L157.482 60.4886C157.463 60.5608 157.4 60.5976 157.301 60.5976H154.243V63.3831H156.93C157.038 63.3831 157.093 63.4287 157.093 63.5289V64.102C157.093 64.2021 157.038 64.2478 156.93 64.2478H154.243V67.4149H157.527C157.636 67.4149 157.69 67.4605 157.69 67.5607V68.1337C157.69 68.2352 157.636 68.2795 157.527 68.2795H153.292C153.184 68.2795 153.128 68.2339 153.128 68.1337V59.8597C153.128 59.7608 153.184 59.7152 153.292 59.7152H157.582C157.708 59.7329 157.753 59.7697 157.717 59.8508ZM166.141 70.4463C166.141 70.5465 166.087 70.5921 165.979 70.5921H165.182C165.074 70.5921 165.02 70.5465 165.02 70.4463V68.3074H159.799V70.4463C159.799 70.5465 159.745 70.5921 159.635 70.5921H158.84C158.73 70.5921 158.676 70.5465 158.676 70.4463V67.652C158.676 67.5607 158.686 67.4973 158.703 67.4694C158.721 67.4428 158.803 67.4237 158.948 67.4237H159.409C159.755 66.7586 160.016 66.0524 160.187 65.3216C160.338 64.6668 160.432 63.9999 160.468 63.3286C160.505 62.5995 160.531 61.7437 160.531 60.77V59.9789C160.531 59.8521 160.55 59.7697 160.585 59.7507C160.656 59.7276 160.73 59.7185 160.803 59.724H164.902C164.973 59.7195 165.043 59.7286 165.11 59.7507C165.156 59.7697 165.173 59.842 165.173 59.97V67.4149H165.853C165.996 67.4149 166.078 67.4237 166.096 67.4516C166.115 67.4783 166.124 67.5429 166.124 67.6418V70.4463H166.141ZM164.06 67.4237V60.5976H161.599V62.0176C161.599 64.1844 161.274 65.9771 160.631 67.4237H164.06ZM173.834 68.1528C173.834 68.2529 173.78 68.2986 173.671 68.2986H172.875C172.766 68.2986 172.712 68.2529 172.712 68.1528V62.0455C172.712 61.8997 172.721 61.7349 172.748 61.5447C172.766 61.3532 172.802 61.1517 172.847 60.9348C172.784 61.0895 172.721 61.2518 172.667 61.4166C172.606 61.5724 172.536 61.7248 172.459 61.8731L169.11 68.1794C169.056 68.2618 168.984 68.3062 168.893 68.3062H168.042C167.934 68.3062 167.88 68.2618 167.88 68.1616V59.8876C167.88 59.7874 167.934 59.7418 168.042 59.7418H168.839C168.947 59.7418 169.001 59.7874 169.001 59.8876V65.7033C169.001 65.8491 168.984 66.0139 168.965 66.2041C168.938 66.3955 168.911 66.5971 168.865 66.8139C168.92 66.6592 168.984 66.4969 169.047 66.3321C169.11 66.1673 169.183 66.0139 169.255 65.8757L172.459 59.842C172.48 59.8055 172.511 59.7754 172.547 59.7547C172.584 59.734 172.625 59.7234 172.667 59.724H173.68C173.789 59.724 173.843 59.7697 173.843 59.8698V68.1528H173.834ZM183.01 70.4463C183.01 70.5465 182.955 70.5921 182.846 70.5921H182.051C181.941 70.5921 181.887 70.5465 181.887 70.4463V68.3074H176.593C176.485 68.3074 176.431 68.2618 176.431 68.1616V59.8876C176.431 59.7874 176.485 59.7418 176.593 59.7418H177.39C177.498 59.7418 177.552 59.7874 177.552 59.8876V67.4339H180.928V59.8876C180.928 59.7874 180.982 59.7418 181.092 59.7418H181.887C181.996 59.7418 182.051 59.7874 182.051 59.8876V67.4339H182.729C182.874 67.4339 182.955 67.4428 182.974 67.4694C182.991 67.4973 183 67.5607 183 67.6608V70.4463H183.01ZM190.702 68.1515C190.702 68.2529 190.647 68.2986 190.539 68.2986H189.742C189.634 68.2986 189.58 68.2529 189.58 68.1528V62.0455C189.58 61.8997 189.589 61.7349 189.615 61.5447C189.643 61.3532 189.671 61.1517 189.715 60.9348C189.652 61.0895 189.589 61.2518 189.534 61.4166C189.478 61.576 189.406 61.729 189.318 61.8731L185.969 68.1794C185.914 68.2618 185.843 68.3062 185.752 68.3062H184.901C184.793 68.3062 184.738 68.2618 184.738 68.1616V59.8876C184.738 59.7874 184.793 59.7418 184.901 59.7418H185.698C185.806 59.7418 185.86 59.7874 185.86 59.8876V65.7033C185.86 65.8491 185.843 66.0139 185.824 66.2041C185.806 66.3955 185.769 66.5971 185.724 66.8139C185.778 66.6592 185.843 66.4969 185.906 66.3321C185.977 66.1673 186.05 66.0139 186.114 65.8757L189.308 59.842C189.329 59.8057 189.359 59.7758 189.396 59.7551C189.432 59.7344 189.474 59.7237 189.516 59.724H190.53C190.639 59.724 190.693 59.7697 190.693 59.8698V68.1528H190.702V68.1515ZM199.053 68.1515C199.053 68.2529 198.999 68.2986 198.891 68.2986H198.094C197.986 68.2986 197.932 68.2529 197.932 68.1528V64.2845H194.421V68.1515C194.421 68.2529 194.367 68.2986 194.257 68.2986H193.462C193.354 68.2986 193.298 68.2529 193.298 68.1528V59.8787C193.298 59.7773 193.354 59.7329 193.462 59.7329H194.257C194.367 59.7329 194.421 59.7786 194.421 59.8787V63.4097H197.932V59.8787C197.932 59.7773 197.986 59.7329 198.094 59.7329H198.891C198.999 59.7329 199.053 59.7786 199.053 59.8787V68.1528V68.1515ZM206.393 67.515C206.393 67.5607 206.376 67.5974 206.339 67.6418C206.301 67.6835 206.258 67.7206 206.212 67.7521C205.949 67.9803 205.642 68.1528 205.289 68.2795C204.936 68.4063 204.565 68.471 204.176 68.471C203.299 68.471 202.61 68.1984 202.095 67.6342C201.398 66.8786 201.054 65.6487 201.054 63.9295C201.054 62.8189 201.199 61.9263 201.48 61.2531C201.95 60.1145 202.801 59.5503 204.031 59.5503C204.402 59.5503 204.773 59.6137 205.153 59.7329C205.525 59.8508 205.85 60.0334 206.112 60.2781C206.157 60.3161 206.194 60.3516 206.239 60.3973C206.273 60.4385 206.292 60.4898 206.294 60.5431L206.248 60.6242L205.878 61.0705C205.841 61.0806 205.813 61.0984 205.813 61.1073L205.787 61.1339C205.759 61.1339 205.678 61.0794 205.542 60.9703C205.072 60.5887 204.592 60.3973 204.104 60.3973C203.308 60.3973 202.773 60.8157 202.502 61.6525C202.357 62.0987 202.284 62.7732 202.284 63.6557C202.284 64.7942 202.384 65.6589 202.583 66.2586C202.89 67.1879 203.442 67.652 204.221 67.652C204.466 67.652 204.728 67.5886 205.018 67.4516C205.229 67.3419 205.431 67.2174 205.624 67.0789C205.677 67.0403 205.731 67.0039 205.787 66.9698C205.832 66.9508 205.859 66.9318 205.878 66.9242L205.986 66.9876L206.33 67.3882C206.375 67.4149 206.393 67.4605 206.393 67.515ZM214.058 67.7432L213.85 68.3442C213.814 68.4431 213.75 68.4887 213.669 68.4887C213.582 68.4724 213.494 68.4606 213.406 68.4532L213.198 68.4253C212.933 68.3977 212.675 68.3203 212.438 68.1971C212.294 68.1228 212.164 68.0212 212.058 67.8979C211.939 67.7541 211.853 67.5864 211.804 67.406C211.741 67.1968 211.659 66.942 211.56 66.6148L211.216 65.3495C211.098 64.8931 210.945 64.5939 210.754 64.4481C210.609 64.3302 210.384 64.2744 210.076 64.2744H209.143V68.1439C209.143 68.244 209.089 68.2884 208.981 68.2884H208.184C208.076 68.2884 208.022 68.244 208.022 68.1439V59.8686C208.022 59.7672 208.076 59.7228 208.184 59.7228H208.981C209.089 59.7228 209.143 59.7684 209.143 59.8686V63.4084H210.076C210.356 63.4084 210.565 63.3641 210.691 63.2639C210.89 63.108 211.053 62.8075 211.18 62.3346L211.443 61.4154C211.514 61.1574 211.596 60.9023 211.687 60.6508C211.768 60.4419 211.888 60.2504 212.04 60.0866C212.175 59.9408 212.348 59.8318 212.538 59.7595C212.734 59.6852 212.937 59.63 213.144 59.5947L213.298 59.5681C213.433 59.5402 213.524 59.5858 213.56 59.6949L213.75 60.2591C213.777 60.3681 213.714 60.4328 213.56 60.4683L213.352 60.5063C213.241 60.5272 213.132 60.5573 213.026 60.5963C212.926 60.6415 212.841 60.714 212.781 60.8055C212.706 60.9136 212.642 61.0297 212.592 61.1516C212.535 61.3231 212.484 61.4965 212.438 61.6715L212.23 62.3713C212.121 62.753 212.021 63.0268 211.932 63.1815C211.77 63.4723 211.519 63.7024 211.216 63.837C211.469 63.919 211.699 64.0622 211.886 64.254C212.072 64.4457 212.209 64.6804 212.285 64.9375L212.791 66.6402C212.845 66.8126 212.891 66.9496 212.936 67.0497C212.971 67.143 213.027 67.2271 213.099 67.2957C213.162 67.3591 213.225 67.4047 213.307 67.4326C213.402 67.4718 213.503 67.4961 213.606 67.5049L213.868 67.5416C214.039 67.5594 214.103 67.6342 214.058 67.7432ZM221.632 68.1528C221.632 68.2529 221.578 68.2986 221.47 68.2986H220.673C220.556 68.2986 220.51 68.2529 220.51 68.1528V62.0455C220.51 61.8997 220.519 61.7349 220.546 61.5447C220.565 61.3532 220.6 61.1517 220.645 60.9348C220.582 61.0895 220.519 61.2518 220.465 61.4166C220.401 61.5815 220.338 61.7349 220.257 61.8731L216.908 68.1794C216.854 68.2618 216.782 68.3062 216.691 68.3062H215.84C215.732 68.3062 215.678 68.2618 215.678 68.1616V59.8876C215.678 59.7874 215.732 59.7418 215.84 59.7418H216.637C216.745 59.7418 216.8 59.7874 216.8 59.8876V65.7033C216.8 65.8491 216.782 66.0139 216.763 66.2041C216.737 66.3955 216.709 66.5971 216.663 66.8139C216.718 66.6592 216.782 66.4969 216.845 66.3321C216.917 66.1673 216.981 66.0139 217.062 65.8757L220.257 59.842C220.278 59.8055 220.309 59.7754 220.345 59.7547C220.382 59.734 220.423 59.7234 220.465 59.724H221.478C221.587 59.724 221.641 59.7697 221.641 59.8698V68.1528H221.632ZM228.979 57.7855L228.944 57.9757C228.899 58.1215 228.836 58.2673 228.763 58.3941C228.592 58.6903 228.323 58.9159 228.003 59.0305C227.749 59.13 227.478 59.18 227.206 59.1776C226.917 59.1776 226.664 59.1408 226.465 59.0597C226.288 58.9922 226.123 58.8968 225.976 58.777C225.846 58.6681 225.739 58.5351 225.659 58.3852C225.58 58.258 225.519 58.1201 225.478 57.9757L225.432 57.7855C225.432 57.6841 225.478 57.6308 225.577 57.6118L226.075 57.5395L226.166 57.5205C226.238 57.5205 226.283 57.5585 226.301 57.6397L226.346 57.8299C226.401 58.0758 226.51 58.2483 226.664 58.3586C226.818 58.4676 226.998 58.5234 227.206 58.5234C227.397 58.5261 227.584 58.4685 227.74 58.3586C227.903 58.2495 228.011 58.0758 228.066 57.8299L228.111 57.6397C228.13 57.5484 228.202 57.5129 228.347 57.5383L228.836 57.6118C228.935 57.6308 228.979 57.6853 228.979 57.7855ZM230.183 68.1528C230.183 68.2529 230.129 68.2986 230.021 68.2986H229.224C229.116 68.2986 229.061 68.2529 229.061 68.1528V62.0455C229.061 61.8997 229.079 61.7349 229.098 61.5447C229.124 61.3532 229.152 61.1517 229.197 60.9348C229.131 61.0931 229.071 61.2538 229.016 61.4166C228.953 61.5815 228.89 61.7349 228.808 61.8731L225.46 68.1794C225.438 68.2178 225.406 68.2497 225.368 68.272C225.33 68.2942 225.286 68.306 225.242 68.3062H224.393C224.283 68.3062 224.229 68.2618 224.229 68.1616V59.8876C224.229 59.7874 224.283 59.7418 224.393 59.7418H225.188C225.296 59.7418 225.352 59.7874 225.352 59.8876V65.7033C225.352 65.8491 225.342 66.0139 225.315 66.2041C225.296 66.3955 225.261 66.5971 225.216 66.8139C225.27 66.6592 225.333 66.4969 225.396 66.3321C225.469 66.1673 225.541 66.0139 225.605 65.8757L228.808 59.842C228.829 59.8057 228.86 59.7758 228.896 59.7551C228.933 59.7344 228.974 59.7237 229.016 59.724H230.029C230.138 59.724 230.192 59.7697 230.192 59.8698V68.1528H230.183ZM242.545 70.4463C242.545 70.5465 242.49 70.5921 242.382 70.5921H241.585C241.477 70.5921 241.423 70.5465 241.423 70.4463V68.3074H236.129C236.02 68.3074 235.966 68.2618 235.966 68.1616V59.8876C235.966 59.7874 236.02 59.7418 236.129 59.7418H236.925C237.034 59.7418 237.088 59.7874 237.088 59.8876V67.4339H240.464V59.8876C240.464 59.7874 240.518 59.7418 240.626 59.7418H241.423C241.531 59.7418 241.585 59.7874 241.585 59.8876V67.4339H242.265C242.41 67.4339 242.49 67.4428 242.509 67.4694C242.527 67.4973 242.536 67.5607 242.536 67.6608V70.4463H242.545ZM248.871 59.8508L248.635 60.4886C248.617 60.5608 248.553 60.5976 248.454 60.5976H245.396V63.3831H248.092C248.2 63.3831 248.254 63.4287 248.254 63.5289V64.102C248.254 64.2021 248.2 64.2478 248.092 64.2478H245.396V67.4149H248.68C248.789 67.4149 248.843 67.4605 248.843 67.5607V68.1337C248.843 68.2352 248.789 68.2795 248.68 68.2795H244.445C244.337 68.2795 244.283 68.2339 244.283 68.1337V59.8597C244.283 59.7608 244.337 59.7152 244.445 59.7152H248.735C248.861 59.7329 248.906 59.7697 248.871 59.8508ZM256.634 68.1528C256.634 68.2529 256.58 68.2986 256.471 68.2986H255.675C255.566 68.2986 255.512 68.2529 255.512 68.1528V64.2845H252.002V68.1515C252.002 68.2529 251.948 68.2986 251.838 68.2986H251.043C250.933 68.2986 250.879 68.2529 250.879 68.1528V59.8787C250.879 59.7773 250.933 59.7329 251.043 59.7329H251.838C251.948 59.7329 252.002 59.7786 252.002 59.8787V63.4097H255.512V59.8787C255.512 59.7773 255.566 59.7329 255.675 59.7329H256.471C256.58 59.7329 256.634 59.7786 256.634 59.8787V68.1528ZM263.928 59.9155L263.712 60.4695C263.675 60.5608 263.602 60.6065 263.493 60.6065H261.566V68.1528C261.566 68.2529 261.512 68.2986 261.404 68.2986H260.607C260.499 68.2986 260.444 68.2529 260.444 68.1528V60.6065H258.409C258.299 60.6065 258.245 60.5608 258.245 60.4607V59.8876C258.245 59.7874 258.299 59.7418 258.409 59.7418H263.792C263.883 59.7418 263.937 59.7608 263.946 59.8052C263.955 59.8331 263.946 59.8787 263.928 59.9155ZM270.19 62.0075C270.19 62.8823 269.928 63.5466 269.403 64.0018C268.878 64.457 268.155 64.6852 267.241 64.6852H266.254V68.1528C266.254 68.2529 266.2 68.2986 266.091 68.2986H265.295C265.186 68.2986 265.132 68.2529 265.132 68.1528V59.8787C265.132 59.7773 265.186 59.7329 265.295 59.7329H267.412C268.19 59.7329 268.779 59.8331 269.159 60.0245C269.846 60.3605 270.19 61.0249 270.19 62.0075ZM269.069 62.0721C269.069 61.4445 268.887 61.035 268.534 60.8169C268.3 60.6699 267.891 60.6065 267.304 60.6065H266.254V63.8103H267.141C267.674 63.8103 268.073 63.7292 268.344 63.5821C268.824 63.3197 269.069 62.8087 269.069 62.0721Z" fill="#00979A"/>
<path fill-rule="evenodd" clip-rule="evenodd" d="M138.985 17.2687C137.184 16.5587 135.555 16.139 133.555 16.139C125.791 16.139 119.438 22.6203 119.438 30.3656C119.438 38.1122 125.791 44.5935 133.555 44.5935C141.32 44.5935 147.681 38.1122 147.681 30.3656C147.681 26.68 146.261 23.1477 143.654 20.4358C142.75 19.4887 142.333 18.5239 142.56 17.3131C141.465 17.8506 140.215 17.7606 138.985 17.2687ZM133.555 8.33789C136.379 8.33789 139.782 8.9845 142.315 10.1864C143.645 10.814 144.912 12.5066 144.632 14.3196C146.288 13.4359 148.523 14.1548 149.818 15.656C153.111 19.4063 155.4 23.859 155.4 30.3758C155.4 42.4268 145.637 52.4847 133.565 52.4847C121.492 52.4847 111.647 42.4356 111.647 30.3745C111.638 18.3147 121.484 8.33789 133.555 8.33789ZM213.624 17.2674C211.822 16.5574 210.194 16.139 208.194 16.139C200.429 16.139 194.078 22.6203 194.078 30.3656C194.078 38.1122 200.429 44.5935 208.194 44.5935C215.958 44.5935 222.32 38.1122 222.32 30.3656C222.32 26.68 220.899 23.1477 218.292 20.4358C217.389 19.4887 216.971 18.5239 217.198 17.3131C216.103 17.8506 214.863 17.7593 213.624 17.2674ZM208.194 8.33789C211.017 8.33789 214.42 8.9845 216.945 10.1864C218.275 10.814 219.542 12.5066 219.262 14.3196C220.917 13.4359 223.153 14.1548 224.446 15.656C227.741 19.4063 230.03 23.859 230.03 30.3758C230.03 42.4268 220.266 52.4847 208.194 52.4847C196.122 52.4847 186.277 42.4356 186.277 30.3745C186.277 18.3147 196.122 8.33789 208.194 8.33789ZM104.181 51.4831H100.715C98.9326 51.4831 98.1461 50.309 98.1461 48.5886V17.8595C98.1461 17.6871 98.1549 17.0772 98.0642 16.9314C97.9104 16.83 97.2411 16.8401 97.0596 16.8401H90.1548C89.314 16.8401 89.3594 17.1495 89.2951 17.9774C89.0682 20.8263 88.6989 24.64 88.2464 27.4622C87.1334 34.3531 85.5667 43.8924 82.418 50.1366C80.1202 54.706 76.1107 60.0132 69.7503 60.0855C69.2512 60.0943 68.7445 60.0753 68.2466 60.0753C65.9299 60.0753 64.0568 58.0823 64.0568 55.7608C64.0565 55.2073 64.1647 54.6592 64.3751 54.1479C64.5856 53.6365 64.8942 53.1718 65.2833 52.7805C65.6725 52.3892 66.1345 52.0789 66.643 51.8674C67.1514 51.6559 67.6964 51.5472 68.2466 51.5477C68.8352 51.5477 69.3155 51.5832 69.9117 51.4564C72.744 50.8365 73.93 48.3071 75.5044 44.6202C79.6853 34.7714 81.1689 17.2598 81.4412 12.5979C81.5949 10.0317 83.3772 9.02127 85.7305 9.02127H103.15C105.703 9.02127 106.824 10.705 106.824 13.1545V48.7622C106.816 50.6818 106.073 51.4831 104.181 51.4831ZM255.92 8.35691C258.644 8.35691 261.296 8.80193 263.82 9.77691C265.683 10.4324 267.168 11.6331 267.168 13.7263C267.168 15.8119 265.748 17.6858 263.232 17.6858C262.571 17.6858 261.983 17.4956 261.376 17.2408C261.145 17.1827 260.918 17.1064 260.698 17.0126C259.167 16.4395 257.545 16.1467 255.911 16.1479C248.147 16.1479 241.993 22.6292 241.993 30.3745C241.993 38.1211 248.147 44.539 255.911 44.6024C259.313 44.629 262.706 43.2281 264.154 41.9627C264.812 41.4987 265.596 41.2507 266.399 41.2527C266.913 41.2522 267.421 41.3536 267.896 41.551C268.37 41.7484 268.801 42.038 269.164 42.4032C269.527 42.7683 269.815 43.202 270.012 43.6792C270.208 44.1564 270.309 44.6679 270.308 45.1844C270.308 46.3318 269.784 47.3334 269.032 48.0877C268.019 49.1084 266.272 49.9895 265.023 50.555C262.21 51.8381 259.033 52.4758 255.92 52.4758C243.848 52.4758 234.202 42.4179 234.202 30.3656C234.202 18.3147 243.848 8.35691 255.92 8.35691ZM175.002 16.5574C175.011 16.849 175.037 17.1863 175.037 17.3942V48.8244C175.037 50.9645 174.395 51.4742 172.432 51.4742C171.21 51.4742 170.007 51.5921 168.784 51.4742C166.848 51.284 166.441 50.9189 166.441 48.8345V17.4043C166.441 17.1863 166.477 16.8592 166.486 16.5676H157.953C156.134 16.5676 155.365 15.8195 155.365 13.9V11.7522C155.365 9.58419 156.061 9.01239 158.043 9.01239H183.254C185.155 9.01239 186.222 9.64885 186.222 11.751V13.4905C186.222 15.8842 185.317 16.5764 183.028 16.5764H175.544C175.363 16.5647 175.183 16.5584 175.002 16.5574Z" fill="#A9EBEB" fill-opacity="0.5"/>
<path fill-rule="evenodd" clip-rule="evenodd" d="M32.7716 0C35.5736 0.01775 37.8412 2.33286 37.8412 5.17159C37.8412 5.34655 37.8324 5.52025 37.8147 5.68634C37.7139 13.1908 37.298 20.5951 36.3085 28.1363C36.1724 29.1468 36.9349 29.1556 37.153 28.2555C39.4559 20.6128 40.6621 12.8878 41.5243 4.95986V4.95098C41.5243 4.52879 41.5873 4.12434 41.6957 3.73891L41.7058 3.70088C41.9086 2.88991 42.3865 2.1756 43.057 1.68118C43.7964 1.0713 44.7226 0.737167 45.6788 0.735357C46.3052 0.736579 46.9232 0.880084 47.4867 1.15516C48.0503 1.43024 48.5448 1.82979 48.9333 2.32398C49.677 3.14175 50.0677 4.28916 49.7677 5.74086C48.2438 13.0348 46.5851 20.1716 43.2473 27.3274C42.7658 28.3569 43.4641 28.5407 44.0994 27.5391C48.4619 20.7143 50.9374 13.7423 53.0613 6.62329C53.2014 5.83955 53.6101 5.12999 54.2165 4.61805C54.8229 4.10611 55.5885 3.82418 56.3801 3.82132C58.2393 3.82132 59.7531 5.35543 59.7531 7.2382V7.27623C59.7457 7.81313 59.6154 8.34109 59.3725 8.81921C57.2045 14.6881 55.0554 20.4201 51.0736 26.2345C50.2669 27.1524 51.1189 27.3921 51.9181 26.5096C56.7709 21.3938 59.1368 15.6707 61.8304 9.88421C62.3472 9.20464 63.2913 9.28705 63.7349 10.224C64.7962 12.4833 64.1975 15.8546 62.9547 19.0141C59.5262 27.7407 49.4148 40.7933 40.9798 47.9681C37.85 50.6319 35.3115 51.9733 32.7716 51.9821C30.2318 51.9644 27.6919 50.6319 24.5635 47.9681C16.1284 40.7933 6.01699 27.7407 2.58852 19.0141C1.34571 15.8546 0.746984 12.4846 1.80704 10.224C2.25198 9.28579 3.20489 9.20464 3.71286 9.88421C6.39765 15.6707 8.77363 21.3938 13.6252 26.5096C14.4319 27.3921 15.2764 27.1537 14.4697 26.2345C10.4866 20.4201 8.33877 14.6881 6.17076 8.81795C6.01049 8.51308 5.89985 8.18433 5.84304 7.84423C5.80748 7.6566 5.78975 7.46598 5.7901 7.27496V7.23946C5.7901 5.3567 7.30392 3.82259 9.16311 3.82259C10.8143 3.82259 12.1933 5.03466 12.4832 6.62455C14.6058 13.7436 17.0814 20.7155 21.4438 27.5404C22.0791 28.542 22.7774 28.348 22.2959 27.3287C18.9582 20.1729 17.3082 13.0361 15.7755 5.74213C15.4755 4.29043 15.8663 3.14302 16.6011 2.32525C16.9897 1.83065 17.4843 1.43076 18.0481 1.15546C18.6119 0.880149 19.2302 0.73654 19.8569 0.735357C20.8131 0.737167 21.7393 1.0713 22.4787 1.68118C23.1039 2.14014 23.5929 2.80196 23.8198 3.70214L23.8387 3.73891C23.9559 4.12434 24.0101 4.52879 24.0101 4.95098V4.95986C24.8723 12.8878 26.0773 20.6128 28.3814 28.2555C28.5995 29.1645 29.3608 29.1556 29.2259 28.1363C28.2365 20.5951 27.8193 13.1908 27.7197 5.68634C27.7016 5.51537 27.6927 5.34353 27.6932 5.17159C27.702 2.33286 29.9696 0.01775 32.7716 0Z" fill="#009FA2"/>
</svg>
