<svg width="50" height="50" viewBox="0 0 50 50" fill="none" xmlns="http://www.w3.org/2000/svg">
<g clip-path="url(#clip0_8919_1936)">
<path d="M40.2758 44.9885C32.8435 49.8284 22.7919 48.9874 16.2699 42.4654C8.78242 34.9779 8.78242 22.8382 16.2699 15.3507C23.7574 7.86318 35.897 7.86318 43.3845 15.3507C49.9003 21.8666 50.7459 31.9056 45.9211 39.3358" stroke="#009FA2" stroke-width="1.5" stroke-miterlimit="10" stroke-linecap="round" stroke-linejoin="round"/>
<path d="M29.8274 43.4005C21.8234 43.4005 15.335 36.9121 15.335 28.908C15.335 20.904 21.8234 14.4156 29.8274 14.4156C37.8313 14.4156 44.3198 20.904 44.3198 28.908C44.3198 36.9121 37.8313 43.4005 29.8274 43.4005Z" stroke="#009FA2" stroke-width="1.5" stroke-miterlimit="10" stroke-linecap="round" stroke-linejoin="round"/>
<path d="M26.2174 5.79285H33.4072C34.7309 5.79285 35.8039 4.71986 35.8039 3.39622C35.8039 2.07259 34.7309 0.999602 33.4072 0.999602H26.2174C24.8938 0.999602 23.8208 2.07259 23.8208 3.39622C23.8208 4.71986 24.8938 5.79285 26.2174 5.79285Z" stroke="#009FA2" stroke-width="1.5" stroke-miterlimit="10" stroke-linecap="round" stroke-linejoin="round"/>
<path d="M33.2277 9.73499V5.79294H26.396V9.73499" stroke="#009FA2" stroke-width="1.5" stroke-miterlimit="10" stroke-linecap="round" stroke-linejoin="round"/>
<path d="M31.7197 27.0151L36.8498 21.8851" stroke="#009FA2" stroke-width="1.5" stroke-miterlimit="10" stroke-linecap="round" stroke-linejoin="round"/>
<path d="M27.7227 28.9081C27.7227 30.0704 28.6648 31.0126 29.8271 31.0126C30.9893 31.0126 31.9315 30.0704 31.9315 28.9081C31.9315 27.7459 30.9893 26.8037 29.8271 26.8037C28.6648 26.8037 27.7227 27.7459 27.7227 28.9081Z" stroke="#009FA2" stroke-width="1.5" stroke-miterlimit="10" stroke-linecap="round" stroke-linejoin="round"/>
<path d="M40.5042 28.9202H39.5791" stroke="#009FA2" stroke-width="1.5" stroke-miterlimit="10" stroke-linecap="round" stroke-linejoin="round"/>
<path d="M19.1499 28.8958H20.075" stroke="#009FA2" stroke-width="1.5" stroke-miterlimit="10" stroke-linecap="round" stroke-linejoin="round"/>
<path d="M29.8389 18.231V19.1561" stroke="#009FA2" stroke-width="1.5" stroke-miterlimit="10" stroke-linecap="round" stroke-linejoin="round"/>
<path d="M29.8145 39.585V38.6599" stroke="#009FA2" stroke-width="1.5" stroke-miterlimit="10" stroke-linecap="round" stroke-linejoin="round"/>
<path d="M28.2477 27.3285L25.5366 24.6174" stroke="#009FA2" stroke-width="1.5" stroke-miterlimit="10" stroke-linecap="round" stroke-linejoin="round"/>
<path d="M31.3149 27.4199L36.7046 22.0303" stroke="#009FA2" stroke-width="1.5" stroke-miterlimit="10" stroke-linecap="round" stroke-linejoin="round"/>
<path d="M11.529 35.0697H3.86377" stroke="#009FA2" stroke-width="1.5" stroke-miterlimit="10" stroke-linecap="round" stroke-linejoin="round"/>
<path d="M10.6542 29.2341H5.26172" stroke="#009FA2" stroke-width="1.5" stroke-miterlimit="10" stroke-linecap="round" stroke-linejoin="round"/>
<path d="M11.2624 23.3988H-0.130859" stroke="#009FA2" stroke-width="1.5" stroke-miterlimit="10" stroke-linecap="round" stroke-linejoin="round"/>
<path d="M13.7928 17.5634H6.67676" stroke="#009FA2" stroke-width="1.5" stroke-miterlimit="10" stroke-linecap="round" stroke-linejoin="round"/>
</g>
<defs>
<clipPath id="clip0_8919_1936">
<rect width="50" height="50" fill="white"/>
</clipPath>
</defs>
</svg>
