<svg width="50" height="50" viewBox="0 0 50 50" fill="none" xmlns="http://www.w3.org/2000/svg">
<path d="M18.6064 31.3401V32.2523C18.6064 32.8253 19.0741 33.293 19.6471 33.293H46.1763C46.7493 33.293 47.217 32.8253 47.217 32.2523V31.3401C47.217 16.9124 18.6064 16.9124 18.6064 31.3401Z" stroke="#009FA2" stroke-width="1.5" stroke-miterlimit="10" stroke-linecap="round" stroke-linejoin="round"/>
<path d="M19.3391 38.8635L8.17747 42.7306M6.59473 31.1089L19.7964 26.6815" stroke="#009FA2" stroke-width="1.5" stroke-miterlimit="10" stroke-linecap="round" stroke-linejoin="round"/>
<path d="M43.3984 29.9574L43.4038 29.9628" stroke="#009FA2" stroke-width="1.5" stroke-miterlimit="10" stroke-linecap="round" stroke-linejoin="round"/>
<path d="M39.2031 29.9574L39.2085 29.9628" stroke="#009FA2" stroke-width="1.5" stroke-miterlimit="10" stroke-linecap="round" stroke-linejoin="round"/>
<path d="M35.0073 29.9574L35.0127 29.9628" stroke="#009FA2" stroke-width="1.5" stroke-miterlimit="10" stroke-linecap="round" stroke-linejoin="round"/>
<path d="M30.8115 29.9574L30.8169 29.9628" stroke="#009FA2" stroke-width="1.5" stroke-miterlimit="10" stroke-linecap="round" stroke-linejoin="round"/>
<path d="M26.6162 29.9574L26.6216 29.9628" stroke="#009FA2" stroke-width="1.5" stroke-miterlimit="10" stroke-linecap="round" stroke-linejoin="round"/>
<path d="M22.4194 29.9574L22.4248 29.9628" stroke="#009FA2" stroke-width="1.5" stroke-miterlimit="10" stroke-linecap="round" stroke-linejoin="round"/>
<path d="M41.3022 26.7658L41.3078 26.7742" stroke="#009FA2" stroke-width="1.5" stroke-miterlimit="10" stroke-linecap="round" stroke-linejoin="round"/>
<path d="M37.104 26.7658L37.1124 26.7742" stroke="#009FA2" stroke-width="1.5" stroke-miterlimit="10" stroke-linecap="round" stroke-linejoin="round"/>
<path d="M32.9023 26.7611L32.9077 26.7665" stroke="#009FA2" stroke-width="1.5" stroke-miterlimit="10" stroke-linecap="round" stroke-linejoin="round"/>
<path d="M28.707 26.7611L28.7124 26.7665" stroke="#009FA2" stroke-width="1.5" stroke-miterlimit="10" stroke-linecap="round" stroke-linejoin="round"/>
<path d="M24.5059 26.753L24.5114 26.7614" stroke="#009FA2" stroke-width="1.5" stroke-miterlimit="10" stroke-linecap="round" stroke-linejoin="round"/>
<path d="M35.008 23.5771L35.0024 23.5853" stroke="#009FA2" stroke-width="1.5" stroke-miterlimit="10" stroke-linecap="round" stroke-linejoin="round"/>
<path d="M30.8122 23.5771L30.8066 23.5853" stroke="#009FA2" stroke-width="1.5" stroke-miterlimit="10" stroke-linecap="round" stroke-linejoin="round"/>
<path d="M32.3169 42.89H19.0818C18.8197 42.89 18.6064 43.1033 18.6064 43.3628V45.051C18.6064 46.2381 19.5803 47.2119 20.7674 47.2119H45.0561C46.2432 47.2119 47.217 46.2381 47.217 45.051V43.3628C47.217 43.1033 47.0038 42.89 46.7417 42.89H35.4568" stroke="#009FA2" stroke-width="1.5" stroke-miterlimit="10" stroke-linecap="round" stroke-linejoin="round"/>
<path d="M17.4659 16.4371H4.08941C3.49075 16.4371 3 15.9463 3 15.3477V13.8188C3 13.2176 3.49075 12.7268 4.08941 12.7268H32.849C33.4477 12.7268 33.9384 13.2176 33.9384 13.8188V15.3477C33.9384 15.9463 33.4477 16.4371 32.849 16.4371H20.6365" stroke="#009FA2" stroke-width="1.5" stroke-miterlimit="10" stroke-linecap="round" stroke-linejoin="round"/>
<path d="M17.4839 12.7268V6.29788C17.4839 5.60935 17.9335 5.02599 18.6016 4.85125L25.521 3.04751C26.3176 2.842 27.1372 3.32251 27.3453 4.11905C27.5509 4.913 27.0704 5.73266 26.2764 5.94085L20.4722 7.45162V12.7268" stroke="#009FA2" stroke-width="1.5" stroke-miterlimit="10" stroke-linecap="round" stroke-linejoin="round"/>
<path d="M20.7676 47.2119H10.1379C9.2797 47.2119 8.69135 46.5002 8.57569 45.6496L4.5957 16.4371M32.3428 16.4371L31.7828 20.5508" stroke="#009FA2" stroke-width="1.5" stroke-miterlimit="10" stroke-linecap="round" stroke-linejoin="round"/>
<path d="M45.1881 33.2931C45.1881 36.9828 41.7682 37.5276 40.08 36.0116C39.8848 35.8394 39.8205 35.8189 39.6381 36.0089C39.0343 36.6436 38.2892 36.9597 37.5441 36.9597C36.7989 36.9597 36.0512 36.6436 35.4474 36.0089C35.2547 35.8342 35.1879 35.8162 35.0081 36.0064C34.4042 36.6411 33.6591 36.9571 32.9113 36.9571C32.1662 36.9571 31.4211 36.6411 30.8173 36.0064C30.6374 35.8162 30.5706 35.8342 30.3753 36.0089C29.7716 36.6436 29.0264 36.9597 28.2813 36.9597C27.5362 36.9597 26.791 36.6436 26.1872 36.0089C26.0047 35.8189 25.9379 35.8394 25.7452 36.0116C24.0546 37.5276 20.6372 36.9828 20.6372 33.2931" stroke="#009FA2" stroke-width="1.5" stroke-miterlimit="10" stroke-linecap="round" stroke-linejoin="round"/>
<path d="M21.4096 35.7801H21.0627C19.9476 35.7801 19.0381 36.6923 19.0381 37.805C19.0381 38.9201 19.9476 39.8323 21.0627 39.8323H44.7606C45.8731 39.8323 46.7852 38.9201 46.7852 37.805C46.7852 36.6923 45.8731 35.7801 44.7606 35.7801H44.4137" stroke="#009FA2" stroke-width="1.5" stroke-miterlimit="10" stroke-linecap="round" stroke-linejoin="round"/>
<path d="M44.815 42.89V39.8324M21.0093 39.8324V42.89" stroke="#009FA2" stroke-width="1.5" stroke-miterlimit="10" stroke-linecap="round" stroke-linejoin="round"/>
</svg>
