<svg width="50" height="50" viewBox="0 0 50 50" fill="none" xmlns="http://www.w3.org/2000/svg">
<g clip-path="url(#clip0_8925_1998)">
<path d="M42.8612 17.3018C41.7205 13.9893 39.3739 11.5469 36.4227 10.6007C31.3446 8.97371 27.1063 10.8028 25.1727 11.9219C23.2391 10.8028 18.9979 8.97371 13.9227 10.6007C10.9705 11.5469 8.62288 13.9913 7.48323 17.3057C6.01058 21.586 6.7469 26.5157 9.45296 30.4893C11.1014 32.9112 12.1776 35.6407 12.5643 38.3839C12.5871 38.546 12.6095 38.7117 12.6317 38.8809C13.0291 41.9678 13.6209 44.4571 14.3895 46.2803C15.3963 48.6719 16.7576 49.9688 18.4364 50.1368C18.5444 50.1478 18.6529 50.1533 18.7615 50.1534C20.4627 50.1534 21.8319 48.7706 22.8348 46.0362C23.5037 44.21 24.0301 41.7755 24.3172 39.1798C24.451 37.9688 24.7547 36.9581 25.1756 36.3155C25.5965 36.9581 25.9002 37.9688 26.034 39.1798C26.3201 41.7745 26.8465 44.2091 27.5164 46.0362C28.5174 48.7706 29.8934 50.1534 31.6053 50.1534C31.703 50.1534 31.8114 50.1485 31.9149 50.1378C33.5926 49.9698 34.9539 48.6729 35.9608 46.2813C36.7293 44.4581 37.3201 41.9688 37.7186 38.8819C37.7394 38.7191 37.7609 38.5596 37.783 38.4034C38.1737 35.6553 39.2479 32.9171 40.9032 30.4825C43.6014 26.5069 44.3358 21.5821 42.8612 17.3018ZM14.3992 12.088C19.2518 10.5323 23.2586 12.5538 24.7567 13.4942L25.1727 13.7559L25.5887 13.4942C27.0867 12.5528 31.0936 10.5323 35.9461 12.088C36.6168 12.3043 37.2539 12.6136 37.8387 13.0069L37.8201 13.0118C38.3162 13.5411 38.3387 14.921 37.6512 15.7413C37.0125 16.504 35.7088 16.4581 35.1522 16.4386C34.3709 16.4112 33.9442 16.211 33.5262 16.0157C33.0594 15.7979 32.5301 15.5518 31.7977 15.7481C30.5926 16.0704 30.2274 17.1837 29.9051 18.1651C29.6239 19.0216 29.3328 19.9073 28.5379 20.4981C27.1844 21.505 24.9666 21.2794 23.5682 20.5606C22.8241 20.1768 22.5516 19.7794 22.2069 19.2725C21.8162 18.7052 21.3797 18.0616 20.3201 17.504C19.5653 17.0995 18.7205 16.8922 17.8641 16.9014C17.491 16.9014 17.1444 16.9337 16.824 16.963C16.0164 17.0372 15.4325 17.0919 14.8104 16.6475C13.8699 15.9766 13.4022 14.63 13.3553 13.5928C13.3299 13.0245 13.4334 12.6495 13.5311 12.4825C13.5076 12.4757 13.4852 12.4678 13.4627 12.46C13.7661 12.3149 14.079 12.1906 14.3992 12.088ZM39.6063 29.6046C37.8182 32.2344 36.6512 35.2022 36.2303 38.1837C36.2075 38.3458 36.1851 38.5115 36.1629 38.6807C35.783 41.628 35.2283 43.9805 34.5155 45.6739C33.7479 47.4971 32.8182 48.4757 31.7537 48.5821C31.701 48.587 31.6492 48.5899 31.5994 48.5899C30.369 48.5899 29.4949 46.9083 28.9783 45.4981C28.3514 43.7862 27.8553 41.4815 27.5828 39.0079C27.4119 37.4591 26.9969 36.1846 26.3856 35.3233C26.2478 35.1296 26.0657 34.9717 25.8544 34.8627C25.6432 34.7537 25.4089 34.6969 25.1712 34.6969C24.9335 34.6969 24.6993 34.7537 24.488 34.8627C24.2768 34.9717 24.0946 35.1296 23.9569 35.3233C23.3446 36.1846 22.9305 37.4591 22.7596 39.0079C22.4871 41.4815 21.991 43.7862 21.3641 45.4981C20.8221 46.9776 19.8992 48.7139 18.5887 48.5821C17.5242 48.4757 16.5946 47.4971 15.827 45.6739C15.1141 43.9805 14.5574 41.628 14.1795 38.6807C14.1567 38.505 14.1336 38.3331 14.1102 38.1651C13.6893 35.1866 12.5252 32.2286 10.743 29.6104C8.31331 26.0411 7.64632 21.6309 8.95979 17.8135C9.56233 16.0626 10.5467 14.5987 11.7918 13.5469V13.6641C11.8504 14.9757 12.4373 16.878 13.9002 17.921C14.9949 18.7022 16.0418 18.6046 16.9657 18.5206C17.8084 18.4425 18.6043 18.3692 19.5887 18.8878C20.3055 19.2657 20.5741 19.6583 20.9139 20.1573C21.3045 20.7344 21.7547 21.3878 22.8504 21.9522C23.8861 22.4693 25.0278 22.7384 26.1854 22.7384C27.3573 22.7384 28.536 22.4454 29.4686 21.754C30.66 20.8673 31.0633 19.6407 31.3865 18.6553C31.6795 17.7569 31.8475 17.3536 32.199 17.2598C32.367 17.2149 32.4676 17.2501 32.8631 17.4346C33.5555 17.7873 34.3178 17.9811 35.0946 18.002C35.8114 18.0274 37.7166 18.0928 38.8455 16.7462C39.3153 16.1679 39.6124 15.469 39.703 14.7296C40.4367 15.6517 41.0047 16.6942 41.3817 17.8106C42.6981 21.6251 42.033 26.0333 39.6063 29.6046Z" fill="#009FA2"/>
<path d="M25.8756 4.94829V2.53339C25.8756 2.05476 25.4876 1.66675 25.009 1.66675C24.5303 1.66675 24.1423 2.05476 24.1423 2.53339V4.94829C24.1423 5.42693 24.5303 5.81494 25.009 5.81494C25.4876 5.81494 25.8756 5.42693 25.8756 4.94829Z" fill="#009FA2"/>
<path d="M21.2645 5.6218L19.171 4.22403C18.7864 3.96723 18.2671 4.06433 18.0013 4.44275C17.7264 4.83407 17.8275 5.37496 18.2252 5.64051L20.3187 7.03828C20.7033 7.29508 21.2226 7.19798 21.4884 6.81956C21.7633 6.42824 21.6622 5.88735 21.2645 5.6218Z" fill="#009FA2"/>
<path d="M30.7884 4.13859L28.7612 5.62082C28.3746 5.90353 28.2966 6.44921 28.5887 6.82885C28.8709 7.19561 29.3941 7.27033 29.7676 6.99721L31.7948 5.51498C32.1815 5.23226 32.2594 4.68659 31.9673 4.30695C31.6852 3.94019 31.162 3.86547 30.7884 4.13859Z" fill="#009FA2"/>
</g>
<defs>
<clipPath id="clip0_8925_1998">
<rect width="50" height="50" fill="white"/>
</clipPath>
</defs>
</svg>
