<svg width="50" height="50" viewBox="0 0 50 50" fill="none" xmlns="http://www.w3.org/2000/svg">
<path d="M32.0366 17.6608H43.0639" stroke="#009FA2" stroke-width="1.5" stroke-miterlimit="10" stroke-linecap="round" stroke-linejoin="round"/>
<path d="M6.6665 17.6608H29.5702" stroke="#009FA2" stroke-width="1.5" stroke-miterlimit="10" stroke-linecap="round" stroke-linejoin="round"/>
<path d="M34.5641 43.3334H8.55282C7.51097 43.3334 6.6665 42.4888 6.6665 41.4471V25.8165" stroke="#009FA2" stroke-width="1.5" stroke-miterlimit="10" stroke-linecap="round" stroke-linejoin="round"/>
<path d="M11.8617 9.5267H8.55282C7.51105 9.5267 6.6665 10.3712 6.6665 11.413V23.3501" stroke="#009FA2" stroke-width="1.5" stroke-miterlimit="10" stroke-linecap="round" stroke-linejoin="round"/>
<path d="M23.0748 9.52673H15.4419" stroke="#009FA2" stroke-width="1.5" stroke-miterlimit="10" stroke-linecap="round" stroke-linejoin="round"/>
<path d="M24.8654 13.2202C23.8767 13.2202 23.0752 12.4188 23.0752 11.43V7.62351C23.0752 6.63485 23.8767 5.83339 24.8654 5.83339C25.8541 5.83339 26.6556 6.63485 26.6556 7.62351V11.43C26.6556 12.4188 25.8541 13.2202 24.8654 13.2202Z" stroke="#009FA2" stroke-width="1.5" stroke-miterlimit="10" stroke-linecap="round" stroke-linejoin="round"/>
<path d="M13.6521 13.2202C12.6634 13.2202 11.8618 12.4188 11.8618 11.43V7.62351C11.8618 6.63485 12.6634 5.83339 13.6521 5.83339C14.6408 5.83339 15.4423 6.63485 15.4423 7.62351V11.43C15.4423 12.4188 14.6408 13.2202 13.6521 13.2202Z" stroke="#009FA2" stroke-width="1.5" stroke-miterlimit="10" stroke-linecap="round" stroke-linejoin="round"/>
<path d="M36.0788 13.2202C35.09 13.2202 34.2886 12.4188 34.2886 11.43V7.62351C34.2886 6.63485 35.09 5.83339 36.0788 5.83339C37.0675 5.83339 37.869 6.63485 37.869 7.62351V11.43C37.869 12.4188 37.0675 13.2202 36.0788 13.2202Z" stroke="#009FA2" stroke-width="1.5" stroke-miterlimit="10" stroke-linecap="round" stroke-linejoin="round"/>
<path d="M39.0113 28.8181H32.8921C32.7867 28.8181 32.6856 28.7762 32.611 28.7016C32.5365 28.6271 32.4946 28.526 32.4946 28.4206V22.3015C32.4946 22.1961 32.5365 22.0949 32.611 22.0204C32.6856 21.9458 32.7867 21.9039 32.8921 21.9039H39.0113C39.1167 21.9039 39.2178 21.9458 39.2924 22.0204C39.3669 22.0949 39.4088 22.196 39.4088 22.3015V28.4206C39.4088 28.526 39.3669 28.6271 39.2924 28.7017C39.2178 28.7762 39.1167 28.8181 39.0113 28.8181Z" stroke="#009FA2" stroke-width="1.5" stroke-miterlimit="10" stroke-linecap="round" stroke-linejoin="round"/>
<path d="M27.9248 39.1888H21.8056C21.7534 39.1888 21.7017 39.1786 21.6535 39.1586C21.6053 39.1386 21.5615 39.1093 21.5245 39.0724C21.4876 39.0355 21.4584 38.9916 21.4384 38.9434C21.4184 38.8952 21.4082 38.8435 21.4082 38.7913V32.6722C21.4082 32.5668 21.4501 32.4657 21.5246 32.3911C21.5991 32.3166 21.7002 32.2747 21.8056 32.2747H27.9248C28.0303 32.2747 28.1313 32.3166 28.2059 32.3911C28.2804 32.4657 28.3223 32.5668 28.3223 32.6722V38.7913C28.3223 38.8435 28.3121 38.8952 28.2921 38.9434C28.2721 38.9917 28.2428 39.0355 28.2059 39.0724C28.169 39.1093 28.1252 39.1386 28.077 39.1586C28.0287 39.1786 27.977 39.1888 27.9248 39.1888Z" stroke="#009FA2" stroke-width="1.5" stroke-miterlimit="10" stroke-linecap="round" stroke-linejoin="round"/>
<path d="M16.8384 39.1888H10.7193C10.6671 39.1889 10.6154 39.1786 10.5671 39.1586C10.5189 39.1386 10.4751 39.1093 10.4381 39.0724C10.4012 39.0355 10.372 38.9917 10.352 38.9434C10.332 38.8952 10.3218 38.8435 10.3218 38.7913V32.6722C10.3218 32.5668 10.3637 32.4657 10.4382 32.3911C10.5127 32.3166 10.6138 32.2747 10.7193 32.2747H16.8384C16.9438 32.2747 17.045 32.3166 17.1195 32.3911C17.1941 32.4657 17.2359 32.5668 17.236 32.6722V38.7913C17.236 38.8967 17.1941 38.9978 17.1195 39.0724C17.045 39.147 16.9438 39.1888 16.8384 39.1888Z" stroke="#009FA2" stroke-width="1.5" stroke-miterlimit="10" stroke-linecap="round" stroke-linejoin="round"/>
<path d="M39.0113 39.1888H32.8921C32.8399 39.1888 32.7882 39.1786 32.74 39.1586C32.6918 39.1386 32.6479 39.1093 32.611 39.0724C32.5741 39.0355 32.5448 38.9917 32.5249 38.9434C32.5049 38.8952 32.4946 38.8435 32.4946 38.7913V32.6722C32.4946 32.5668 32.5365 32.4657 32.6111 32.3911C32.6856 32.3166 32.7867 32.2747 32.8921 32.2747H39.0113C39.1167 32.2747 39.2178 32.3166 39.2924 32.3911C39.3669 32.4657 39.4088 32.5668 39.4088 32.6722V38.7913C39.4088 38.8435 39.3986 38.8952 39.3786 38.9434C39.3586 38.9917 39.3293 39.0355 39.2924 39.0724C39.2555 39.1093 39.2116 39.1386 39.1634 39.1586C39.1152 39.1786 39.0635 39.1889 39.0113 39.1888Z" stroke="#009FA2" stroke-width="1.5" stroke-miterlimit="10" stroke-linecap="round" stroke-linejoin="round"/>
<path d="M27.9248 28.8181H21.8056C21.7534 28.8181 21.7017 28.8078 21.6535 28.7878C21.6053 28.7678 21.5615 28.7386 21.5246 28.7016C21.4877 28.6647 21.4584 28.6209 21.4384 28.5727C21.4185 28.5244 21.4082 28.4728 21.4082 28.4206V22.3015C21.4082 22.2493 21.4185 22.1976 21.4384 22.1494C21.4584 22.1011 21.4877 22.0573 21.5246 22.0204C21.5615 21.9835 21.6053 21.9542 21.6535 21.9342C21.7017 21.9142 21.7534 21.9039 21.8056 21.9039H27.9248C28.0303 21.9039 28.1314 21.9458 28.2059 22.0204C28.2804 22.0949 28.3223 22.1961 28.3223 22.3015V28.4206C28.3223 28.526 28.2804 28.6271 28.2059 28.7016C28.1314 28.7762 28.0303 28.8181 27.9248 28.8181Z" stroke="#009FA2" stroke-width="1.5" stroke-miterlimit="10" stroke-linecap="round" stroke-linejoin="round"/>
<path d="M16.8384 28.8181H10.7193C10.6671 28.8181 10.6154 28.8078 10.5671 28.7879C10.5189 28.7679 10.4751 28.7386 10.4382 28.7017C10.4013 28.6647 10.372 28.6209 10.352 28.5727C10.332 28.5245 10.3218 28.4728 10.3218 28.4206V22.3015C10.3218 22.2493 10.332 22.1976 10.352 22.1494C10.372 22.1011 10.4013 22.0573 10.4382 22.0204C10.4751 21.9835 10.5189 21.9542 10.5671 21.9342C10.6154 21.9142 10.6671 21.9039 10.7193 21.9039H16.8384C16.9438 21.9039 17.045 21.9458 17.1195 22.0204C17.1941 22.0949 17.2359 22.1961 17.236 22.3015V28.4206C17.2359 28.526 17.1941 28.6271 17.1195 28.7017C17.045 28.7762 16.9438 28.8181 16.8384 28.8181Z" stroke="#009FA2" stroke-width="1.5" stroke-miterlimit="10" stroke-linecap="round" stroke-linejoin="round"/>
<path d="M12.8921 25.3611L14.533 26.9733L18.3546 23.1257" stroke="#009FA2" stroke-width="1.5" stroke-miterlimit="10" stroke-linecap="round" stroke-linejoin="round"/>
<path d="M24.4878 25.3611L26.1288 26.9733L29.9503 23.1257" stroke="#009FA2" stroke-width="1.5" stroke-miterlimit="10" stroke-linecap="round" stroke-linejoin="round"/>
<path d="M34.2882 9.52673H26.6553" stroke="#009FA2" stroke-width="1.5" stroke-miterlimit="10" stroke-linecap="round" stroke-linejoin="round"/>
<path d="M37.0303 43.3334H41.1772C42.2191 43.3334 43.0636 42.4888 43.0636 41.4471V11.4131C43.0636 10.3714 42.2191 9.52676 41.1772 9.52676H37.8684" stroke="#009FA2" stroke-width="1.5" stroke-miterlimit="10" stroke-linecap="round" stroke-linejoin="round"/>
</svg>
