<svg width="30" height="30" viewBox="0 0 30 30" fill="none" xmlns="http://www.w3.org/2000/svg">
<g clip-path="url(#clip0_5809_3103)">
<path d="M23.2716 10.6035V17.3276L11.375 17.7156L23.2716 10.6035Z" fill="#008588"/>
<path d="M11.6379 3.87927C5.20862 3.87927 0 6.88959 0 10.6034C0 14.3172 5.20862 17.3275 11.6379 17.3275C18.0672 17.3275 23.2759 14.3172 23.2759 10.6034C23.2759 6.88959 18.0672 3.87927 11.6379 3.87927ZM11.6379 13.7068C9.64606 13.7632 7.67194 13.3185 5.89655 12.4138C7.67194 11.509 9.64606 11.0643 11.6379 11.1207C13.6298 11.0643 15.6039 11.509 17.3793 12.4138C15.6039 13.3185 13.6298 13.7632 11.6379 13.7068Z" fill="#80CFCF"/>
<path d="M19.1406 10.0861C19.1406 10.9758 18.4786 11.7879 17.382 12.4138C15.6066 11.509 13.6325 11.0644 11.6406 11.1206C9.64874 11.0644 7.67462 11.509 5.89924 12.4138C4.80269 11.7879 4.14062 10.9758 4.14062 10.0861C4.14062 8.08445 7.49749 6.46545 11.6406 6.46545C15.7837 6.46545 19.1406 8.08445 19.1406 10.0861Z" fill="#008588"/>
<path d="M26.1207 21.7242C26.1207 23.0018 25.4018 24.0673 24.5638 24.057C24.4338 24.0495 24.3063 24.0946 24.21 24.1822C24.1137 24.2698 24.0566 24.3924 24.0518 24.5225V26.1208H18.1034L17.0689 26.1156H11.3793C11.2086 26.1156 11.0327 26.1104 10.8621 26.1001C10.1694 26.0784 9.47856 26.0162 8.79313 25.9138C8.44137 25.8673 8.09481 25.8052 7.75863 25.7328C7.235 25.6304 6.71712 25.5009 6.20689 25.3449C5.85 25.2363 5.50345 25.1173 5.17241 24.9828C4.63871 24.7825 4.12013 24.5439 3.62069 24.269C3.26338 24.0741 2.91794 23.8583 2.58621 23.6225C0.972412 22.469 0 21.0001 0 19.3966V10.6035C0 14.3173 5.20862 17.3276 11.6379 17.3276H24.0518V18.9052C24.0564 19.0404 24.1147 19.1681 24.2137 19.2603C24.3126 19.3525 24.4442 19.4015 24.5793 19.3966C25.3552 19.4121 26.1207 20.2966 26.1207 21.7242Z" fill="#B6E5E5"/>
<path d="M21.2064 23.5345V26.1207H20.1719V23.5345C20.1719 23.2488 20.4034 23.0172 20.6891 23.0172C20.9747 23.0172 21.2064 23.2488 21.2064 23.5345Z" fill="#008588"/>
<path d="M18.1048 24.5689V26.1206L17.0703 26.1154V24.5689C17.0703 24.2832 17.3019 24.0516 17.5876 24.0516C17.8733 24.0516 18.1048 24.2832 18.1048 24.5689Z" fill="#008588"/>
<path d="M15.0033 23.5345V26.1155H13.9688V23.5345C13.9688 23.2488 14.2003 23.0172 14.486 23.0172C14.7717 23.0172 15.0033 23.2488 15.0033 23.5345Z" fill="#008588"/>
<path d="M11.8939 24.5689V26.1154H11.3766C11.2059 26.1154 11.0301 26.1103 10.8594 26.0999V24.5689C10.8594 24.2832 11.0909 24.0516 11.3766 24.0516C11.6623 24.0516 11.8939 24.2832 11.8939 24.5689Z" fill="#008588"/>
<path d="M8.79225 23.0172V25.9138C8.44056 25.8673 8.094 25.8052 7.75781 25.7328V23.0172C7.75781 22.7316 7.98938 22.5 8.27506 22.5C8.56069 22.5 8.79225 22.7316 8.79225 23.0172Z" fill="#008588"/>
<path d="M6.20636 23.5345V25.3448C5.84946 25.2362 5.50291 25.1172 5.17188 24.9828V23.5345C5.17188 23.2488 5.40345 23.0172 5.68912 23.0172C5.97478 23.0172 6.20636 23.2488 6.20636 23.5345Z" fill="#008588"/>
<path d="M3.62042 20.9483V24.269C3.26311 24.0741 2.91767 23.8582 2.58594 23.6224V20.9483C2.58594 20.6626 2.81751 20.431 3.10318 20.431C3.38884 20.431 3.62042 20.6626 3.62042 20.9483Z" fill="#008588"/>
<path d="M28.9693 17.3275H23.7969V18.9051C23.8016 19.0403 23.8599 19.168 23.9588 19.2601C24.0578 19.3523 24.1894 19.4014 24.3245 19.3965C25.1004 19.412 25.8659 20.2965 25.8659 21.7241C25.8659 23.0016 25.1469 24.0672 24.309 24.0568C24.179 24.0494 24.0515 24.0945 23.9552 24.1821C23.8589 24.2696 23.8018 24.3923 23.7969 24.5223V26.1206H28.9693C29.5399 26.119 30.0021 25.6568 30.0038 25.0861V18.362C30.0021 17.7914 29.5399 17.3292 28.9693 17.3275ZM28.4521 22.5C28.4521 22.7856 28.2205 23.0172 27.9348 23.0172C27.6492 23.0172 27.4176 22.7856 27.4176 22.5V20.9482C27.4176 20.6626 27.6492 20.431 27.9348 20.431C28.2205 20.431 28.4521 20.6626 28.4521 20.9482V22.5Z" fill="#009FA2"/>
</g>
<defs>
<clipPath id="clip0_5809_3103">
<rect width="30" height="30" fill="white"/>
</clipPath>
</defs>
</svg>
