<svg width="30" height="30" viewBox="0 0 30 30" fill="none" xmlns="http://www.w3.org/2000/svg">
<g clip-path="url(#clip0_5845_1918)">
<mask id="mask0_5845_1918" style="mask-type:luminance" maskUnits="userSpaceOnUse" x="0" y="0" width="30" height="30">
<path d="M30 0H0V30H30V0Z" fill="white"/>
</mask>
<g mask="url(#mask0_5845_1918)">
<path d="M13.0859 4.57811C12.8357 4.57811 12.6331 4.37532 12.6331 4.12538C12.6331 3.10365 12.2669 1.99403 11.9952 1.31197C11.1802 2.54655 11.2024 4.09654 11.2026 4.11439C11.2081 4.3641 11.0101 4.57147 10.7607 4.57719C10.5107 4.58406 10.3038 4.38607 10.2974 4.13637C10.2949 4.03657 10.2539 1.67382 11.792 0.132993C11.8945 0.0299959 12.0404 -0.0171538 12.1839 0.00573439C12.3271 0.0286226 12.4509 0.118802 12.5164 0.248578C12.558 0.330975 13.5384 2.29089 13.5384 4.12538C13.5384 4.37532 13.3358 4.57811 13.0859 4.57811Z" fill="#009FA2"/>
<path d="M17.0621 4.57811C16.8122 4.57811 16.6094 4.37532 16.6094 4.12538C16.6094 2.29089 17.5897 0.330978 17.6316 0.248581C17.6971 0.118804 17.8206 0.0286251 17.9642 0.00573689C18.1074 -0.0173802 18.2532 0.0302272 18.356 0.132995C19.8939 1.67382 19.8529 4.03657 19.8504 4.13637C19.8442 4.38631 19.6387 4.58269 19.3864 4.57765C19.1367 4.57147 18.9394 4.36411 18.9454 4.11439C18.9458 4.09082 18.9662 2.54426 18.1525 1.31196C17.8811 1.99403 17.5149 3.10342 17.5149 4.12538C17.5149 4.37532 17.3123 4.57811 17.0621 4.57811Z" fill="#009FA2"/>
<path d="M28.2771 24.4476C28.2771 24.4476 27.4023 25.1617 25.8608 26.02C25.5456 26.1958 25.2027 26.3776 24.834 26.5598H5.31785C3.14369 25.4835 1.875 24.4476 1.875 24.4476C6.89163 19.4323 10.8199 12.2486 10.8199 12.2486C10.8199 12.2486 10.8199 11.6178 10.8199 10.1372C10.8199 8.65719 9.77144 4.70831 9.77144 4.70831C10.1825 3.55108 11.1729 3.30548 12.1878 3.41168C13.6073 3.56091 15.076 4.40046 15.076 4.40046C15.076 4.40046 19.3941 1.93288 20.3811 4.70831C20.3811 4.70831 19.3321 8.65719 19.3321 10.1372V12.2486C19.3321 12.2486 23.2604 19.4323 28.2771 24.4476Z" fill="#B6E5E5"/>
<path d="M13.483 10.1374C13.1884 11.367 12.4213 13.9625 12.4213 13.9625L11.8206 15.157L10.6829 26.56H5.31785C3.14369 25.4838 1.875 24.4478 1.875 24.4478C6.89162 19.4326 10.8199 12.2488 10.8199 12.2488C10.8199 12.2488 10.8199 11.6181 10.8199 10.1374C10.8199 8.65745 9.77144 4.70855 9.77144 4.70855C10.1825 3.55132 11.1731 3.30573 12.1877 3.41193L12.1901 3.4133C10.0026 6.82414 13.9074 8.36814 13.483 10.1374Z" fill="#009FA2"/>
<path d="M19.3329 12.2488H10.8203V10.1374H19.3329" fill="#009FA2"/>
<path d="M13.4051 12.2488H10.8203V10.1374H13.4051" fill="#008588"/>
<path d="M25.8583 26.0201C25.5431 26.1959 25.2003 26.3777 24.8316 26.5598H6.16778C6.05723 26.4875 6 26.4463 6 26.4463C9.83656 21.5782 13.5793 18.1074 13.5793 18.1074L18.3287 15.1576C18.3287 15.1576 22.1261 21.2125 25.8583 26.0201Z" fill="#009FA2"/>
<path d="M11.825 15.1573C11.825 15.1573 8.82065 22.1288 4.98438 26.9969C4.98438 26.9969 9.18321 30.0001 15.0802 30.0001C20.9773 30.0001 25.1761 26.9969 25.1761 26.9969C21.3398 22.1288 18.3353 15.1573 18.3353 15.1573" fill="#B6E5E5"/>
</g>
</g>
<defs>
<clipPath id="clip0_5845_1918">
<rect width="30" height="30" fill="white"/>
</clipPath>
</defs>
</svg>
