<svg width="30" height="30" viewBox="0 0 30 30" fill="none" xmlns="http://www.w3.org/2000/svg">
<g clip-path="url(#clip0_5845_1900)">
<mask id="mask0_5845_1900" style="mask-type:luminance" maskUnits="userSpaceOnUse" x="0" y="0" width="30" height="30">
<path d="M30 0H0V30H30V0Z" fill="white"/>
</mask>
<g mask="url(#mask0_5845_1900)">
<path d="M23.8342 10.3935V18.1133C23.8342 18.4749 23.6181 18.8014 23.2848 18.9421C20.8878 19.9567 18.2276 20.8791 15.3036 21.7091C15.2234 21.7314 15.1401 21.7429 15.0574 21.7429C14.9747 21.7429 14.8914 21.7314 14.8111 21.7091C11.8871 20.8791 9.22694 19.9567 6.82994 18.9421C6.49731 18.8014 6.28125 18.4749 6.28125 18.1133V10.667L15.0574 10.5306L23.8342 10.3935Z" fill="#B6E5E5"/>
<path d="M15.0574 10.5305V21.7429C14.9747 21.7429 14.8914 21.7314 14.8111 21.7091C11.8871 20.8791 9.22694 19.9568 6.82987 18.9421C6.49731 18.8015 6.28125 18.4748 6.28125 18.1133V10.6669L15.0574 10.5305Z" fill="#009FA2"/>
<path d="M23.8341 10.6953V13.9483C21.3128 14.8266 18.6695 15.662 15.9049 16.4545C15.3115 16.6248 14.6813 16.6248 14.0879 16.4545C11.368 15.6746 8.76575 14.8538 6.28125 13.9911V10.9688L23.8341 10.6953Z" fill="#009FA2"/>
<path d="M29.1472 8.25797C25.096 6.63341 20.6815 5.13612 15.9035 3.766C15.3102 3.5959 14.6802 3.5959 14.0869 3.766C9.30899 5.13612 4.89445 6.63341 0.843355 8.25797C-0.287636 8.71147 -0.146248 10.1703 0.984742 10.6238C5.03584 12.2483 9.30899 13.5815 14.087 14.9516C14.6803 15.1217 15.3104 15.4273 15.9036 15.2571C20.6816 13.887 25.0961 12.3897 29.1473 10.7652C30.2782 10.3117 30.2782 8.71153 29.1472 8.25797Z" fill="#B6E5E5"/>
<path d="M16.2289 15.1432C16.2422 15.1468 16.2549 15.1504 16.2682 15.154C16.1487 15.1884 16.0286 15.2228 15.9084 15.2572C15.3151 15.4274 14.6849 15.4274 14.0916 15.2572C9.31381 13.887 4.89891 12.39 0.847932 10.7656C-0.282644 10.3117 -0.282644 8.71148 0.847932 8.25817C0.942682 8.22011 1.03749 8.18211 1.13288 8.14404C0.534044 8.79236 0.700044 9.93986 1.62964 10.3123C5.68056 11.9373 11.4512 13.7729 16.2289 15.1432Z" fill="#009FA2"/>
<path d="M22.2656 22.2891C22.0155 22.2891 21.8129 22.0864 21.8129 21.8363V13.2583L14.805 9.92043C14.5793 9.81287 14.4835 9.54275 14.591 9.317C14.6986 9.09125 14.9688 8.99537 15.1945 9.103L22.4603 12.5638C22.618 12.6389 22.7183 12.7979 22.7183 12.9725V21.8362C22.7183 22.0863 22.5156 22.2891 22.2656 22.2891Z" fill="#008588"/>
<path d="M22.2644 21.5345C21.3547 21.5345 20.6172 22.272 20.6172 23.1817V26.3613H23.9116V23.1817C23.9117 22.272 23.1742 21.5345 22.2644 21.5345Z" fill="#008588"/>
<path d="M22.8016 21.6253C22.1559 21.8475 21.6921 22.461 21.6921 23.1817V26.3613H20.6172V23.1817C20.6172 22.2726 21.3548 21.5351 22.2638 21.5351C22.4522 21.5352 22.6334 21.5665 22.8016 21.6253Z" fill="#008588"/>
</g>
</g>
<defs>
<clipPath id="clip0_5845_1900">
<rect width="30" height="30" fill="white"/>
</clipPath>
</defs>
</svg>
