<svg width="30" height="30" viewBox="0 0 30 30" fill="none" xmlns="http://www.w3.org/2000/svg">
<g clip-path="url(#clip0_5809_3070)">
<mask id="mask0_5809_3070" style="mask-type:luminance" maskUnits="userSpaceOnUse" x="0" y="0" width="30" height="30">
<path d="M30 0H0V30H30V0Z" fill="white"/>
</mask>
<g mask="url(#mask0_5809_3070)">
<path d="M26.4223 1.64911C25.1316 2.26641 22.3247 3.38234 18.898 3.38234C13.5691 3.38234 11.7928 1.25 4.6875 1.25V17.2426C11.7927 17.2426 13.569 19.375 18.898 19.375C22.4903 19.375 25.4016 18.1486 26.5987 17.5559C26.9614 17.3763 27.1875 17.0071 27.1875 16.6038V2.13029C27.1876 1.7371 26.7784 1.47881 26.4223 1.64911Z" fill="#B6E5E5"/>
<path d="M16.5625 3.23421C15.2246 3.05959 14.0816 2.75223 12.8863 2.4308C10.7725 1.86238 8.49525 1.25 4.6875 1.25V17.2426C8.49519 17.2426 10.7724 17.8551 12.8862 18.4234C14.0816 18.7449 15.2246 19.0522 16.5625 19.2269V3.23421Z" fill="#009FA2"/>
<path d="M4.21753 0.0141703C3.75658 0.0969043 3.4375 0.57456 3.4375 1.08983V29.4827C3.4375 29.7684 3.6474 30 3.90626 30H4.84374C5.1026 30 5.3125 29.7684 5.3125 29.4827V1.03446C5.31244 0.406162 4.80487 -0.0912982 4.21753 0.0141703Z" fill="#008588"/>
</g>
</g>
<defs>
<clipPath id="clip0_5809_3070">
<rect width="30" height="30" fill="white"/>
</clipPath>
</defs>
</svg>
