<svg width="30" height="30" viewBox="0 0 30 30" fill="none" xmlns="http://www.w3.org/2000/svg">
<path d="M19.9698 16.4382C19.9698 16.4382 20.2276 15.6516 20.5284 14.378C20.5284 14.378 22.6768 20.2628 22.9143 26.4677C23.9234 25.6268 24.8079 24.6469 25.5414 23.5572C25.4979 21.4032 25.1405 19.267 24.4805 17.216C24.1005 16.0209 23.8807 14.7807 23.8269 13.5278C23.763 12.1514 23.6739 10.3249 23.5793 8.68949C23.4469 6.40786 21.4154 6.11781 20.7198 6.0856C20.3366 6.06852 19.9576 5.99884 19.5933 5.87852C18.9038 5.64964 18.0031 5.17819 17.6058 4.22852C17.2629 3.40881 17.1658 2.07504 17.1547 0.943954C15.7278 0.684779 14.2659 0.684779 12.8391 0.943954C12.828 2.07504 12.7309 3.40881 12.3879 4.22852C11.9909 5.17828 11.09 5.64972 10.4004 5.87852C10.0362 5.99884 9.65719 6.06852 9.27394 6.0856C8.57838 6.11781 6.54644 6.40786 6.41451 8.68949C6.31994 10.325 6.23081 12.1512 6.16692 13.5278C6.11309 14.7807 5.8933 16.0209 5.51328 17.216C4.85351 19.267 4.49636 21.4032 4.45312 23.5572C5.18674 24.6469 6.07136 25.6267 7.08051 26.4676C7.31807 20.2627 9.46638 14.3779 9.46638 14.3779C9.76719 15.6515 10.0251 16.4382 10.0251 16.4382C10.2299 16.9977 10.3761 17.8345 10.4731 18.5572C10.5906 19.4328 10.5878 20.3781 10.1554 21.1369C8.42538 24.1697 8.57457 26.3604 8.42538 27.4477C10.3859 28.7079 12.6674 29.3779 14.9979 29.3779C17.3285 29.3779 19.61 28.7079 21.5705 27.4477C21.4213 26.3605 21.5705 23.8352 19.8405 21.1369C19.3689 20.4015 19.4049 19.4328 19.5228 18.5572C19.6188 17.8345 19.7649 16.9977 19.9698 16.4382Z" fill="#B6E5E5"/>
<path d="M9.46985 14.3778C9.1821 13.2899 8.97991 12.2613 8.85041 11.5107C8.84735 11.4781 8.83141 11.448 8.80616 11.4272C8.78091 11.4063 8.74841 11.3963 8.71578 11.3993C8.68316 11.4025 8.6531 11.4184 8.63222 11.4437C8.61128 11.4689 8.60135 11.5014 8.60441 11.534C8.58597 12.61 8.64797 14.2172 9.06322 15.6083C9.30541 14.8278 9.46941 14.3781 9.46985 14.3778Z" fill="#009FA2"/>
<path d="M11.8962 14.664C12.9325 13.5643 13.4845 12.1317 13.7536 10.5056C13.7549 10.4902 13.7593 10.4752 13.7664 10.4614C13.7735 10.4477 13.7833 10.4354 13.7952 10.4255C13.807 10.4155 13.8207 10.408 13.8354 10.4033C13.8502 10.3986 13.8657 10.3968 13.8812 10.3982C13.8966 10.3995 13.9116 10.4039 13.9253 10.411C13.9391 10.4182 13.9513 10.4279 13.9613 10.4398C13.9712 10.4516 13.9788 10.4653 13.9835 10.48C13.9882 10.4948 13.9898 10.5103 13.9885 10.5258C14.0083 11.4562 13.8605 12.3825 13.552 13.2605C13.551 13.2632 13.55 13.2656 13.5488 13.2683C13.5168 13.3437 13.0283 14.4595 12.0177 14.8788C11.8982 14.9284 11.8047 14.7612 11.8962 14.664Z" fill="#009FA2"/>
<path d="M21.1454 11.5412C21.0158 12.2889 20.8152 13.3046 20.5312 14.3781L20.5322 14.3906C20.5568 14.4587 20.6876 14.8255 20.8769 15.4255C21.204 14.165 21.3769 12.8694 21.3916 11.5672C21.3951 11.5346 21.3854 11.5019 21.3648 11.4764C21.3442 11.4509 21.3143 11.4345 21.2816 11.4311C21.2489 11.4277 21.2163 11.4373 21.1908 11.4579C21.1652 11.4785 21.1489 11.5085 21.1454 11.5412Z" fill="#009FA2"/>
<path d="M15.2406 12.5118C15.2806 13.0726 15.3011 13.6334 15.3152 14.1943C15.3293 14.7553 15.3344 15.316 15.3352 15.8768C15.3359 16.1572 15.3314 16.4376 15.3297 16.7181C15.3239 16.9984 15.3203 17.2789 15.3111 17.5593C15.2948 18.1201 15.2704 18.6809 15.2247 19.2418C15.2236 19.2727 15.2164 19.3031 15.2034 19.3311C15.1904 19.3592 15.172 19.3844 15.1492 19.4052C15.1264 19.4261 15.0996 19.4421 15.0705 19.4526C15.0414 19.4629 15.0105 19.4675 14.9796 19.4658C14.9247 19.4583 14.8741 19.4318 14.8366 19.3909C14.7992 19.35 14.7772 19.2973 14.7746 19.2418C14.7289 18.6809 14.7045 18.1201 14.6883 17.5593C14.6794 17.2789 14.6755 16.9984 14.6697 16.7181C14.668 16.4376 14.6635 16.1572 14.6641 15.8768C14.6649 15.316 14.6689 14.7551 14.6841 14.1943C14.6993 13.6335 14.7187 13.0726 14.7588 12.5118C14.7596 12.4787 14.7671 12.4461 14.7806 12.416C14.7942 12.3858 14.8136 12.3586 14.8378 12.3361C14.862 12.3135 14.8904 12.2959 14.9214 12.2844C14.9524 12.2729 14.9854 12.2678 15.0184 12.2691C15.0782 12.2766 15.1335 12.3051 15.1742 12.3496C15.2149 12.3941 15.2384 12.4516 15.2406 12.5118Z" fill="#009FA2"/>
<path d="M18.1097 14.6641C17.0734 13.5644 16.5214 12.1317 16.2523 10.5056C16.2496 10.4745 16.2347 10.4456 16.2108 10.4255C16.1869 10.4054 16.1559 10.3956 16.1248 10.3983C16.0936 10.401 16.0648 10.4159 16.0446 10.4398C16.0245 10.4637 16.0147 10.4947 16.0174 10.5258C15.9976 11.4562 16.1454 12.3826 16.4539 13.2605C16.4549 13.2633 16.4559 13.2656 16.4571 13.2684C16.4891 13.3437 16.9776 14.4595 17.9883 14.8788C18.1077 14.9285 18.2012 14.7612 18.1097 14.6641Z" fill="#009FA2"/>
<path d="M15.241 21.6246C15.2929 21.993 15.3159 22.3615 15.3336 22.7299C15.3473 23.0983 15.3549 23.4667 15.3499 23.8352C15.3486 24.0193 15.3471 24.2036 15.3411 24.3878C15.3374 24.5721 15.3308 24.7563 15.3221 24.9404C15.3044 25.3089 15.2826 25.6772 15.2408 26.0457C15.2386 26.0788 15.2298 26.1111 15.2149 26.1407C15.2001 26.1704 15.1794 26.1967 15.1542 26.2182C15.1289 26.2397 15.0996 26.2559 15.068 26.2659C15.0364 26.2759 15.0031 26.2795 14.9701 26.2764C14.9144 26.2667 14.8634 26.2389 14.8251 26.1972C14.7869 26.1554 14.7637 26.1021 14.7591 26.0457C14.7173 25.6772 14.695 25.3089 14.6778 24.9404C14.6689 24.7563 14.6624 24.5721 14.6588 24.3878C14.6529 24.2036 14.6514 24.0193 14.65 23.8352C14.6449 23.4667 14.6526 23.0983 14.6663 22.7299C14.6839 22.3615 14.707 21.993 14.7589 21.6246C14.7619 21.5914 14.7717 21.5593 14.7874 21.5301C14.8032 21.5008 14.8247 21.475 14.8506 21.4543C14.8766 21.4334 14.9064 21.4181 14.9384 21.4091C14.9704 21.4001 15.0039 21.3976 15.0368 21.4018C15.0901 21.4126 15.1385 21.4399 15.1752 21.4799C15.2119 21.5199 15.2349 21.5706 15.241 21.6246Z" fill="#009FA2"/>
<path d="M17.6836 0.750018C17.6836 0.750018 18.1298 5.66587 10.9043 5.9844C10.8456 5.98686 10.7875 5.97099 10.7383 5.93899C10.689 5.90699 10.6509 5.86044 10.6293 5.80582C10.6076 5.75119 10.6035 5.69119 10.6175 5.63413C10.6315 5.57707 10.663 5.52577 10.7074 5.48737C11.5201 4.79137 12.6618 3.32807 12.3289 0.750018C12.3289 0.750018 15.2713 0.462547 17.6836 0.750018Z" fill="#009FA2"/>
</svg>
