<svg width="30" height="30" viewBox="0 0 30 30" fill="none" xmlns="http://www.w3.org/2000/svg">
<path d="M23.5684 13.4043C23.8198 9.43934 23.01 6.9264 23.01 6.9264C23.01 6.9264 21.2229 1.84467 15.0247 1.84467C8.82644 1.84467 7.45744 5.97707 7.45744 5.97707C7.45744 5.97707 4.41406 8.01534 4.41406 11.1147C4.41406 14.214 8.01594 14.94 8.01594 14.94C8.01594 14.94 10.6964 21.0269 9.30038 23.6795C8.65944 24.8971 8.62526 25.8287 8.74357 26.4467C8.77876 26.6318 8.86132 26.8045 8.98332 26.9481C9.10532 27.0916 9.26251 27.201 9.43951 27.2655C10.5658 27.6726 11.737 27.9426 12.9279 28.0696L21.2879 26.5542C22.7988 25.7909 24.17 24.7782 25.3439 23.5588C25.4825 23.4142 25.5668 23.226 25.5826 23.0263C25.5983 22.8267 25.5446 22.6277 25.4304 22.4632C23.3018 19.3651 23.5684 13.4043 23.5684 13.4043Z" fill="#008588"/>
<path d="M19.7727 24.6847L19.5773 18.1789L13.7416 22.0042C13.7416 22.0042 13.8253 24.8243 13.7696 26.6113C13.7447 27.4066 13.3549 27.8363 12.9297 28.069C13.4645 28.1263 14.0021 28.155 14.5399 28.1552C16.8842 28.1585 19.1964 27.6098 21.2893 26.5536C19.8021 26.2277 19.7727 24.6847 19.7727 24.6847Z" fill="#B6E5E5"/>
<path d="M19.6734 21.3595L19.5779 18.1789L13.7422 22.0042C13.7422 22.0042 13.8001 23.9542 13.7874 25.6391C16.702 24.9617 18.7299 22.6597 19.6734 21.3595Z" fill="#009FA2"/>
<path d="M8.08057 8.69171C8.08057 8.69171 8.47657 14.632 17.8363 15.4676C18.0049 15.4831 18.1739 15.444 18.3186 15.356C18.4632 15.268 18.5756 15.1357 18.6393 14.9788C18.747 14.7036 18.9085 14.4527 19.1143 14.2406C19.3201 14.0285 19.566 13.8596 19.8378 13.7436C20.1053 13.6231 20.405 13.5945 20.6904 13.662C20.9758 13.7296 21.2309 13.8897 21.4158 14.1173C21.7252 14.5078 22.0074 15.1408 22.0074 16.1528C22.0074 16.1528 22.1494 18.1166 20.222 18.6289C19.8894 18.7195 19.6024 18.9308 19.4173 19.2216C18.6938 20.3438 16.6276 23.0364 13.0153 23.898C12.8694 23.9323 12.7174 23.931 12.5721 23.8941C11.7361 23.6855 8.8812 22.7559 7.70514 19.5958C7.50526 19.0476 7.37845 18.4755 7.32801 17.8941C7.20889 16.6191 6.97851 13.5641 7.2057 10.9288C7.24739 10.4153 7.37926 9.91309 7.59545 9.44534C7.7187 9.1714 7.8822 8.91734 8.08057 8.69171Z" fill="#B6E5E5"/>
<path d="M9.60067 16.2569C9.66042 16.1849 9.6891 16.092 9.68042 15.9988C9.67173 15.9056 9.62642 15.8197 9.55435 15.7599C9.21004 15.4835 8.77298 15.3492 8.33285 15.3847C8.24035 15.3962 8.15617 15.4438 8.0986 15.5171C8.0411 15.5905 8.01498 15.6836 8.02585 15.7762C8.03673 15.8687 8.08379 15.9532 8.15679 16.0112C8.22973 16.0692 8.32267 16.096 8.41535 16.0857C8.66354 16.0722 8.90823 16.1495 9.10354 16.3033C9.13923 16.3329 9.18042 16.3552 9.22467 16.3689C9.26898 16.3825 9.31554 16.3874 9.36167 16.383C9.40785 16.3787 9.45273 16.3654 9.49367 16.3437C9.53467 16.322 9.57104 16.2925 9.60067 16.2569Z" fill="#009FA2"/>
<path d="M11.1811 16.3845C11.2633 16.3846 11.3429 16.3559 11.4061 16.3033C11.6014 16.1495 11.8461 16.0721 12.0944 16.0856C12.1867 16.0953 12.2791 16.0682 12.3516 16.0103C12.424 15.9524 12.4707 15.8682 12.4817 15.776C12.4926 15.6839 12.4667 15.5911 12.4097 15.5179C12.3527 15.4446 12.2692 15.3968 12.1772 15.3847C11.7371 15.3492 11.3001 15.4835 10.9558 15.7599C10.8999 15.8063 10.8596 15.8688 10.8406 15.9389C10.8214 16.0089 10.8244 16.0832 10.8491 16.1515C10.8737 16.2198 10.9189 16.2788 10.9784 16.3205C11.0378 16.3622 11.1085 16.3846 11.1811 16.3845Z" fill="#009FA2"/>
<path d="M12.1326 20.5125H12.1275C11.2581 20.525 10.6478 20.5125 10.6417 20.5125C10.5481 20.5105 10.4576 20.5457 10.39 20.6105C10.3224 20.6753 10.2833 20.7643 10.2813 20.8579C10.2793 20.9515 10.3146 21.0421 10.3795 21.1097C10.4442 21.1773 10.5332 21.2163 10.6268 21.2183C10.631 21.2183 10.9078 21.2242 11.353 21.2242C11.5765 21.2242 11.8425 21.2227 12.1376 21.2184C12.2313 21.2177 12.3208 21.1799 12.3865 21.1133C12.4522 21.0466 12.4888 20.9565 12.4881 20.863C12.4874 20.7693 12.4496 20.6798 12.383 20.6141C12.3163 20.5484 12.2263 20.5118 12.1326 20.5125Z" fill="#009FA2"/>
<path d="M10.2943 18.9242C10.183 18.8186 10.084 18.7007 9.99941 18.5727C9.95947 18.513 9.93466 18.4445 9.9271 18.373C9.91954 18.3017 9.92947 18.2294 9.95604 18.1627C10.0612 17.9195 10.1898 17.6872 10.34 17.4691C10.394 17.3926 10.4154 17.2978 10.3995 17.2055C10.3835 17.1133 10.3316 17.0312 10.2552 16.9772C10.1787 16.9232 10.0838 16.9019 9.9916 16.9178C9.89935 16.9337 9.81722 16.9857 9.76329 17.0622C9.58147 17.3248 9.42666 17.6052 9.30129 17.899C9.23197 18.0718 9.20572 18.2589 9.22479 18.4442C9.24385 18.6294 9.30772 18.8073 9.41079 18.9623C9.52504 19.135 9.6586 19.2942 9.80891 19.4367C9.87716 19.4992 9.96729 19.5324 10.0598 19.5292C10.1524 19.5258 10.2399 19.4863 10.3036 19.4191C10.3673 19.3518 10.402 19.2623 10.4002 19.1697C10.3985 19.0771 10.3605 18.9889 10.2943 18.9242Z" fill="#009FA2"/>
<path d="M20.7814 15.9483C20.7736 15.9026 20.757 15.8589 20.7323 15.8196C20.7076 15.7804 20.6755 15.7464 20.6376 15.7196C20.5998 15.6928 20.5571 15.6736 20.512 15.6633C20.4668 15.653 20.42 15.6517 20.3743 15.6594C20.3126 15.6702 20.2518 15.6856 20.1925 15.7055C20.2656 15.5638 20.3675 15.4389 20.4918 15.339C20.5628 15.2798 20.6077 15.1952 20.617 15.1033C20.6262 15.0113 20.599 14.9194 20.5413 14.8473C20.4835 14.7752 20.3998 14.7286 20.308 14.7175C20.2163 14.7064 20.1238 14.7318 20.0506 14.7881C19.0731 15.5718 19.3095 16.8935 19.456 17.4255C19.4815 17.5151 19.5413 17.591 19.6225 17.6366C19.7037 17.6823 19.7996 17.6939 19.8895 17.6692C19.9793 17.6444 20.0556 17.5851 20.1018 17.5043C20.1481 17.4234 20.1605 17.3275 20.1364 17.2376C20.1251 17.1969 20.1131 17.1488 20.1011 17.097C20.0938 16.9964 20.072 16.4268 20.4926 16.3554C20.5848 16.3397 20.6671 16.288 20.7213 16.2116C20.7754 16.1353 20.797 16.0406 20.7814 15.9483Z" fill="#009FA2"/>
</svg>
