<svg width="30" height="30" viewBox="0 0 30 30" fill="none" xmlns="http://www.w3.org/2000/svg">
<g clip-path="url(#clip0_5809_3079)">
<mask id="mask0_5809_3079" style="mask-type:luminance" maskUnits="userSpaceOnUse" x="0" y="0" width="30" height="30">
<path d="M30 0H0V30H30V0Z" fill="white"/>
</mask>
<g mask="url(#mask0_5809_3079)">
<path d="M30 15C30 15.2106 29.9958 15.4194 29.9865 15.6276C29.9676 16.1002 29.9265 16.5667 29.8635 17.0265C29.7178 18.1083 29.4563 19.1541 29.0927 20.1502C28.7443 21.1035 28.3017 22.0108 27.7764 22.8624C26.8936 24.2945 25.7761 25.5668 24.4782 26.6259C24.0447 26.9804 23.5917 27.3104 23.1196 27.6141C22.3746 28.0947 21.5841 28.5111 20.7558 28.8551C20.4086 28.9996 20.0554 29.1313 19.696 29.2494C18.2192 29.7367 16.6402 30 15 30C12.1628 30 9.51056 29.2127 7.24831 27.8437C6.32206 27.2841 5.46117 26.6265 4.68 25.8851C4.34449 25.5674 4.02369 25.2337 3.71877 24.8859C2.79551 23.8341 2.01797 22.6513 1.41551 21.3698C0.507539 19.4363 0 17.2776 0 15C0 6.71575 6.71575 0 15 0C22.0414 0 27.949 4.85144 29.5635 11.3939C29.5824 11.4698 29.6008 11.5457 29.6186 11.6222C29.8678 12.7078 30 13.8386 30 15Z" fill="#B6E5E5"/>
<path d="M28.9935 4.6144C29.3393 7.02403 26.364 9.44447 22.3477 10.0208C20.949 10.2216 19.6083 10.1722 18.441 9.9209L18.4403 9.9204C16.255 9.44972 14.6745 8.2719 14.4492 6.70165C14.1034 4.29207 17.0793 1.87092 21.0955 1.2946C25.1116 0.718267 28.6477 2.20479 28.9935 4.6144Z" fill="#009FA2"/>
<path d="M21.7006 5.5423C19.506 5.85724 17.5337 5.2184 16.8432 4.07171C16.7813 4.3072 16.7644 4.54685 16.7988 4.78638C17.0222 6.34272 19.3059 7.3026 21.8997 6.93035C24.4936 6.5581 26.4152 4.99474 26.1919 3.43838C26.1576 3.19885 26.074 2.97361 25.9483 2.76501C25.6083 4.0597 23.8953 5.22736 21.7006 5.5423Z" fill="#008588"/>
<path d="M18.7873 5.37696L18.5737 6.62547C18.5737 6.62547 16.4624 8.43766 18.4403 9.92028C16.255 9.4496 14.6745 8.27172 14.4492 6.70153C14.1034 4.29191 17.0793 1.87076 21.0955 1.29443C21.0955 1.29443 17.2619 3.75953 18.7873 5.37696Z" fill="#008588"/>
<path d="M30.0032 15.0001C30.0032 15.2107 29.9989 15.4195 29.9897 15.6276C29.9707 16.1003 29.9297 16.5668 29.8667 17.0266C29.7209 18.1084 29.4595 19.1542 29.0959 20.1503C28.5051 20.1246 27.9393 20.0517 27.4097 19.9379C25.224 19.467 23.6432 18.289 23.4179 16.7187C23.0867 14.4099 25.8051 12.0901 29.5667 11.3939C29.5857 11.4699 29.6041 11.5457 29.6218 11.6223C29.8709 12.7079 30.0032 13.8387 30.0032 15.0001Z" fill="#009FA2"/>
<path d="M29.9856 15.6275C29.9667 16.1002 29.9256 16.5667 29.8626 17.0265C28.9969 17.0387 28.1979 16.9004 27.5379 16.6426C26.5552 16.2593 25.8836 15.6122 25.7679 14.8034C25.7329 14.564 25.7501 14.3246 25.8119 14.0889C26.167 14.6791 26.8619 15.1346 27.7515 15.3948C28.4091 15.5871 29.1732 15.6728 29.9856 15.6275Z" fill="#008588"/>
<path d="M27.7557 15.3943L27.542 16.6426C27.542 16.6426 25.431 18.4549 27.4092 19.9377C25.2234 19.4669 23.6432 18.2889 23.4179 16.7185C23.0867 14.4097 25.8051 12.0899 29.5667 11.3938C29.5857 11.4697 29.6041 11.5456 29.6218 11.6221C28.6606 12.3349 26.5593 14.125 27.7557 15.3943Z" fill="#008588"/>
<path d="M18.4972 23.0881C16.9437 24.9621 13.1522 24.3822 10.0287 21.7928C8.94084 20.8909 8.0774 19.8642 7.47984 18.8304L7.47978 18.8296C6.3614 16.894 6.17315 14.9319 7.18559 13.7106C8.73916 11.8366 12.5315 12.4164 15.655 15.0059C18.7786 17.5954 20.0508 21.214 18.4972 23.0881Z" fill="#009FA2"/>
<path d="M12.9164 18.3097C11.2095 16.8947 10.3588 15.0041 10.745 13.7225C10.529 13.8347 10.34 13.9832 10.1856 14.1695C9.18221 15.3799 10.0042 17.7168 12.0215 19.3892C14.0388 21.0617 16.4876 21.4361 17.4911 20.2257C17.6455 20.0393 17.7564 19.8262 17.8266 19.5931C16.6387 20.2102 14.6232 19.7247 12.9164 18.3097Z" fill="#008588"/>
<path d="M11.0797 16.0363L10.011 16.7163C10.011 16.7163 7.25053 16.3683 7.47978 18.8296C6.3614 16.894 6.17315 14.9319 7.18559 13.7106C8.73916 11.8366 12.5315 12.4164 15.655 15.0059C15.655 15.0059 11.2543 13.8198 11.0797 16.0363Z" fill="#008588"/>
<path d="M14.7849 11.3096C14.2378 13.6816 10.5895 14.8652 6.63591 13.9534C5.25897 13.6358 4.02656 13.1058 3.02859 12.4503L3.02813 12.4496C1.15986 11.2219 0.110979 9.55313 0.467522 8.00731C1.01461 5.63534 4.66366 4.45128 8.61722 5.36318C12.5708 6.27506 15.332 8.93756 14.7849 11.3096Z" fill="#009FA2"/>
<path d="M7.65577 9.54473C5.4954 9.04641 3.88653 7.73891 3.65637 6.42029C3.51364 6.61754 3.41145 6.83498 3.35714 7.07079C3.00375 8.60279 4.78724 10.3222 7.34058 10.911C9.89389 11.5 12.2503 10.7355 12.6037 9.20348C12.6581 8.96766 12.6614 8.72748 12.6196 8.48754C11.8351 9.57223 9.81608 10.043 7.65577 9.54473Z" fill="#008588"/>
<path d="M4.99125 8.3375L4.34145 9.42481C4.34145 9.42481 1.71838 10.3529 3.02806 12.4495C1.15992 11.2219 0.110977 9.55313 0.46752 8.00731C1.01461 5.63534 4.66365 4.45128 8.61722 5.36318C8.61722 5.36318 4.15231 6.27856 4.99125 8.3375Z" fill="#008588"/>
<path d="M27.7783 22.8625C26.8955 24.2945 25.7781 25.5668 24.4801 26.626C24.0466 26.9805 23.5936 27.3105 23.1215 27.6142C22.0642 28.2962 20.9156 28.8491 19.6978 29.2495C18.6417 28.3605 18.0564 27.2756 18.1703 26.165C18.4177 23.743 21.8915 22.1144 25.9275 22.527C26.5722 22.5931 27.1924 22.707 27.7783 22.8625Z" fill="#009FA2"/>
<path d="M24.4774 26.6259C24.0439 26.9804 23.5909 27.3104 23.1188 27.6141C21.7033 26.9835 20.8051 25.9488 20.9154 24.8762C20.9398 24.6355 21.0139 24.4072 21.1309 24.1935C21.4609 25.2704 22.7594 26.2187 24.4774 26.6259Z" fill="#008588"/>
<path d="M22.6997 25.9293L22.1903 27.0895C22.1903 27.0895 20.8685 27.7525 20.7577 28.8552C20.4105 28.9997 20.0572 29.1313 19.6978 29.2495C18.6417 28.3605 18.0564 27.2756 18.1703 26.165C18.4177 23.743 21.8915 22.1144 25.9275 22.527C25.9275 22.527 21.6112 23.9909 22.6997 25.9293Z" fill="#008588"/>
<path d="M7.24691 27.8436C6.32059 27.284 5.45973 26.6265 4.67856 25.8851C4.34304 25.5673 4.02224 25.2336 3.71732 24.8858C2.79406 23.834 2.01653 22.6511 1.41406 21.3698C4.84384 19.9236 8.27916 20.3271 9.29059 22.3781C10.0737 23.9662 9.18834 26.1048 7.24691 27.8436Z" fill="#009FA2"/>
<path d="M4.67998 25.8851C4.34447 25.5673 4.02367 25.2337 3.71875 24.8858C5.07917 23.9179 5.89099 22.6414 5.82794 21.5638C6.01223 21.723 6.16099 21.911 6.26819 22.1283C6.80875 23.2243 6.11816 24.7267 4.67998 25.8851Z" fill="#008588"/>
</g>
</g>
<defs>
<clipPath id="clip0_5809_3079">
<rect width="30" height="30" fill="white"/>
</clipPath>
</defs>
</svg>
