<svg width="30" height="30" viewBox="0 0 30 30" fill="none" xmlns="http://www.w3.org/2000/svg">
<g clip-path="url(#clip0_5845_1827)">
<mask id="mask0_5845_1827" style="mask-type:luminance" maskUnits="userSpaceOnUse" x="0" y="0" width="30" height="30">
<path d="M30 0H0V30H30V0Z" fill="white"/>
</mask>
<g mask="url(#mask0_5845_1827)">
<path d="M15 30C23.2843 30 30 23.2843 30 15C30 6.71575 23.2843 0 15 0C6.71575 0 0 6.71575 0 15C0 23.2843 6.71575 30 15 30Z" fill="#B6E5E5"/>
<path d="M15.1924 25.8516L10.0938 25.0084C10.0938 25.0084 10.9585 27.3316 15.1924 27.3316C19.4264 27.3316 20.2911 25.0084 20.2911 25.0084L15.1924 25.8516Z" fill="#008588"/>
<path d="M18.5101 24.4175C17.6508 24.0814 16.7074 24.4143 16.2414 24.6301C16.0063 24.7378 15.7565 24.8103 15.5003 24.845C15.3004 24.8728 15.0977 24.8728 14.8978 24.845C14.6416 24.8103 14.3918 24.7379 14.1567 24.6302C13.6907 24.4144 12.7473 24.0815 11.8881 24.4176C11.0813 24.7335 10.0263 24.6243 9.42276 24.5191C9.40238 24.5155 9.38144 24.5193 9.36363 24.5297C9.34575 24.5401 9.33219 24.5565 9.32532 24.576C9.31844 24.5955 9.31863 24.6168 9.326 24.6361C9.33332 24.6554 9.34726 24.6715 9.36532 24.6815C11.3712 25.7615 15.1991 25.8516 15.1991 25.8516C15.1991 25.8516 19.0271 25.7615 21.0329 24.6815C21.051 24.6715 21.0649 24.6554 21.0723 24.6361C21.0796 24.6168 21.0798 24.5955 21.0729 24.576C21.0661 24.5565 21.0525 24.5401 21.0346 24.5297C21.0168 24.5193 20.9958 24.5155 20.9755 24.5191C20.3715 24.6242 19.3168 24.7333 18.5101 24.4175Z" fill="#008588"/>
<path d="M17.8627 18.7649C17.8382 18.7433 17.8073 18.7305 17.7748 18.7283C17.7422 18.7262 17.7099 18.735 17.6829 18.7533C17.6559 18.7715 17.6357 18.7982 17.6255 18.8292C17.6153 18.8602 17.6157 18.8937 17.6266 18.9244C17.6594 19.0359 17.6654 19.1536 17.6442 19.2678C17.623 19.3822 17.5752 19.4898 17.5046 19.5821C17.1491 20.1837 16.5184 20.5842 16.0055 20.8274C15.7517 20.9474 15.4745 21.0097 15.1937 21.0097C14.913 21.0097 14.6357 20.9474 14.382 20.8274C13.8692 20.5842 13.2385 20.1833 12.883 19.5821C12.8124 19.4898 12.7645 19.3822 12.7433 19.2678C12.7221 19.1536 12.7281 19.0359 12.7609 18.9244C12.7718 18.8937 12.7722 18.8602 12.7621 18.8292C12.7518 18.7982 12.7316 18.7715 12.7046 18.7533C12.6776 18.735 12.6453 18.7262 12.6127 18.7283C12.5802 18.7305 12.5492 18.7433 12.5248 18.7649C12.2954 18.967 12.1319 19.3175 12.3587 19.9165C12.9223 20.9662 13.8672 21.7597 14.9987 22.1332C15.1254 22.1755 15.2624 22.1755 15.3891 22.1332C16.5206 21.7597 17.4654 20.9662 18.029 19.9165C18.256 19.3175 18.092 18.9671 17.8627 18.7649Z" fill="#009FA2"/>
<path d="M19.7699 12.6701L19.7711 12.6707C20.1039 12.8243 20.4551 12.9344 20.816 12.9984C21.1714 13.0594 21.5341 13.0642 21.891 13.0127C22.2433 12.9472 22.5868 12.841 22.9145 12.6962C23.0776 12.6209 23.2334 12.5308 23.3801 12.4271C23.4545 12.3774 23.5258 12.3236 23.5951 12.2683C23.6296 12.2408 23.8124 12.0778 23.8124 12.0778C23.8773 12.0237 23.9601 11.9961 24.0444 12.0004C24.1288 12.0048 24.2083 12.0408 24.2673 12.1013C24.3026 12.1374 24.4054 12.2911 24.4398 12.3253C24.4947 12.3858 24.5578 12.4383 24.6272 12.4813C24.793 12.5528 24.9721 12.588 25.1527 12.5847C25.2204 12.5872 25.2844 12.6162 25.3311 12.6654C25.3777 12.7145 25.4031 12.78 25.4021 12.8478C25.3994 12.9119 25.3738 12.9729 25.3298 13.0195C25.2858 13.0662 25.2263 13.0954 25.1625 13.1017C25.1019 13.1086 25.0416 13.1179 24.9798 13.1206C24.9139 13.1236 24.848 13.1224 24.7824 13.1169C24.6469 13.1068 24.5138 13.0768 24.3871 13.0278C24.2436 12.9757 24.1109 12.8979 23.9953 12.7984C23.9118 12.8601 23.8277 12.9199 23.7404 12.9748C23.6294 13.046 23.5149 13.1109 23.3981 13.1711C23.4191 13.1994 23.4424 13.2259 23.4676 13.2506C23.5149 13.3004 23.5683 13.3442 23.6264 13.3809C23.7616 13.4614 23.8605 13.5188 23.8605 13.5188C23.9084 13.5504 23.9444 13.5973 23.9626 13.6518C23.9808 13.7063 23.9802 13.7653 23.9609 13.8194C23.9364 13.8815 23.8895 13.9321 23.8295 13.9613C23.7695 13.9904 23.7008 13.9959 23.6368 13.9768C23.6098 13.9694 23.5916 13.9638 23.5691 13.9565C23.3986 13.8953 23.2364 13.8128 23.0864 13.7111C22.9981 13.6453 22.917 13.5701 22.8446 13.4871C22.8276 13.4679 22.8116 13.4476 22.796 13.4269C22.5793 13.4999 22.3569 13.5546 22.131 13.5903C22.1223 13.6525 22.1211 13.7155 22.1274 13.778C22.1431 13.8836 22.1806 13.9848 22.2378 14.0749C22.2661 14.1251 22.2751 14.1839 22.2631 14.2402C22.2511 14.2965 22.2189 14.3464 22.1726 14.3807C22.1273 14.4127 22.0723 14.4281 22.017 14.4244C21.9617 14.4208 21.9093 14.3981 21.8687 14.3604C21.7358 14.2358 21.6329 14.0828 21.5677 13.9128C21.5408 13.8226 21.5186 13.7312 21.5014 13.6387C21.2365 13.6376 20.9723 13.6109 20.7125 13.5593C20.3059 13.4753 19.9119 13.3392 19.5401 13.1544C19.4996 13.1341 19.4648 13.104 19.4389 13.0668C19.4131 13.0296 19.397 12.9865 19.3922 12.9415C19.3873 12.8964 19.3939 12.8509 19.4113 12.8091C19.4286 12.7672 19.4562 12.7304 19.4915 12.702C19.5301 12.6708 19.5768 12.6511 19.6261 12.6455C19.6754 12.6399 19.7253 12.6484 19.7699 12.6701Z" fill="#008588"/>
<path d="M16.775 13.6341L16.8006 13.3875C16.8202 13.302 16.8343 13.2152 16.8607 13.129C16.9151 12.9479 17.002 12.7782 17.1171 12.6282C17.2452 12.4713 17.408 12.3464 17.5927 12.2633C17.6852 12.2219 17.7818 12.1907 17.8811 12.1702C17.8988 12.1669 17.9453 12.1628 17.9977 12.1588C18.0853 12.1507 18.1737 12.1662 18.2533 12.2037C18.333 12.2411 18.4013 12.2992 18.451 12.3718C18.4833 12.4154 18.499 12.4691 18.4952 12.5232C18.4893 12.567 18.4749 12.6092 18.4528 12.6475C18.4306 12.6857 18.4012 12.7192 18.366 12.746C18.3309 12.7729 18.2909 12.7925 18.2482 12.8039C18.2055 12.8153 18.161 12.8181 18.1172 12.8122C18.1224 12.8122 18.1165 12.811 18.1112 12.8102C18.0101 12.8093 17.909 12.8154 17.8088 12.8284C17.7001 12.8583 17.5998 12.9129 17.5158 12.988C17.4263 13.076 17.3533 13.1793 17.3001 13.293C17.2712 13.353 17.251 13.4198 17.2247 13.4838L17.1665 13.7132C17.16 13.7388 17.1484 13.7628 17.1325 13.784C17.1167 13.8051 17.0968 13.8228 17.074 13.8362C17.0512 13.8496 17.026 13.8583 16.9998 13.8618C16.9736 13.8654 16.947 13.8637 16.9215 13.857C16.8746 13.8432 16.8341 13.8133 16.8073 13.7724C16.7805 13.7316 16.769 13.6825 16.775 13.6341Z" fill="#009FA2"/>
<path d="M13.6191 13.6341L13.5936 13.3875C13.5739 13.302 13.5598 13.2152 13.5334 13.129C13.479 12.9479 13.3921 12.7782 13.2769 12.6282C13.1489 12.4713 12.9861 12.3464 12.8014 12.2633C12.7089 12.2218 12.6122 12.1906 12.5129 12.1702C12.4953 12.1669 12.4488 12.1628 12.3964 12.1588C12.3088 12.1507 12.2205 12.1662 12.1408 12.2037C12.0611 12.2411 11.9928 12.2992 11.9431 12.3718C11.9108 12.4154 11.8952 12.4691 11.899 12.5232C11.9048 12.567 11.9192 12.6092 11.9414 12.6475C11.9635 12.6857 11.9929 12.7192 12.0281 12.746C12.0631 12.7728 12.1032 12.7925 12.1459 12.8039C12.1886 12.8153 12.2331 12.8181 12.2769 12.8122C12.2717 12.8122 12.2776 12.811 12.2829 12.8102C12.384 12.8093 12.4851 12.8154 12.5854 12.8284C12.6941 12.8583 12.7943 12.9129 12.8783 12.988C12.9678 13.076 13.0409 13.1793 13.0941 13.293C13.1229 13.353 13.1432 13.4198 13.1693 13.4838L13.2276 13.7132C13.2342 13.7388 13.2457 13.7628 13.2616 13.784C13.2775 13.8051 13.2974 13.8228 13.3202 13.8362C13.3429 13.8496 13.3682 13.8583 13.3943 13.8618C13.4205 13.8654 13.4471 13.8637 13.4727 13.857C13.5196 13.8432 13.56 13.8133 13.5869 13.7724C13.6137 13.7316 13.6251 13.6825 13.6191 13.6341Z" fill="#009FA2"/>
<path d="M10.6322 12.6702L10.6311 12.6708C10.2982 12.8243 9.94706 12.9344 9.58612 12.9984C9.23081 13.0595 8.86806 13.0643 8.51118 13.0128C8.15887 12.9473 7.81543 12.8411 7.48768 12.6963C7.32462 12.6209 7.16875 12.5309 7.02206 12.4272C6.94756 12.3774 6.87637 12.3236 6.80712 12.2684C6.77262 12.2409 6.58975 12.0779 6.58975 12.0779C6.52493 12.0238 6.44206 11.9962 6.35775 12.0006C6.27343 12.0049 6.19385 12.0409 6.13491 12.1014C6.09962 12.1376 5.99665 12.2911 5.96233 12.3254C5.90746 12.3859 5.84441 12.4384 5.775 12.4814C5.60916 12.5528 5.43001 12.5881 5.24948 12.5848C5.18176 12.5873 5.11771 12.6163 5.07108 12.6654C5.02446 12.7146 4.99895 12.7801 5.00003 12.8478C5.00265 12.9119 5.02834 12.9729 5.07235 13.0196C5.11637 13.0663 5.17576 13.0954 5.2396 13.1018C5.30012 13.1086 5.36048 13.1179 5.42241 13.1206C5.48819 13.1238 5.5541 13.1225 5.61971 13.1169C5.75516 13.1068 5.88839 13.0768 6.0151 13.0278C6.15853 12.9758 6.29131 12.8981 6.40687 12.7984C6.49025 12.8602 6.5745 12.92 6.66175 12.9749C6.77268 13.0461 6.88718 13.1109 7.00406 13.1712C6.983 13.1995 6.95981 13.226 6.93462 13.2506C6.88718 13.3004 6.83387 13.3443 6.77575 13.3811C6.6405 13.4615 6.54168 13.5189 6.54168 13.5189C6.49375 13.5505 6.45781 13.5973 6.43956 13.6518C6.42137 13.7063 6.422 13.7654 6.44125 13.8195C6.46575 13.8816 6.51262 13.9321 6.57262 13.9613C6.63262 13.9904 6.70137 13.996 6.76525 13.9769C6.79237 13.9695 6.81062 13.9638 6.83293 13.9566C7.0035 13.8954 7.16568 13.8129 7.31568 13.7111C7.40406 13.6453 7.48512 13.5703 7.55756 13.4872C7.5745 13.4681 7.59056 13.4476 7.60606 13.4269C7.82275 13.5 8.04525 13.5547 8.27118 13.5903C8.27993 13.6526 8.28112 13.7156 8.27468 13.7781C8.25912 13.8838 8.2215 13.9849 8.16425 14.075C8.136 14.1252 8.12706 14.1839 8.13906 14.2403C8.15112 14.2966 8.18331 14.3465 8.22962 14.3808C8.27487 14.4128 8.32981 14.4282 8.38512 14.4245C8.44043 14.4208 8.49281 14.3982 8.53343 14.3604C8.66631 14.2359 8.76925 14.0829 8.83437 13.9128C8.86143 13.8228 8.88356 13.7313 8.90075 13.6388C9.16562 13.6376 9.42975 13.611 9.68956 13.5594C10.0961 13.4754 10.4902 13.3393 10.8619 13.1544C10.9025 13.1343 10.9373 13.1041 10.9632 13.0669C10.9891 13.0297 11.0051 12.9866 11.01 12.9416C11.0148 12.8965 11.0082 12.8509 10.9909 12.8091C10.9735 12.7673 10.9459 12.7304 10.9106 12.7021C10.872 12.6708 10.8254 12.6513 10.7761 12.6456C10.7267 12.6399 10.6769 12.6485 10.6322 12.6702Z" fill="#008588"/>
</g>
</g>
<defs>
<clipPath id="clip0_5845_1827">
<rect width="30" height="30" fill="white"/>
</clipPath>
</defs>
</svg>
