<svg width="30" height="30" viewBox="0 0 30 30" fill="none" xmlns="http://www.w3.org/2000/svg">
<path d="M0 15C0 23.115 6.44481 29.7202 14.4946 29.9871L14.5282 28.4907C14.5422 27.8752 14.4822 27.2623 14.3989 26.6524C13.9583 23.4248 16.32 23.1812 18.7868 22.8554C21.4433 22.5041 26.9964 20.3839 23.6623 14.6581C20.3276 8.93325 17.5604 1.76069 17.5604 1.76069L16.9298 0.127759C16.2973 0.0465517 15.6543 0 15 0C6.71588 0 0 6.71588 0 15Z" fill="#B6E5E5"/>
<path d="M18.4537 21.527C18.1128 21.527 17.7782 21.4691 17.4885 21.3372C17.2289 21.2188 17.1141 20.912 17.2325 20.6519C17.351 20.3922 17.6566 20.2769 17.9178 20.3958C18.3384 20.5872 18.9771 20.4647 19.3718 20.2976C18.7273 20.1972 17.082 20.161 13.0516 20.9027C9.61614 21.5348 7.36252 21.1252 6.35496 19.6831C4.77527 17.4222 6.99421 13.6076 7.08939 13.4457C7.23421 13.2005 7.54921 13.1177 7.79752 13.2631C8.04371 13.4079 8.12546 13.7255 7.98064 13.9712C7.42714 14.912 6.20751 17.6674 7.20421 19.0908C7.94802 20.1548 9.90527 20.4305 12.865 19.8848C19.9232 18.586 20.4265 19.5052 20.6158 19.8502C20.7828 20.1538 20.7218 20.5081 20.4523 20.7988C20.0623 21.2177 19.2405 21.527 18.4537 21.527Z" fill="#009FA2"/>
</svg>
