<svg width="30" height="30" viewBox="0 0 30 30" fill="none" xmlns="http://www.w3.org/2000/svg">
<path d="M8.61418 28.5217L8.60412 28.523C8.57593 28.5266 8.54812 28.5303 8.5198 28.5334C6.41043 28.7771 4.44522 27.4026 3.97998 25.3201C3.96651 25.2592 3.95303 25.1983 3.93897 25.1373C2.85088 20.2676 1.76221 15.3973 0.673541 10.5276C0.645709 10.4036 0.618021 10.2797 0.590336 10.1558C0.562651 10.0318 0.534965 9.90794 0.507133 9.784C-0.0131792 7.45431 1.5337 5.15977 3.89092 4.78477C3.9378 4.77715 3.98467 4.77012 4.03155 4.76309C7.66374 4.19268 11.3293 3.90748 14.9949 3.90747C18.6604 3.90748 22.326 4.19268 25.9582 4.76309C26.0051 4.77012 26.0519 4.77715 26.0988 4.78477C28.4561 5.15977 30.0029 7.45431 29.4826 9.784C29.4548 9.90794 29.4271 10.0318 29.3994 10.1558C29.3717 10.2797 29.3441 10.4036 29.3162 10.5276C28.2276 15.3973 27.1389 20.2676 26.0508 25.1373C26.0367 25.1983 26.0232 25.2592 26.0097 25.3201C25.5446 27.4026 23.5793 28.7771 21.4699 28.5334C21.4416 28.5303 21.4138 28.5266 21.3856 28.523L21.3756 28.5217C19.2589 28.2284 17.1269 28.0818 14.9949 28.0818C12.8629 28.0818 10.7308 28.2284 8.61418 28.5217Z" fill="#B6E5E5"/>
<path d="M19.4007 5.60815H10.5937C9.46325 5.60815 8.54688 6.5245 8.54688 7.65494V10.062C8.54688 11.1924 9.46319 12.1088 10.5937 12.1088H19.4007C20.5311 12.1088 21.4475 11.1924 21.4475 10.062V7.65494C21.4474 6.5245 20.5311 5.60815 19.4007 5.60815Z" fill="#009FA2"/>
<path d="M20.1959 10.3512C20.0774 10.6743 19.7669 10.9054 19.4041 10.9054H16.3613L15.0003 10.1984L13.6393 10.9054H10.5965C10.2337 10.9054 9.92325 10.6744 9.80469 10.3512C10.8643 8.59011 12.7945 7.41199 15.0003 7.41199C17.2061 7.41199 19.1363 8.59011 20.1959 10.3512Z" fill="#B6E5E5"/>
<path d="M16.3627 10.9053H13.6406L14.5751 9.28627C14.7647 8.95796 15.2386 8.95796 15.4281 9.28627L16.3627 10.9053Z" fill="#009FA2"/>
<path d="M27.7294 9.39024L26.6197 14.3549L24.2566 24.9264C24.0157 26.0039 23.0724 26.7562 21.9626 26.7562C21.8525 26.7562 21.7412 26.7486 21.631 26.7334C21.2173 26.6765 20.8019 26.6239 20.3859 26.5775C19.5386 26.4826 18.6879 26.4105 17.8359 26.3602C16.8926 26.2119 15.9451 26.1364 15.0029 26.1364C14.0607 26.1364 13.1132 26.2119 12.1699 26.3602C11.3179 26.4105 10.4671 26.4826 9.61987 26.5775C9.20387 26.6239 8.78843 26.6765 8.37474 26.7334C8.26462 26.7486 8.15324 26.7562 8.04312 26.7562C7.5568 26.7562 7.10268 26.6115 6.72537 26.359C6.24135 26.035 5.88452 25.5322 5.74917 24.9264L3.38608 14.3549L2.27632 9.39024C2.13394 8.75099 2.25757 8.10061 2.62612 7.55805C2.75444 7.36874 2.90561 7.20355 3.07554 7.06349C3.3896 6.80511 3.76753 6.63399 4.18179 6.5678C4.1894 6.56661 4.19702 6.56542 4.20405 6.56424C5.40757 6.37386 6.5273 7.22524 6.67199 8.43517L6.95618 10.8029C7.14368 12.3627 8.52005 13.5076 10.0874 13.3951C11.7251 13.2779 13.3669 13.2187 15.0029 13.2187C16.6388 13.2187 18.2806 13.2779 19.9183 13.3951C21.4857 13.5076 22.8621 12.3627 23.0496 10.8029L23.3337 8.43517C23.4785 7.22524 24.5982 6.37386 25.8017 6.56424C25.8087 6.56542 25.8164 6.56661 25.824 6.5678C26.4626 6.66974 27.0152 7.02074 27.3796 7.55805C27.7482 8.10061 27.8718 8.75099 27.7294 9.39024Z" fill="#009FA2"/>
<path d="M22.9146 16.707C22.8722 16.707 22.8292 16.7023 22.7862 16.6927C17.6924 15.5541 12.3076 15.5541 7.21387 16.6927C6.89812 16.7634 6.58481 16.5646 6.51425 16.2487C6.44362 15.9329 6.64244 15.6196 6.95819 15.5491C12.2192 14.3731 17.7807 14.373 23.0419 15.5491C23.3577 15.6197 23.5565 15.9329 23.4859 16.2487C23.4249 16.5215 23.1829 16.7069 22.9146 16.707Z" fill="#B6E5E5"/>
<path d="M22.9146 19.0342C22.8722 19.0342 22.8292 19.0296 22.7862 19.0199C17.6924 17.8814 12.3076 17.8814 7.21387 19.0199C6.89812 19.0906 6.58481 18.8918 6.51425 18.5759C6.44362 18.2601 6.64244 17.9469 6.95819 17.8763C12.2192 16.7003 17.7807 16.7003 23.0419 17.8763C23.3577 17.9469 23.5565 18.2601 23.4859 18.5759C23.4249 18.8488 23.1829 19.0342 22.9146 19.0342Z" fill="#B6E5E5"/>
<path d="M22.9146 21.3615C22.8722 21.3615 22.8292 21.3568 22.7862 21.3472C17.6924 20.2086 12.3076 20.2087 7.21387 21.3472C6.89812 21.4178 6.58481 21.219 6.51425 20.9032C6.44362 20.5874 6.64244 20.2741 6.95819 20.2036C12.2192 19.0276 17.7807 19.0276 23.0419 20.2036C23.3577 20.2742 23.5565 20.5874 23.4859 20.9032C23.4249 21.1759 23.1829 21.3614 22.9146 21.3615Z" fill="#B6E5E5"/>
<path d="M22.9146 23.6888C22.8722 23.6888 22.8292 23.6841 22.7862 23.6745C17.6924 22.536 12.3076 22.536 7.21387 23.6745C6.89812 23.7451 6.58481 23.5464 6.51425 23.2305C6.44362 22.9147 6.64244 22.6015 6.95819 22.5309C12.2192 21.3549 17.7807 21.3548 23.0419 22.5309C23.3577 22.6015 23.5565 22.9147 23.4859 23.2305C23.4249 23.5033 23.1829 23.6888 22.9146 23.6888Z" fill="#B6E5E5"/>
</svg>
