<svg width="30" height="30" viewBox="0 0 30 30" fill="none" xmlns="http://www.w3.org/2000/svg">
<path d="M27.7384 11.0338C27.7818 10.1164 27.5069 9.21223 26.9602 8.4743C25.5836 6.62042 23.7975 5.10935 21.7412 4.05886C19.6849 3.00837 17.4138 2.44681 15.1049 2.41792C12.796 2.38903 10.5115 2.8936 8.4296 3.89231C6.34766 4.89102 4.52437 6.35692 3.10181 8.1758C2.785 8.5778 2.55049 9.0383 2.41167 9.53092C2.27286 10.0236 2.23246 10.5388 2.29278 11.047C2.44057 12.2605 2.66267 13.5353 2.99487 14.5134C2.99487 14.5134 4.87349 20.3964 8.72954 23.9775L8.73572 23.9836C9.46629 24.7609 10.1575 25.5744 10.8066 26.4209C11.1962 26.9432 11.7594 27.3092 12.3948 27.4532C12.736 27.5279 13.0835 27.5704 13.4326 27.5802C14.5323 27.6084 15.6201 27.3469 16.5868 26.8219C19.1759 25.4367 26.0732 21.3643 27.0345 16.838C27.0345 16.838 27.6048 13.9632 27.7384 11.0338Z" fill="#B6E5E5"/>
<path d="M8.94531 19.947C8.94531 19.947 9.66006 21.7151 13.3859 21.597C17.2356 21.4748 17.4597 19.2546 17.4597 19.2546L8.94531 19.947Z" fill="#009FA2"/>
<path d="M8.43498 19.7695C9.07405 19.5307 9.67917 19.2094 10.235 18.8137C10.3744 18.7138 10.5337 18.6451 10.7021 18.6123C10.8705 18.5796 11.0439 18.5835 11.2107 18.624L12.5507 18.9548L13.8252 18.1901C13.9738 18.101 14.14 18.0456 14.3124 18.0278C14.4847 18.01 14.6587 18.0303 14.8223 18.0873L15.7707 18.4171C16.3094 18.6064 16.8692 18.7295 17.4377 18.7837C17.7257 18.8115 18.0152 18.8203 18.3044 18.8102C18.3381 18.8084 18.3713 18.8185 18.3982 18.8389C18.4251 18.8593 18.4439 18.8885 18.4513 18.9213C18.4587 18.9543 18.4542 18.9887 18.4387 19.0186C18.423 19.0485 18.3974 19.0719 18.3662 19.0847C16.827 19.7057 13.4123 20.7041 8.4623 20.0169C8.43405 20.013 8.40786 19.9997 8.38792 19.9793C8.36798 19.9588 8.35548 19.9323 8.35236 19.9038C8.34917 19.8755 8.35561 19.8468 8.37061 19.8225C8.38555 19.7981 8.40817 19.7795 8.43498 19.7695Z" fill="#009FA2"/>
<path d="M20.7944 12.1962C21.0478 12.1962 21.253 11.9909 21.253 11.7377C21.253 11.4844 21.0478 11.2791 20.7944 11.2791C20.5412 11.2791 20.3359 11.4844 20.3359 11.7377C20.3359 11.9909 20.5412 12.1962 20.7944 12.1962Z" fill="#009FA2"/>
<path d="M8.53344 6.54079C8.54806 6.76141 8.55581 6.97004 8.55237 7.18379C8.55237 7.29029 8.53375 7.7146 8.52787 7.82085C8.498 8.24616 8.44544 8.66954 8.37025 9.08922C8.291 9.51129 8.1885 9.92866 8.06319 10.3394L7.95731 10.6458C7.92263 10.7482 7.88675 10.8501 7.84375 10.9501L7.72112 11.252C7.67756 11.3515 7.62956 11.4498 7.58225 11.548C7.49631 11.6973 7.43125 11.8576 7.38894 12.0245C7.34425 12.241 7.36838 12.4659 7.45788 12.6679C7.54731 12.87 7.69775 13.039 7.888 13.1514L8.40344 13.4118C8.58344 13.4982 8.76813 13.5755 8.95244 13.6567C9.32306 13.8133 9.7015 13.9606 10.0841 14.1104L10.0858 14.111C10.1465 14.1347 10.1964 14.1798 10.2262 14.2377C10.2559 14.2956 10.2636 14.3624 10.2475 14.4255C10.2315 14.4887 10.193 14.5437 10.1392 14.5804C10.0854 14.6172 10.0201 14.6329 9.95544 14.6248C9.53119 14.5716 9.11194 14.4841 8.70188 14.3632C8.49494 14.3057 8.29206 14.2338 8.08925 14.1595C7.98788 14.1224 7.47594 13.8955 7.47594 13.8955C7.23656 13.7685 7.02869 13.5894 6.86763 13.3715C6.70725 13.1538 6.59663 12.9035 6.54344 12.6383C6.49194 12.3747 6.49631 12.1032 6.55631 11.8413C6.63475 11.6118 6.72725 11.3873 6.83331 11.1691C7.20063 10.4598 7.48469 9.71047 7.67981 8.93597C7.78369 8.54604 7.86756 8.14947 7.94056 7.74972C8.00906 7.35135 8.06919 6.94147 8.10413 6.54585L8.10506 6.53597C8.10981 6.48204 8.13475 6.43197 8.17481 6.39566C8.21494 6.35935 8.26725 6.33954 8.32138 6.3401C8.37544 6.34066 8.42731 6.3616 8.46663 6.39879C8.50594 6.43597 8.52981 6.48679 8.53344 6.54079Z" fill="#009FA2"/>
<path d="M12.5424 14.5448L12.5653 14.5389C12.8573 14.4571 13.1055 14.2638 13.2563 14.0006C13.4071 13.7375 13.4484 13.4256 13.3713 13.1323C13.2451 12.6653 12.9819 12.2468 12.6156 11.9308C12.5964 11.9139 12.5836 11.8909 12.5796 11.8656C12.5755 11.8403 12.5803 11.8144 12.5933 11.7924C12.6063 11.7703 12.6264 11.7534 12.6505 11.7447C12.6745 11.7359 12.7009 11.7358 12.725 11.7443C13.1616 11.8933 13.7559 12.2208 14.0506 12.9329C14.422 13.8306 13.7144 14.8267 12.7484 14.7236C12.6829 14.7166 12.6147 14.7059 12.5438 14.6913C12.5271 14.6878 12.5121 14.6786 12.5013 14.6654C12.4905 14.6522 12.4845 14.6357 12.4844 14.6186C12.4843 14.6015 12.4899 14.5849 12.5004 14.5715C12.511 14.5581 12.5258 14.5486 12.5424 14.5448Z" fill="#009FA2"/>
<path d="M11.4449 12.9929C11.518 13.0519 11.5865 13.1162 11.6502 13.1852C11.6861 13.2235 11.7071 13.2735 11.7093 13.326C11.7115 13.3785 11.6947 13.4301 11.6621 13.4713C11.6295 13.5125 11.5831 13.5407 11.5315 13.5506C11.4799 13.5605 11.4265 13.5516 11.3808 13.5255L11.3638 13.5155C11.137 13.3421 10.8545 13.2577 10.5697 13.278C10.4735 13.2851 10.3785 13.2536 10.3056 13.1905C10.2326 13.1275 10.1876 13.0381 10.1806 12.9419C10.1736 12.8457 10.2051 12.7507 10.2681 12.6778C10.3311 12.6048 10.4206 12.5599 10.5168 12.5529C10.8625 12.6057 11.1851 12.7587 11.4449 12.9929Z" fill="#009FA2"/>
<path d="M16.3767 13.5932C16.6183 13.6612 16.8554 13.7449 17.0862 13.8438C17.2003 13.893 17.3136 13.9441 17.4261 13.9972C17.5375 14.0522 17.6481 14.1093 17.7582 14.1677C18.1995 14.406 18.6162 14.6873 19.0022 15.0075C19.3968 15.3313 19.7466 15.706 20.0425 16.1219C20.1903 16.3341 20.319 16.559 20.427 16.7939C20.5324 17.031 20.6108 17.2793 20.6607 17.534C20.6708 17.5883 20.6608 17.6444 20.6326 17.6919C20.6043 17.7393 20.5597 17.7749 20.5072 17.7918C20.4546 17.8088 20.3977 17.8061 20.347 17.7841C20.2963 17.7621 20.2553 17.7224 20.2318 17.6725L20.2279 17.664C20.1337 17.4602 20.0262 17.2627 19.906 17.0729C19.7827 16.8858 19.6483 16.7063 19.5035 16.5353C19.205 16.1931 18.8755 15.8792 18.5194 15.5973C18.34 15.455 18.1572 15.315 17.9668 15.1835C17.7788 15.0491 17.5853 14.9209 17.3895 14.7953C16.9987 14.5467 16.588 14.3045 16.1888 14.0789L16.18 14.074C16.1245 14.0427 16.0823 13.9922 16.0613 13.932C16.0405 13.8718 16.0422 13.806 16.0664 13.747C16.0905 13.688 16.1353 13.6398 16.1925 13.6116C16.2496 13.5833 16.3151 13.5767 16.3767 13.5932Z" fill="#009FA2"/>
</svg>
