<svg width="30" height="30" viewBox="0 0 30 30" fill="none" xmlns="http://www.w3.org/2000/svg">
<g clip-path="url(#clip0_5845_1763)">
<mask id="mask0_5845_1763" style="mask-type:luminance" maskUnits="userSpaceOnUse" x="0" y="0" width="30" height="30">
<path d="M30 0H0V30H30V0Z" fill="white"/>
</mask>
<g mask="url(#mask0_5845_1763)">
<path d="M13.5415 21.3569C14.4208 23.5551 12.926 24.7499 12.926 26.5604C12.9674 27.7728 13.3298 28.9526 13.9759 29.9794C13.9862 29.9947 13.9862 30 13.9862 30L13.9759 29.9794C13.9242 29.8034 13.5621 28.3964 15.0466 26.5604C16.4586 24.8122 17.4517 23.8396 16.9086 21.2276C16.8879 21.1292 16.8674 21.0311 16.8415 20.9276L19.7691 19.438C22.1173 19.769 22.407 21.6673 23.9741 22.5723C25.0519 23.1443 26.2618 23.421 27.4811 23.3741C27.4811 23.3741 25.9398 23.0949 25.0346 20.7363C24.2278 18.6413 23.881 17.2913 21.3518 16.4534C21.2587 16.4225 21.1553 16.3914 21.0518 16.3602L21.2225 13.0863C22.6863 11.2138 24.4759 11.9172 26.0432 11.0119C27.0762 10.3629 27.9198 9.45306 28.4897 8.37412C28.4897 8.37412 27.4758 9.56888 24.9828 9.17587C22.7638 8.82406 21.4242 8.44662 19.4329 10.2257C19.3553 10.288 19.2828 10.3603 19.2052 10.4327L16.4482 8.64306C15.5689 6.44488 17.0638 5.25009 17.0638 3.43964C17.0223 2.22725 16.66 1.04736 16.0139 0.0205993C16.0118 0.0130462 16.0084 0.00617983 16.0036 0L16.0139 0.0205993C16.0656 0.196609 16.4277 1.60354 14.9431 3.43964C13.5312 5.18784 12.5381 6.16036 13.0812 8.77238C13.1018 8.87075 13.1224 8.96894 13.1483 9.07244L10.2206 10.562C7.8725 10.231 7.58275 8.33269 6.01561 7.42769C4.93781 6.85569 3.72794 6.579 2.50868 6.62588C2.50868 6.62588 4.04998 6.90512 4.9552 9.26375C5.76201 11.3587 6.10877 12.7087 8.63794 13.5466C8.73106 13.5775 8.8345 13.6086 8.938 13.6398L8.76725 16.9137C7.3035 18.7862 5.5139 18.0828 3.94652 18.9881C2.91357 19.6371 2.06992 20.5469 1.5 21.6259C1.5 21.6259 2.51395 20.4311 5.00693 20.8241C7.22594 21.1759 8.56556 21.5534 10.5569 19.7743C10.6344 19.712 10.707 19.6397 10.7846 19.5673L13.5415 21.3569Z" fill="#009FA2"/>
<path d="M10.4327 10.7897C10.3603 10.7121 10.288 10.6396 10.2257 10.562C8.44662 8.57069 8.82406 7.23106 9.17587 5.01206C9.56888 2.51908 8.37412 1.50513 8.37412 1.50513C9.45306 2.07505 10.3629 2.9187 11.0119 3.95165C11.9172 5.51903 11.2138 7.30863 13.0863 8.77238L16.3602 8.94313C16.3914 8.83963 16.4225 8.73619 16.4534 8.64306C17.2913 6.1139 18.6413 5.76714 20.7363 4.96033C23.0949 4.0551 23.3741 2.51381 23.3741 2.51381C23.421 3.73306 23.1443 4.94293 22.5723 6.02074C21.6673 7.58788 19.769 7.87763 19.438 10.2258L20.9276 13.1534C21.0311 13.1275 21.1292 13.1069 21.2276 13.0863C23.8396 12.5432 24.8122 13.5363 26.5604 14.9483C28.3964 16.4328 29.8034 16.0707 29.9794 16.019L30 16.0087C29.9938 16.0135 29.9869 16.0169 29.9794 16.019C28.9526 16.6651 27.7728 17.0274 26.5604 17.0689C24.7499 17.0689 23.5551 15.5741 21.3569 16.4534L19.5673 19.2103C19.6397 19.2879 19.712 19.3604 19.7743 19.438C21.5534 21.4293 21.1759 22.7689 20.8241 24.9879C20.4311 27.4809 21.6259 28.4949 21.6259 28.4949C20.5469 27.9249 19.6371 27.0813 18.9881 26.0484C18.0828 24.481 18.7862 22.6914 16.9137 21.2276L13.6398 21.0569C13.6086 21.1604 13.5775 21.2638 13.5466 21.3569C12.7087 23.8861 11.3587 24.2329 9.26375 25.0397C6.90512 25.9449 6.62588 27.4862 6.62588 27.4862C6.579 26.2669 6.85569 25.0571 7.42769 23.9793C8.33269 22.4121 10.231 22.1224 10.562 19.7743L9.07244 16.8466C8.96894 16.8725 8.87075 16.8931 8.77238 16.9137C6.16036 17.4568 5.18784 16.4637 3.43964 15.0518C1.60354 13.5672 0.196609 13.9293 0.0205993 13.981L0 13.9913C0 13.9913 0.00526428 13.9913 0.0205993 13.981C1.04736 13.3349 2.22725 12.9726 3.43964 12.9311C5.25009 12.9311 6.44488 14.4259 8.64306 13.5466L10.4327 10.7897Z" fill="#B6E5E5"/>
<path d="M15.0054 21.724C11.2917 21.724 8.28125 18.7136 8.28125 14.9999C8.28125 11.2863 11.2917 8.27588 15.0054 8.27588C18.7189 8.27588 21.7294 11.2863 21.7294 14.9999C21.7253 18.7117 18.7171 21.7199 15.0054 21.724ZM15.0054 9.31038C11.863 9.31038 9.31581 11.8576 9.31581 14.9999C9.31581 18.1423 11.863 20.6895 15.0054 20.6895C18.1477 20.6895 20.6949 18.1423 20.6949 14.9999C20.6913 11.8593 18.1461 9.31407 15.0054 9.31038Z" fill="#008588"/>
</g>
</g>
<defs>
<clipPath id="clip0_5845_1763">
<rect width="30" height="30" fill="white"/>
</clipPath>
</defs>
</svg>
