<svg width="30" height="30" viewBox="0 0 30 30" fill="none" xmlns="http://www.w3.org/2000/svg">
<g clip-path="url(#clip0_5809_3052)">
<mask id="mask0_5809_3052" style="mask-type:luminance" maskUnits="userSpaceOnUse" x="0" y="0" width="30" height="30">
<path d="M30 0H0V30H30V0Z" fill="white"/>
</mask>
<g mask="url(#mask0_5809_3052)">
<path d="M11.6105 27.2592C11.4338 27.4289 11.2135 27.5581 10.9606 27.6272L8.63726 28.2625C7.75995 28.5025 6.8302 28.251 6.21106 27.6061L4.99594 26.3406C4.37678 25.6957 4.16327 24.7566 4.43872 23.8896L5.19036 21.4195L2.18386 22.1967C1.37544 22.4178 0.540826 21.9416 0.319753 21.1332C0.0986784 20.3248 0.574811 19.4902 1.38323 19.2691L3.70653 18.6338C4.58397 18.3938 5.51368 18.6453 6.13278 19.2902L7.34789 20.5557C7.96707 21.2005 8.18057 22.1397 7.9052 23.0066L7.03576 25.4997L10.16 24.6997C10.9684 24.4786 11.803 24.9547 12.0241 25.7631C12.176 26.3186 11.9986 26.8866 11.6105 27.2592Z" fill="#B6E5E5"/>
<path d="M5.19023 21.4197L5.11107 21.6799L4.43853 23.8898C4.20181 24.635 4.32655 25.4333 4.75933 26.0524C5.44582 25.8954 6.35883 25.6966 7.03564 25.4998L7.14708 25.1803L7.90508 23.0067C8.15295 22.2263 8.00445 21.3874 7.52064 20.7573C6.8287 20.9629 5.88503 21.2249 5.19023 21.4197Z" fill="#009FA2"/>
<path d="M21.5461 27.6013C21.7734 27.6927 22.026 27.7303 22.2865 27.7L24.6791 27.4222C25.5826 27.3173 26.3512 26.737 26.6849 25.9077L27.3398 24.28C27.6735 23.4506 27.521 22.4996 26.9419 21.7982L25.3225 19.7872L28.4018 19.3859C29.2343 19.2892 29.8308 18.536 29.7341 17.7034C29.6375 16.8709 28.8843 16.2744 28.0517 16.371L25.6591 16.6488C24.7555 16.7537 23.9869 17.3341 23.6533 18.1634L22.9984 19.791C22.6647 20.6204 22.8172 21.5713 23.3963 22.2728L25.1335 24.2612L21.9364 24.6852C21.1039 24.7818 20.5074 25.535 20.604 26.3676C20.6704 26.9397 21.047 27.4004 21.5461 27.6013Z" fill="#B6E5E5"/>
<path d="M25.3263 19.7871L25.4968 19.9989L26.9457 21.7981C27.4435 22.401 27.6258 23.1882 27.4553 23.9241C26.7598 24.0347 25.8386 24.1911 25.1373 24.2612L24.9146 24.0064L23.4001 22.2728C22.8787 21.6412 22.7034 20.8076 22.917 20.0425C23.6358 19.975 24.6089 19.8657 25.3263 19.7871Z" fill="#009FA2"/>
<path d="M14.7878 20.2769C15.0092 20.1723 15.2085 20.0124 15.3632 19.8008L16.7847 17.8563C17.3216 17.1221 17.4179 16.1638 17.036 15.3555L16.2865 13.7692C15.9046 12.9609 15.1031 12.4268 14.1949 12.3752L11.6192 12.1973L13.4166 9.66507C13.9112 8.98851 13.7637 8.03907 13.0872 7.54438C12.4106 7.04976 11.4611 7.19732 10.9664 7.87382L9.54493 9.81826C9.00812 10.5526 8.9118 11.5109 9.29368 12.3191L10.0432 13.9054C10.4251 14.7136 11.2264 15.2478 12.1346 15.2994L14.7739 15.3754L12.9131 18.0095C12.4184 18.6861 12.566 19.6355 13.2425 20.1302C13.7075 20.4701 14.3014 20.5068 14.7878 20.2769Z" fill="#B6E5E5"/>
<path d="M11.4703 12.4119L11.6134 12.1974L14.1892 12.3752C14.9698 12.4195 15.6713 12.8206 16.0955 13.4455C15.7476 13.9662 15.3796 14.473 15.0035 14.9743C14.9101 15.0987 14.8309 15.2331 14.7681 15.3755L12.1289 15.2995C11.3113 15.253 10.5804 14.8153 10.1641 14.1388C10.6028 13.5655 11.0406 12.9917 11.4703 12.4119Z" fill="#009FA2"/>
<path d="M3.97855 15.679L2.70619 15.0428C2.32662 14.853 2.17275 14.3914 2.36254 14.0118L2.99875 12.7394C3.18853 12.3598 3.65013 12.2059 4.02971 12.3958L5.30207 13.0319C5.68164 13.2218 5.83551 13.6833 5.64572 14.0629L5.00951 15.3353C4.81973 15.7149 4.35818 15.8688 3.97855 15.679Z" fill="#B6E5E5"/>
<path d="M14.6357 27.1246L16.0036 26.7339C16.4117 26.6173 16.8369 26.8536 16.9536 27.2617L17.3443 28.6296C17.4609 29.0377 17.2246 29.4629 16.8165 29.5796L15.4486 29.9703C15.0405 30.0869 14.6153 29.8506 14.4986 29.4425L14.1079 28.0746C13.9913 27.6665 14.2276 27.2413 14.6357 27.1246Z" fill="#009FA2"/>
<path d="M24.3965 12.8504L22.6004 13.8874C22.0646 14.1968 21.3794 14.0132 21.0701 13.4774L20.0331 11.6812C19.7237 11.1454 19.9073 10.4602 20.4431 10.1509L22.2392 9.11392C22.7751 8.80454 23.4602 8.98811 23.7696 9.52392L24.8066 11.32C25.116 11.8559 24.9324 12.541 24.3965 12.8504Z" fill="#B6E5E5"/>
<path d="M5.32675 2.89341L5.82169 4.28519C5.84291 4.34478 5.88485 4.392 5.93777 4.41585L7.17424 4.97296C7.34893 5.05165 7.34893 5.33003 7.17424 5.40872L5.93777 5.96583C5.88485 5.98968 5.84284 6.03691 5.82169 6.0965L5.32675 7.48819C5.25685 7.68488 5.00952 7.68488 4.93962 7.48819L4.44462 6.09644C4.42341 6.03685 4.38145 5.98962 4.32855 5.96577L3.09199 5.40872C2.91725 5.33003 2.91725 5.05171 3.09199 4.97296L4.32849 4.41585C4.38145 4.392 4.42341 4.34478 4.44456 4.28519L4.93956 2.89341C5.00952 2.69683 5.25679 2.69683 5.32675 2.89341Z" fill="#009FA2"/>
<path d="M23.8017 0.10938L24.1689 1.14174C24.1846 1.18592 24.2157 1.22096 24.255 1.23866L25.1722 1.65192C25.3018 1.71034 25.3018 1.91676 25.1722 1.97518L24.255 2.38844C24.2158 2.40614 24.1846 2.44117 24.1689 2.48536L23.8017 3.51772C23.7498 3.66356 23.5664 3.66356 23.5145 3.51772L23.1474 2.48536C23.1317 2.44117 23.1006 2.40614 23.0613 2.38844L22.144 1.97518C22.0145 1.91676 22.0145 1.71034 22.144 1.65192L23.0613 1.23866C23.1005 1.22096 23.1316 1.18592 23.1474 1.14174L23.5145 0.10938C23.5664 -0.03646 23.7498 -0.03646 23.8017 0.10938Z" fill="#009FA2"/>
<path d="M18.7608 6.46459C19.3124 6.23595 19.5741 5.60353 19.3455 5.052C19.117 4.50049 18.4845 4.2387 17.933 4.46732C17.3815 4.69592 17.1197 5.32835 17.3483 5.87987C17.5769 6.4314 18.2093 6.69315 18.7608 6.46459Z" fill="#B6E5E5"/>
</g>
</g>
<defs>
<clipPath id="clip0_5809_3052">
<rect width="30" height="30" fill="white"/>
</clipPath>
</defs>
</svg>
