<svg width="30" height="30" viewBox="0 0 30 30" fill="none" xmlns="http://www.w3.org/2000/svg">
<g clip-path="url(#clip0_5845_1870)">
<path d="M15 30C23.2843 30 30 23.2843 30 15C30 6.71573 23.2843 0 15 0C6.71573 0 0 6.71573 0 15C0 23.2843 6.71573 30 15 30Z" fill="#B6E5E5"/>
<path d="M15 23C19.4183 23 23 19.4183 23 15C23 10.5817 19.4183 7 15 7C10.5817 7 7 10.5817 7 15C7 19.4183 10.5817 23 15 23Z" fill="#008588"/>
<path d="M10.5 23C12.9853 23 15 20.9853 15 18.5C15 16.0147 12.9853 14 10.5 14C8.01472 14 6 16.0147 6 18.5C6 20.9853 8.01472 23 10.5 23Z" fill="white"/>
</g>
<defs>
<clipPath id="clip0_5845_1870">
<rect width="30" height="30" fill="white"/>
</clipPath>
</defs>
</svg>
