<svg width="30" height="30" viewBox="0 0 30 30" fill="none" xmlns="http://www.w3.org/2000/svg">
<g clip-path="url(#clip0_5845_1875)">
<mask id="mask0_5845_1875" style="mask-type:luminance" maskUnits="userSpaceOnUse" x="0" y="0" width="30" height="30">
<path d="M30 0H0V30H30V0Z" fill="white"/>
</mask>
<g mask="url(#mask0_5845_1875)">
<path d="M15 30C23.2843 30 30 23.2843 30 15C30 6.71573 23.2843 0 15 0C6.71573 0 0 6.71573 0 15C0 23.2843 6.71573 30 15 30Z" fill="#B6E5E5"/>
<path d="M4.62848 15.8766C4.62848 15.8766 3.64527 17.0206 3 18.1235C3 18.1235 3.92718 17.4785 4.93959 18.3504C5.65924 18.9706 7.30056 18.6889 8.79087 19.398L4.62848 15.8766Z" fill="#009FA2"/>
<path d="M27.6838 11.825C27.6956 11.7933 27.6962 11.7584 27.6855 11.7262C27.6748 11.694 27.6534 11.6665 27.6249 11.6482C27.5964 11.6298 27.5625 11.6217 27.5287 11.6253C27.495 11.6288 27.4635 11.6437 27.4394 11.6677C27.1285 11.9747 26.7839 12.2457 26.4123 12.4756C26.2796 12.558 26.1242 12.5963 25.9685 12.585C25.8127 12.5737 25.6645 12.5134 25.5451 12.4127C25.1975 12.123 24.8299 11.8585 24.4449 11.6209C24.6944 11.399 24.8986 11.1309 25.0462 10.8314C25.0594 10.8047 25.0632 10.7744 25.057 10.7453C25.0507 10.7162 25.0348 10.6901 25.0117 10.6713C24.9886 10.6525 24.9599 10.6421 24.9301 10.6418C24.9004 10.6415 24.8714 10.6514 24.848 10.6698C24.6685 10.811 24.4783 10.9382 24.2794 11.0504C24.1524 11.1214 24.01 11.1606 23.8646 11.1645C23.7191 11.1684 23.5749 11.1368 23.4443 11.0726C22.9347 10.8273 22.4095 10.6157 21.8722 10.4392C22.0852 10.274 22.2612 10.0663 22.3891 9.82917C22.4015 9.80723 22.406 9.78167 22.4019 9.75679C22.3979 9.73186 22.3853 9.70917 22.3665 9.69236C22.3477 9.67554 22.3237 9.66573 22.2985 9.66448C22.2733 9.66317 22.2484 9.67061 22.228 9.68542C22.0483 9.81804 21.8568 9.93386 21.656 10.0314C21.3793 10.1652 21.0642 10.1967 20.7665 10.1206C19.8305 9.8903 18.8826 9.71129 17.927 9.58442C16.9998 9.45767 16.0608 9.43992 15.1295 9.53148C12.7525 9.77298 10.625 10.2674 8.98747 11.223C5.38502 13.3257 3.69531 16.5717 3.69531 16.5717C7.07473 22.8199 15.5189 22.2099 15.5189 22.2099H15.521C15.5862 22.2054 15.6513 22.2202 15.7081 22.2525C15.7649 22.2848 15.8109 22.3332 15.8404 22.3915C16.0178 22.7393 16.1732 23.0979 16.3055 23.4652C16.31 23.4786 16.3189 23.49 16.3308 23.4977C16.3427 23.5054 16.3568 23.5089 16.3709 23.5075C16.3849 23.5062 16.3981 23.5002 16.4083 23.4904C16.4185 23.4807 16.4252 23.4677 16.4272 23.4537C16.491 23.0125 16.4621 22.5628 16.3425 22.1333C17.4076 22.0135 18.4548 21.7684 19.4625 21.403C19.5986 21.3535 19.7467 21.3481 19.886 21.3874C20.0253 21.4267 20.1488 21.5088 20.239 21.6221C20.413 21.84 20.5908 22.078 20.7512 22.3208C20.7608 22.3352 20.775 22.3458 20.7914 22.351C20.8078 22.3563 20.8255 22.3559 20.8416 22.3498C20.8578 22.3437 20.8714 22.3324 20.8802 22.3175C20.8891 22.3028 20.8927 22.2854 20.8904 22.2683C20.8409 21.8129 20.713 21.3694 20.5124 20.9574C21.1925 20.6292 21.8362 20.2304 22.4328 19.7675C22.5787 19.6535 22.7547 19.5846 22.9392 19.5693C23.1237 19.554 23.3087 19.5929 23.4713 19.6814C23.8119 19.865 24.143 20.0658 24.4632 20.2829C24.4792 20.2937 24.4984 20.2988 24.5175 20.2974C24.5367 20.2959 24.5549 20.288 24.569 20.275C24.5832 20.2619 24.5925 20.2445 24.5955 20.2255C24.5986 20.2064 24.5951 20.187 24.5857 20.1702C24.3105 19.6554 23.9351 19.201 23.4815 18.8338C23.9333 18.3732 24.3433 17.8732 24.7065 17.3399C24.8658 17.1048 25.0915 16.9224 25.3549 16.8159C25.6182 16.7095 25.9072 16.6839 26.1852 16.7423C26.4803 16.805 26.7871 16.88 27.0844 16.9687C27.1045 16.9749 27.1262 16.974 27.1459 16.9662C27.1655 16.9585 27.182 16.9443 27.1925 16.926C27.203 16.9077 27.2069 16.8863 27.2037 16.8655C27.2005 16.8446 27.1903 16.8254 27.1747 16.8112C26.7199 16.3711 26.1819 16.0262 25.5922 15.7964C25.9585 15.0377 26.2337 14.2382 26.4117 13.4146C27.1407 12.9984 27.506 12.3221 27.6838 11.825Z" fill="#009FA2"/>
<path d="M4.625 15.8766C4.625 15.8766 6.42296 13.5046 9.87639 11.9678L19.0793 10.9031C23.298 11.6009 25.1308 13.6813 25.1308 13.6813C25.1308 13.6813 23.8048 20.3547 15.6568 20.8746C6.90996 21.4324 4.625 15.8766 4.625 15.8766Z" fill="white"/>
<path d="M13.3418 10.9109C12.1478 11.1194 10.9841 11.4743 9.87707 11.9676C9.61157 12.7802 9.5547 13.6465 9.7117 14.4869C9.86864 15.3273 10.2344 16.1147 10.7754 16.7767C11.3163 17.4387 12.015 17.954 12.8073 18.2754C13.5995 18.5966 14.4598 18.7135 15.309 18.6153C16.1583 18.5171 16.9692 18.2069 17.6671 17.7132C18.3651 17.2195 18.9278 16.5583 19.3033 15.7903C19.6788 15.0223 19.8552 14.1722 19.8162 13.3182C19.7771 12.4642 19.524 11.6337 19.08 10.9031C18.176 10.756 17.2617 10.6807 16.3458 10.6779L13.3418 10.9109Z" fill="#B6E5E5"/>
<path d="M15.0995 10.7099C14.5114 10.7427 13.9258 10.8101 13.3455 10.9115C12.8147 11.2837 12.4209 11.8201 12.2247 12.438C12.0284 13.0559 12.0407 13.7212 12.2595 14.3315C12.4784 14.9418 12.8917 15.4632 13.4359 15.8157C13.98 16.1681 14.625 16.3319 15.2714 16.282C15.9178 16.232 16.5299 15.9711 17.0135 15.5393C17.4971 15.1075 17.8254 14.5287 17.9479 13.8921C18.0705 13.2554 17.9804 12.5962 17.6916 12.0157C17.4028 11.4352 16.9313 10.9657 16.3496 10.6795C15.9476 10.677 15.5321 10.6857 15.0995 10.7099Z" fill="#008588"/>
<path d="M13.2839 16.7997C14.0793 16.7997 14.7241 16.1549 14.7241 15.3596C14.7241 14.5642 14.0793 13.9194 13.2839 13.9194C12.4886 13.9194 11.8438 14.5642 11.8438 15.3596C11.8438 16.1549 12.4886 16.7997 13.2839 16.7997Z" fill="white"/>
<path d="M20.1082 6.49102C9.04354 5.57843 4.21969 14.9134 2.93762 17.9932C2.92821 18.0158 2.92714 18.0411 2.93458 18.0645C2.94203 18.0878 2.95752 18.1078 2.97831 18.1208C2.99909 18.1338 3.02381 18.139 3.04807 18.1355C3.07234 18.132 3.09458 18.12 3.11083 18.1016C5.02731 15.9279 8.65529 9.89227 15.8363 8.14158C18.6762 7.44921 22.1147 7.8504 24.9047 8.72246C25.3128 8.85002 25.7231 8.9974 26.1228 9.16746C26.1639 9.18502 26.2098 9.18796 26.2528 9.17577C26.2958 9.16358 26.3334 9.13696 26.3592 9.10046C26.385 9.06396 26.3975 9.01965 26.3946 8.97502C26.3917 8.9304 26.3737 8.88815 26.3433 8.85521C25.6131 8.07133 23.8721 6.80146 20.1082 6.49102Z" fill="#009FA2"/>
<path d="M9.09676 23.1566C9.14257 23.1647 9.18976 23.1554 9.22901 23.1304C9.26826 23.1054 9.29663 23.0665 9.30851 23.0215C9.32038 22.9765 9.31494 22.9287 9.29319 22.8876C9.27144 22.8464 9.23501 22.8149 9.19119 22.7994C8.20538 22.4434 6.97407 21.7389 5.88984 20.3452C5.40367 19.7201 4.83984 19.5589 4.42514 19.5422C4.35195 19.5396 4.27912 19.5536 4.21209 19.5831C4.14506 19.6126 4.08557 19.6569 4.03805 19.7126C3.99054 19.7683 3.95623 19.8341 3.93769 19.9049C3.91916 19.9758 3.91688 20.0499 3.93102 20.1217C3.95197 20.2297 4.00892 20.3274 4.09254 20.3987C4.17617 20.4701 4.28154 20.5111 4.39143 20.5149C4.70652 20.5256 5.14611 20.6267 5.41672 21.0566C5.41672 21.0566 6.78869 22.7553 9.09676 23.1566Z" fill="#009FA2"/>
</g>
</g>
<defs>
<clipPath id="clip0_5845_1875">
<rect width="30" height="30" fill="white"/>
</clipPath>
</defs>
</svg>
