<svg width="30" height="30" viewBox="0 0 30 30" fill="none" xmlns="http://www.w3.org/2000/svg">
<g clip-path="url(#clip0_5857_1975)">
<mask id="mask0_5857_1975" style="mask-type:luminance" maskUnits="userSpaceOnUse" x="0" y="0" width="30" height="30">
<path d="M30 0H0V30H30V0Z" fill="white"/>
</mask>
<g mask="url(#mask0_5857_1975)">
<path d="M15.0035 30C11.9727 30 9.51562 27.543 9.51562 24.5122V5.48779L15.0035 4.31592L20.4913 5.48779V24.5122C20.4913 27.543 18.0343 30 15.0035 30Z" fill="#B6E5E5"/>
<path d="M18.5434 4.31592V24.5122C18.5434 27.2101 16.5966 29.4532 14.0312 29.9135C14.3479 29.9703 14.6739 30 15.0068 30C18.0376 30 20.4946 27.5431 20.4946 24.5122V5.48779L18.5434 4.31592Z" fill="#D5F6F6"/>
<path d="M9.51562 3.07251H20.4913V5.48774H9.51562V3.07251Z" fill="#009FA2"/>
<path d="M20.7967 0H19.7118L19.2723 0.436934L18.8329 0H17.5776L17.1382 0.436934L16.6987 0H15.4434L15.004 0.436934L14.5646 0H13.3093L12.8699 0.436934L12.4304 0H11.1751L10.7357 0.436934L10.2963 0H9.21131C8.87456 0 8.60156 0.272988 8.60156 0.609727V3.04875C8.60156 3.38549 8.87456 3.65847 9.21131 3.65847H10.2963L10.7357 3.31301L11.1751 3.65847H12.4304L12.8698 3.31301L13.3092 3.65847H14.5645L15.004 3.31301L15.4434 3.65847H16.6987L17.1381 3.31301L17.5775 3.65847H18.8328L19.2722 3.31301L19.7116 3.65847H20.7966C21.1333 3.65847 21.4063 3.38549 21.4063 3.04875V0.609727C21.4064 0.272988 21.1334 0 20.7967 0Z" fill="#008588"/>
<path d="M20.7989 0H19.714L19.3869 0.325312C19.4318 0.410274 19.4575 0.506953 19.4575 0.609785V3.04881C19.4575 3.17092 19.4212 3.28441 19.3594 3.37974L19.714 3.65854H20.799C21.1358 3.65854 21.4088 3.38554 21.4088 3.04881V0.609727C21.4087 0.272988 21.1357 0 20.7989 0Z" fill="#008588"/>
<path d="M14.0876 12.8049C15.6031 12.8049 16.8315 11.5764 16.8315 10.061C16.8315 8.54558 15.6031 7.31714 14.0876 7.31714C12.5722 7.31714 11.3438 8.54558 11.3438 10.061C11.3438 11.5764 12.5722 12.8049 14.0876 12.8049Z" fill="white"/>
<path d="M15.3242 7.60938C15.5108 7.97994 15.6166 8.39825 15.6166 8.84144C15.6166 10.3569 14.3881 11.5853 12.8726 11.5853C12.4294 11.5853 12.0111 11.4796 11.6406 11.293C12.0921 12.1895 13.0199 12.8049 14.0922 12.8049C15.6076 12.8049 16.8361 11.5764 16.8361 10.0609C16.8361 8.98875 16.2207 8.06087 15.3242 7.60938Z" fill="#009FA2"/>
<path d="M14.0866 9.14645C14.5917 9.14645 15.0012 8.73689 15.0012 8.23176C15.0012 7.72664 14.5917 7.31714 14.0866 7.31714C13.5814 7.31714 13.1719 7.72664 13.1719 8.23176C13.1719 8.73689 13.5814 9.14645 14.0866 9.14645Z" fill="#008588"/>
<path d="M15.9158 20.0611C17.4312 20.0611 18.6597 18.8326 18.6597 17.3172C18.6597 15.8017 17.4312 14.5732 15.9158 14.5732C14.4004 14.5732 13.1719 15.8017 13.1719 17.3172C13.1719 18.8326 14.4004 20.0611 15.9158 20.0611Z" fill="white"/>
<path d="M17.8607 15.3769C17.6476 15.1637 17.4079 14.9938 17.1526 14.8655C17.6696 15.8939 17.4996 17.1794 16.6411 18.0379C15.7827 18.8963 14.4972 19.0663 13.4688 18.5492C13.5971 18.8045 13.7671 19.0442 13.9802 19.2574C15.0518 20.3289 16.7891 20.3289 17.8607 19.2574C18.9322 18.1858 18.9322 16.4484 17.8607 15.3769Z" fill="#009FA2"/>
<path d="M14.6256 16.9382C15.1307 16.9382 15.5402 16.5287 15.5402 16.0236C15.5402 15.5184 15.1307 15.1089 14.6256 15.1089C14.1204 15.1089 13.7109 15.5184 13.7109 16.0236C13.7109 16.5287 14.1204 16.9382 14.6256 16.9382Z" fill="#008588"/>
<path d="M14.0876 27.1491C15.6031 27.1491 16.8315 25.9207 16.8315 24.4053C16.8315 22.8898 15.6031 21.6614 14.0876 21.6614C12.5722 21.6614 11.3438 22.8898 11.3438 24.4053C11.3438 25.9207 12.5722 27.1491 14.0876 27.1491Z" fill="white"/>
<path d="M16.0325 22.4649C15.8194 22.2518 15.5797 22.0818 15.3244 21.9535C15.8414 22.9819 15.6714 24.2674 14.813 25.1259C13.9546 25.9844 12.6691 26.1543 11.6406 25.6373C11.7689 25.8926 11.9389 26.1323 12.152 26.3454C13.2236 27.4169 14.9609 27.4169 16.0325 26.3454C17.104 25.2738 17.104 23.5365 16.0325 22.4649Z" fill="#009FA2"/>
<path d="M15.3834 24.0263C15.8885 24.0263 16.2981 23.6168 16.2981 23.1116C16.2981 22.6065 15.8885 22.197 15.3834 22.197C14.8783 22.197 14.4688 22.6065 14.4688 23.1116C14.4688 23.6168 14.8783 24.0263 15.3834 24.0263Z" fill="#008588"/>
<path d="M14.5625 0H15.4414V3.65854H14.5625V0Z" fill="#009FA2"/>
<path d="M16.7031 0H17.5821V3.65854H16.7031V0Z" fill="#009FA2"/>
<path d="M18.8281 0H19.707V3.65854H18.8281V0Z" fill="#009FA2"/>
<path d="M12.4297 0H13.3086V3.65854H12.4297V0Z" fill="#009FA2"/>
<path d="M10.2969 0H11.1758V3.65854H10.2969V0Z" fill="#009FA2"/>
<path d="M18.1114 13.4868C18.3541 13.4868 18.5508 13.2901 18.5508 13.0473C18.5508 12.8047 18.3541 12.6079 18.1114 12.6079C17.8686 12.6079 17.6719 12.8047 17.6719 13.0473C17.6719 13.2901 17.8686 13.4868 18.1114 13.4868Z" fill="white"/>
<path d="M12.3301 15.0125C12.5728 15.0125 12.7696 14.8158 12.7696 14.5731C12.7696 14.3304 12.5728 14.1337 12.3301 14.1337C12.0874 14.1337 11.8906 14.3304 11.8906 14.5731C11.8906 14.8158 12.0874 15.0125 12.3301 15.0125Z" fill="white"/>
<path d="M11.3457 20.5005C11.5884 20.5005 11.7851 20.3038 11.7851 20.061C11.7851 19.8183 11.5884 19.6216 11.3457 19.6216C11.103 19.6216 10.9062 19.8183 10.9062 20.061C10.9062 20.3038 11.103 20.5005 11.3457 20.5005Z" fill="white"/>
<path d="M18.2519 22.1008C18.4946 22.1008 18.6914 21.904 18.6914 21.6614C18.6914 21.4187 18.4946 21.2219 18.2519 21.2219C18.0093 21.2219 17.8125 21.4187 17.8125 21.6614C17.8125 21.904 18.0093 22.1008 18.2519 22.1008Z" fill="white"/>
</g>
</g>
<defs>
<clipPath id="clip0_5857_1975">
<rect width="30" height="30" fill="white"/>
</clipPath>
</defs>
</svg>
