<svg width="20" height="14" viewBox="0 0 20 14" fill="none" xmlns="http://www.w3.org/2000/svg">
<path fill-rule="evenodd" clip-rule="evenodd" d="M6 7C6 5.93913 6.42143 4.92172 7.17157 4.17157C7.92172 3.42143 8.93913 3 10 3C11.0609 3 12.0783 3.42143 12.8284 4.17157C13.5786 4.92172 14 5.93913 14 7C14 8.06087 13.5786 9.07828 12.8284 9.82843C12.0783 10.5786 11.0609 11 10 11C8.93913 11 7.92172 10.5786 7.17157 9.82843C6.42143 9.07828 6 8.06087 6 7ZM10 4.6C9.36348 4.6 8.75303 4.85286 8.30294 5.30294C7.85286 5.75303 7.6 6.36348 7.6 7C7.6 7.63652 7.85286 8.24697 8.30294 8.69706C8.75303 9.14714 9.36348 9.4 10 9.4C10.6365 9.4 11.247 9.14714 11.6971 8.69706C12.1471 8.24697 12.4 7.63652 12.4 7C12.4 6.36348 12.1471 5.75303 11.6971 5.30294C11.247 4.85286 10.6365 4.6 10 4.6Z" fill="#748CA4"/>
<path fill-rule="evenodd" clip-rule="evenodd" d="M2.12615 5.59585C1.69641 6.22222 1.53846 6.71274 1.53846 7C1.53846 7.28726 1.69641 7.77778 2.12615 8.40415C2.54256 9.00874 3.16 9.66518 3.94154 10.2719C5.50769 11.4873 7.65436 12.4444 10 12.4444C12.3456 12.4444 14.4923 11.4873 16.0585 10.2719C16.84 9.66518 17.4574 9.00874 17.8738 8.40415C18.3036 7.77778 18.4615 7.28726 18.4615 7C18.4615 6.71274 18.3036 6.22222 17.8738 5.59585C17.4574 4.99126 16.84 4.33482 16.0585 3.72815C14.4923 2.51274 12.3456 1.55556 10 1.55556C7.65436 1.55556 5.50769 2.51274 3.94154 3.72815C3.16 4.33482 2.54256 4.99126 2.12615 5.59585ZM3.0041 2.49407C4.77949 1.11689 7.24718 0 10 0C12.7528 0 15.2205 1.11689 16.9949 2.49407C17.8841 3.1837 18.6185 3.95319 19.1374 4.70919C19.6421 5.44444 20 6.25022 20 7C20 7.74978 19.641 8.55556 19.1374 9.29081C18.6185 10.0468 17.8841 10.8153 16.9959 11.5059C15.2215 12.8831 12.7528 14 10 14C7.24718 14 4.77949 12.8831 3.00513 11.5059C2.1159 10.8163 1.38154 10.0468 0.862564 9.29081C0.358974 8.55556 0 7.74978 0 7C0 6.25022 0.358974 5.44444 0.862564 4.70919C1.38154 3.95319 2.1159 3.18474 3.0041 2.49407Z" fill="#748CA4"/>
</svg>
