<svg width="50" height="41" viewBox="0 0 50 41" fill="none" xmlns="http://www.w3.org/2000/svg">
<path d="M25 1C26.6628 1.01383 28.0225 2.38446 28.0225 4.0791C28.0225 4.18389 28.0168 4.28547 28.0068 4.37891L28.002 4.4248L28.001 4.47168C27.9263 9.99414 27.633 15.4363 26.9551 20.9561L26.8145 22.0615C26.7738 22.3649 26.7817 22.7153 26.9238 23.042C27.0764 23.3925 27.4207 23.7583 27.957 23.8008C28.4448 23.8393 28.8136 23.5856 29.0215 23.3584C29.2268 23.134 29.3549 22.8569 29.4307 22.5752L29.4336 22.5762C31.2863 16.4635 32.2515 10.3011 32.9385 4.02051L32.9443 3.9668V3.90527C32.9443 3.6737 32.9785 3.44626 33.042 3.22168L33.0439 3.21387L33.0459 3.20703L33.0547 3.17676L33.0576 3.16309C33.1617 2.74947 33.4071 2.38507 33.751 2.13281L33.7734 2.11621L33.7939 2.09961C34.2015 1.76537 34.7122 1.5817 35.2393 1.58008C35.5852 1.58091 35.927 1.65949 36.2383 1.81055C36.5498 1.96176 36.8233 2.18152 37.0381 2.45312L37.0596 2.48145L37.084 2.50781C37.4528 2.91102 37.6787 3.48763 37.5049 4.32422C36.2976 10.0691 35.0004 15.5982 32.4062 21.1279C32.277 21.4027 32.1681 21.7383 32.1865 22.0869C32.2063 22.4578 32.4166 23.0419 33.0713 23.208C33.5787 23.3365 33.9977 23.0995 34.2021 22.9512C34.4469 22.7735 34.6568 22.5304 34.8301 22.2588L34.8291 22.2578C38.3644 16.7583 40.361 11.1558 42.0547 5.51172L42.0713 5.45703L42.0811 5.40137C42.1508 5.01346 42.3544 4.6616 42.6562 4.4082C42.9576 4.15529 43.3381 4.01561 43.7314 4.01367C44.6468 4.01441 45.4062 4.76994 45.4062 5.70898V5.72461C45.4025 5.99458 45.3367 6.26056 45.2139 6.50098L45.1875 6.55273L45.167 6.60742C43.4485 11.2323 41.7818 15.637 38.7119 20.1006C38.5241 20.3262 38.3317 20.6241 38.2773 20.9775C38.2446 21.1906 38.2553 21.4777 38.415 21.7578C38.5812 22.049 38.8423 22.2157 39.0889 22.29C39.5233 22.421 39.9266 22.2851 40.1631 22.1709C40.4326 22.0407 40.6872 21.843 40.9131 21.5986L40.9141 21.5996C44.7638 17.5648 46.7111 13.0557 48.7422 8.68848C48.9872 9.32642 49.0605 10.1582 48.9473 11.1514C48.8232 12.2388 48.4875 13.4388 48.0166 14.6289L48.0156 14.6299C46.7046 17.9472 44.0823 22.1572 40.9258 26.2656C37.9726 30.1094 34.5972 33.8056 31.4854 36.5371L30.8662 37.0703C28.4326 39.1295 26.6508 39.9915 25.002 39.999C23.3493 39.9858 21.5638 39.1273 19.1338 37.0703C15.8552 34.2978 12.2244 30.3657 9.07422 26.2656C5.91762 22.1572 3.29537 17.9472 1.98438 14.6299V14.6289L1.81348 14.1826C1.43191 13.1407 1.1614 12.1029 1.05273 11.1514C0.939296 10.1578 1.01166 9.32521 1.25684 8.68652C3.2834 13.0561 5.23789 17.5646 9.08691 21.5996V21.5986C9.31422 21.843 9.56998 22.0406 9.83984 22.1709C10.0746 22.2842 10.4788 22.4224 10.9141 22.291C11.1621 22.2161 11.4246 22.0473 11.5898 21.7539C11.7484 21.4725 11.757 21.1851 11.7236 20.9736C11.6682 20.6233 11.4759 20.3285 11.2891 20.1035C8.21721 15.6392 6.55282 11.2333 4.83398 6.60645L4.81055 6.54492L4.78027 6.4873L4.72656 6.37598C4.67777 6.26256 4.64259 6.14353 4.62207 6.02148L4.61816 6L4.60059 5.87012C4.59655 5.82695 4.59368 5.78364 4.59375 5.74023V5.70996C4.59377 4.77047 5.35458 4.01465 6.27051 4.01465C7.08148 4.01481 7.77503 4.61014 7.9209 5.40527L7.93066 5.45996L7.94629 5.5127C9.63898 11.1566 11.6349 16.7595 15.1699 22.2588V22.2598C15.3436 22.532 15.5544 22.7756 15.8008 22.9531C16.0078 23.1023 16.4288 23.3359 16.9355 23.2041C17.584 23.0352 17.7947 22.4561 17.8145 22.084C17.8328 21.7359 17.7233 21.4024 17.5938 21.1289C14.9999 15.5998 13.7098 10.0717 12.4951 4.3252C12.3213 3.48841 12.5474 2.90959 12.9131 2.50488L12.9355 2.48047L12.9561 2.4541C13.1709 2.18225 13.4442 1.96188 13.7559 1.81055C14.0669 1.65956 14.4082 1.58105 14.7539 1.58008C15.2814 1.58145 15.7923 1.76513 16.2002 2.09961L16.2217 2.11719L16.2441 2.13379C16.5601 2.36441 16.8084 2.69153 16.9287 3.16602L16.957 3.27734L16.9756 3.31445C17.0227 3.49318 17.0488 3.68861 17.0488 3.90527V3.9668L17.0547 4.02051C17.7417 10.3009 18.7068 16.4633 20.5605 22.5762V22.5752C20.6357 22.8566 20.7651 23.1324 20.9688 23.3574C21.1749 23.5852 21.5438 23.8456 22.0361 23.8066C22.5772 23.7637 22.9199 23.3913 23.0703 23.043C23.1762 22.7976 23.2066 22.5386 23.1982 22.2959L23.1787 22.0605C22.4001 16.1611 22.0708 10.3619 21.9922 4.47168L21.9912 4.4248L21.9863 4.37891C21.9811 4.32954 21.9772 4.28003 21.9746 4.23047L21.9707 4.08203C21.9761 2.3845 23.3379 1.01397 25 1ZM39.293 20.3701C39.281 20.3759 39.2813 20.3737 39.293 20.3691V20.3701Z" fill="#009FA2" stroke="#009FA2" stroke-width="2"/>
</svg>
