<svg width="36" height="36" viewBox="0 0 36 36" fill="none" xmlns="http://www.w3.org/2000/svg">
<path d="M4 19.5304L3 14.1231C9 11.4195 15 14.495 18.5 14.1231C22 13.7513 33 11.9602 33 14.6639C33 17.3675 32.5 17.3675 32.5 17.3675C32.1667 19.3501 30.8 23.4236 28 23.8562C24.5 24.3969 23.5 23.3155 22 22.234C20.8 21.3688 20.1667 20.0711 20 19.5304L19.5 16.286L18.5 15.7453H17L16.5 16.8268L15.5 20.0711L13.5 22.7747L10 23.8562L6.5 23.3155L4 19.5304Z" fill="#00C0FF" fill-opacity="0.1"/>
<path d="M9.49894 12.0002C7.13338 12.0032 5.33459 12.5697 3.43637 13.1495C2.84107 13.2637 2.37099 13.4543 2.1238 13.9493C1.87506 14.4476 2.04823 14.9616 2.23204 15.3157C2.57134 15.9692 3.10263 16.5769 3.30939 16.9735C3.55341 18.3342 3.87737 19.6735 4.39865 20.8464C5.31276 22.9034 6.99344 24.4401 9.65936 24.2987C12.9587 24.1237 14.8251 22.7607 15.8217 21.15C16.8184 19.5391 16.9888 17.7418 17.1978 16.8353C17.7339 15.5642 18.8372 15.5491 19.3884 16.8353C19.5973 17.7418 19.7677 19.5391 20.7645 21.1499C21.761 22.7606 23.6275 24.1237 26.9268 24.2986C29.5927 24.4401 31.2734 22.9034 32.1875 20.8465C32.7089 19.6735 33.0326 18.3341 33.2767 16.9736C33.4835 16.5768 34.0148 15.9691 34.3542 15.3157C34.538 14.9616 34.7111 14.4476 34.4624 13.9493C34.2152 13.4544 33.7451 13.2637 33.1497 13.1496C31.2515 12.5698 29.4527 12.0032 27.0872 12.0001C25.1942 11.9976 22.9381 12.3557 19.9764 13.3562L19.5886 13.4872C18.293 13.7365 18.2931 13.7365 16.9975 13.4872L16.6098 13.3562C13.648 12.3557 11.3918 11.9977 9.49894 12.0002ZM9.50922 13.2644C11.1846 13.2659 13.1907 13.5964 15.8677 14.4692C16.0395 14.9588 16.2334 15.7995 16.0169 16.6312C15.7776 17.7156 15.6049 19.1757 14.8302 20.428C14.0308 21.7202 12.6333 22.8442 9.60119 23.005C7.34458 23.1248 6.26074 22.0537 5.47431 20.2841C5.025 19.2735 4.72612 18.0335 4.48964 16.7244L4.49224 16.7237L4.20702 14.2594C5.9275 13.7303 7.48944 13.2625 9.50922 13.2644ZM27.0768 13.2644C29.0965 13.2626 30.6588 13.7302 32.3792 14.2594L32.094 16.7237L32.0965 16.7244C31.8601 18.0335 31.5611 19.2735 31.112 20.2841C30.3254 22.0537 29.2415 23.1248 26.985 23.005C23.9529 22.8441 22.5553 21.7202 21.7558 20.428C20.9812 19.1758 20.8086 17.7156 20.5693 16.6312C20.3859 15.6164 20.5466 14.9588 20.7183 14.4692C23.3953 13.5964 25.4013 13.2659 27.0768 13.2644Z" fill="#009FA2"/>
<path d="M10.263 14.0001C8.91323 14.0057 7.50045 14.2688 6.34093 14.9389C5.40514 18.325 6.59651 20.0955 7.50431 21.3846C7.60007 18.3501 6.4044 14.8027 14.4846 14.9389C13.6295 14.4117 11.9983 13.9928 10.263 14.0001ZM27.1232 14.0001C25.7735 14.0057 24.3608 14.2688 23.2012 14.9389C22.2654 18.325 23.4568 20.0955 24.3646 21.3846C24.4603 18.3501 23.2647 14.8027 31.3448 14.9389C30.4897 14.4117 28.8586 13.9928 27.1232 14.0001Z" fill="white"/>
</svg>
