<svg width="19" height="19" viewBox="0 0 19 19" fill="none" xmlns="http://www.w3.org/2000/svg">
<g clip-path="url(#clip0_2601_606)">
<path fill-rule="evenodd" clip-rule="evenodd" d="M18.2282 5.84712L18.0409 1.91425C18.0164 1.39935 17.6045 0.987462 17.0896 0.962943L13.1567 0.775662C12.2437 0.732185 11.7558 1.83532 12.4021 2.48164L13.8942 3.97377L7.93353 9.93444C7.62111 10.2469 7.62111 10.7534 7.93353 11.0658C8.24595 11.3782 8.75249 11.3782 9.06491 11.0658L15.0256 5.10514L16.5222 6.6018C17.1685 7.24812 18.2717 6.76012 18.2282 5.84712ZM9.05733 18.8001H8.99922H6.99922H6.94111C5.5763 18.8001 4.47112 18.8002 3.60081 18.6832C2.69515 18.5614 1.92497 18.2999 1.31221 17.6871C0.699459 17.0744 0.43795 16.3042 0.316189 15.3985C0.199178 14.5282 0.199196 13.4231 0.199219 12.0582V12.0001V10.0001V9.94203C0.199197 8.57722 0.199179 7.47203 0.31619 6.60171C0.437951 5.69606 0.69946 4.92587 1.31222 4.31312C1.92497 3.70036 2.69515 3.43885 3.60081 3.31709C4.47113 3.20008 5.5763 3.2001 6.94113 3.20012H6.99922H7.49922C7.94105 3.20012 8.29922 3.55829 8.29922 4.00012C8.29922 4.44195 7.94105 4.80012 7.49922 4.80012H6.99922C5.56239 4.80012 4.56525 4.80182 3.814 4.90282C3.08577 5.00073 2.70951 5.17856 2.44359 5.44449C2.17766 5.71041 1.99983 6.08667 1.90192 6.8149C1.80092 7.56615 1.79922 8.56329 1.79922 10.0001V12.0001C1.79922 13.437 1.80092 14.4341 1.90192 15.1853C1.99983 15.9136 2.17766 16.2898 2.44359 16.5558C2.70951 16.8217 3.08577 16.9995 3.814 17.0974C4.56525 17.1984 5.56239 17.2001 6.99922 17.2001H8.99922C10.436 17.2001 11.4332 17.1984 12.1844 17.0974C12.9127 16.9995 13.2889 16.8217 13.5549 16.5558C13.8208 16.2898 13.9986 15.9136 14.0965 15.1853C14.1975 14.4341 14.1992 13.437 14.1992 12.0001V11.5001C14.1992 11.0583 14.5574 10.7001 14.9992 10.7001C15.441 10.7001 15.7992 11.0583 15.7992 11.5001V12.0001V12.0582C15.7992 13.423 15.7993 14.5282 15.6823 15.3985C15.5605 16.3042 15.299 17.0744 14.6862 17.6871C14.0735 18.2999 13.3033 18.5614 12.3976 18.6832C11.5273 18.8002 10.4221 18.8001 9.05733 18.8001Z" fill="#9DA9BC"/>
</g>
<defs>
<clipPath id="clip0_2601_606">
<rect width="19" height="19" fill="white"/>
</clipPath>
</defs>
</svg>
