<svg width="18" height="18" viewBox="0 0 18 18" fill="none" xmlns="http://www.w3.org/2000/svg">
<path fill-rule="evenodd" clip-rule="evenodd" d="M4.11876 3.70735C5.40252 2.52267 7.11634 1.8002 9 1.8002C12.9764 1.8002 16.2 5.02375 16.2 9.0002C16.2 12.9766 12.9764 16.2002 9 16.2002C6.94085 16.2002 5.08465 15.3368 3.77135 13.9501C3.46754 13.6293 2.9612 13.6155 2.6404 13.9193C2.3196 14.2232 2.30583 14.7295 2.60964 15.0503C4.21252 16.7428 6.48343 17.8002 9 17.8002C13.8601 17.8002 17.8 13.8603 17.8 9.0002C17.8 4.14009 13.8601 0.200195 9 0.200195C6.7131 0.200195 4.62907 1.0734 3.06487 2.5029L1.75258 1.00314C1.14454 0.308237 0 0.73828 0 1.66164V6.0002C0 6.55248 0.447715 7.0002 1 7.0002H4.79623C5.65539 7.0002 6.11457 5.98828 5.54881 5.34169L4.11876 3.70735Z" fill="#009FA2"/>
</svg>
