<svg width="19" height="8" viewBox="0 0 19 8" fill="none" xmlns="http://www.w3.org/2000/svg">
<g clip-path="url(#clip0_2409_1491)">
<path fill-rule="evenodd" clip-rule="evenodd" d="M17.8885 4.67304L15.2399 7.58643C14.6251 8.26276 13.5 7.82779 13.5 6.91376V4.80037H7.5C7.05817 4.80037 6.7 4.44219 6.7 4.00037C6.7 3.55854 7.05817 3.20037 7.5 3.20037H13.5V1.08697C13.5 0.17294 14.6251 -0.262028 15.2399 0.414301L17.8885 3.32769C18.2352 3.70911 18.2352 4.29162 17.8885 4.67304ZM2.5 6.00037C3.60457 6.00037 4.5 5.10493 4.5 4.00037C4.5 2.8958 3.60457 2.00037 2.5 2.00037C1.39543 2.00037 0.5 2.8958 0.5 4.00037C0.5 5.10493 1.39543 6.00037 2.5 6.00037Z" fill="#BDC7D1"/>
</g>
<defs>
<clipPath id="clip0_2409_1491">
<rect width="19" height="8" fill="white"/>
</clipPath>
</defs>
</svg>
