<svg width="18" height="18" viewBox="0 0 18 18" fill="none" xmlns="http://www.w3.org/2000/svg">
<path fill-rule="evenodd" clip-rule="evenodd" d="M9 18C13.9706 18 18 13.9706 18 9C18 4.02944 13.9706 0 9 0C4.02944 0 0 4.02944 0 9C0 13.9706 4.02944 18 9 18ZM12.5659 11.4343C12.8783 11.7467 12.8783 12.2533 12.5659 12.5657C12.2535 12.8781 11.7469 12.8781 11.4345 12.5657L9.0002 10.1314L6.56588 12.5657C6.25346 12.8781 5.74693 12.8781 5.43451 12.5657C5.12209 12.2533 5.12209 11.7467 5.43451 11.4343L7.86882 9.00001L5.43451 6.5657C5.12209 6.25328 5.12209 5.74675 5.43451 5.43433C5.74693 5.12191 6.25346 5.12191 6.56588 5.43433L9.0002 7.86864L11.4345 5.43433C11.7469 5.12191 12.2535 5.12191 12.5659 5.43433C12.8783 5.74675 12.8783 6.25328 12.5659 6.5657L10.1316 9.00001L12.5659 11.4343Z" fill="white" fill-opacity="0.6"/>
</svg>
