<svg width="19" height="19" viewBox="0 0 19 19" fill="none" xmlns="http://www.w3.org/2000/svg">
<path fill-rule="evenodd" clip-rule="evenodd" d="M9.79922 1.0002C9.79922 0.558367 9.44105 0.200195 8.99922 0.200195C8.55739 0.200195 8.19922 0.558367 8.19922 1.0002V9.0002H6.08583C5.1718 9.0002 4.73682 10.1253 5.41315 10.7401L8.32655 13.3887C8.70797 13.7354 9.29047 13.7354 9.67189 13.3887L12.5853 10.7401C13.2616 10.1253 12.8266 9.0002 11.9126 9.0002H9.79922V1.0002ZM0.999219 13.2002C1.44105 13.2002 1.79922 13.5584 1.79922 14.0002C1.79922 15.7675 3.23191 17.2002 4.99922 17.2002H12.9992C14.7665 17.2002 16.1992 15.7675 16.1992 14.0002C16.1992 13.5584 16.5574 13.2002 16.9992 13.2002C17.441 13.2002 17.7992 13.5584 17.7992 14.0002C17.7992 16.6512 15.6502 18.8002 12.9992 18.8002H4.99922C2.34825 18.8002 0.199219 16.6512 0.199219 14.0002C0.199219 13.5584 0.557391 13.2002 0.999219 13.2002Z" fill="white"/>
</svg>
