<svg width="48" height="48" viewBox="0 0 48 48" fill="none" xmlns="http://www.w3.org/2000/svg">
<g clip-path="url(#clip0_2239_1170)">
<path d="M47.9123 11.3822C47.8304 11.0779 47.6893 10.7928 47.4972 10.5431C47.305 10.2933 47.0656 10.0839 46.7925 9.92671C46.5192 9.76876 46.2175 9.66625 45.9046 9.62504C45.5918 9.58383 45.2738 9.60474 44.969 9.68656C44.3544 9.85199 43.8306 10.2548 43.5129 10.8064L43.113 11.5022C42.9303 11.3974 42.7135 11.3688 42.5099 11.4228C42.3062 11.4767 42.1321 11.6089 42.0253 11.7905L39.9936 15.2535L39.2978 14.8536C39.2065 14.8007 39.1056 14.7665 39.001 14.7527C38.8965 14.739 38.7902 14.746 38.6884 14.7735C38.5865 14.8011 38.4911 14.8485 38.4076 14.913C38.3241 14.9775 38.2541 15.0579 38.2017 15.1495C37.985 15.532 38.117 16.0178 38.4978 16.2373L39.1938 16.6373L32.3949 28.4193L30.7152 32.9067L29.9154 34.4021C29.686 34.801 29.5761 35.2573 29.5988 35.7168C29.6215 36.1763 29.7758 36.6196 30.0433 36.9939L28.2436 39.2013L27.7398 37.9378C27.6285 37.6618 27.4424 37.4223 27.2025 37.2463C26.9625 37.0703 26.6782 36.9647 26.3815 36.9415C26.0848 36.9181 25.7874 36.978 25.5229 37.1145C25.2584 37.2509 25.0371 37.4584 24.8841 37.7137L24.5963 38.2016L24.3244 35.0021C24.294 34.635 24.1379 34.2896 23.8824 34.0241C23.6269 33.7587 23.2877 33.5896 22.922 33.5453C22.5562 33.5012 22.1864 33.5846 21.875 33.7816C21.5636 33.9785 21.3297 34.2769 21.2128 34.6263L19.2452 40.5293C19.1792 40.7298 19.1951 40.9482 19.2895 41.1371C19.3839 41.3259 19.5491 41.4697 19.7491 41.5372C19.8271 41.5737 19.9112 41.5953 19.9971 41.6009C20.1647 41.6014 20.3283 41.5492 20.4647 41.4516C20.6011 41.3541 20.7034 41.2161 20.7571 41.0573L22.7165 35.1543L22.9965 38.4016C23.0246 38.7392 23.1591 39.0592 23.3806 39.3154C23.6022 39.5717 23.8994 39.751 24.2294 39.8276C24.5594 39.9041 24.9052 39.8739 25.2169 39.7413C25.5287 39.6087 25.7903 39.3805 25.964 39.0897L26.26 38.6015L26.7561 39.8576C26.8595 40.1178 27.0295 40.3462 27.2489 40.5201C27.4683 40.694 27.7296 40.8073 28.0065 40.8486C28.2834 40.8899 28.5663 40.8577 28.8269 40.7554C29.0875 40.653 29.3167 40.484 29.4915 40.2653L31.3552 37.9059C31.5615 37.9598 31.7739 37.9867 31.9871 37.9859C32.4084 37.9892 32.8231 37.8815 33.1896 37.6736C33.556 37.4657 33.8613 37.1651 34.0747 36.8018L34.8746 35.4661L37.9221 31.7629L44.7928 19.8366L45.4887 20.2366C45.5805 20.289 45.661 20.3592 45.7255 20.443C45.7901 20.5268 45.8373 20.6226 45.8645 20.7248C45.8919 20.8263 45.899 20.9323 45.8853 21.0366C45.8716 21.1409 45.8375 21.2414 45.7848 21.3325L42.5854 26.8757C42.5256 26.9658 42.4847 27.067 42.4652 27.1733C42.4457 27.2796 42.448 27.3888 42.4719 27.4942C42.4958 27.5996 42.5409 27.6991 42.6043 27.7866C42.6678 27.8741 42.7484 27.9478 42.8412 28.0032C42.9324 28.0562 43.0333 28.0906 43.1379 28.1045C43.2425 28.1183 43.3488 28.1113 43.4507 28.0838C43.5526 28.0563 43.648 28.0089 43.7315 27.9443C43.815 27.8798 43.8849 27.7993 43.9371 27.7076L47.1365 22.1644C47.2945 21.8912 47.3971 21.5895 47.4382 21.2765C47.4794 20.9636 47.4584 20.6456 47.3764 20.3408C47.2109 19.7262 46.8081 19.2025 46.2566 18.8849L45.5607 18.485L47.5603 15.0215C47.7786 14.6414 47.6501 14.1564 47.2724 13.9337L47.6723 13.2378C47.8346 12.9604 47.9395 12.6531 47.9807 12.3344C48.0219 12.0156 47.9987 11.6918 47.9123 11.3822ZM44.8968 11.6061C44.9493 11.5143 45.0194 11.4338 45.1032 11.3693C45.187 11.3048 45.2827 11.2576 45.3849 11.2303C45.5903 11.1795 45.8074 11.2081 45.9926 11.3104C46.0844 11.3628 46.1649 11.4329 46.2295 11.5167C46.294 11.6004 46.3414 11.6961 46.3687 11.7982C46.4196 12.0036 46.391 12.2206 46.2887 12.4059L45.8887 13.1019L44.4968 12.302L44.8968 11.6061ZM33.9947 33.9384L33.5947 33.7065L32.4109 33.0183L33.5467 29.979L36.0662 31.4345L33.9947 33.9384ZM31.5951 36.2498C31.432 36.1362 31.3171 35.966 31.2728 35.7722C31.2284 35.5785 31.2579 35.3752 31.3553 35.202L31.7552 34.5063L33.1468 35.3062L32.7469 35.994C32.6915 36.0901 32.6167 36.1737 32.5273 36.2394C32.4378 36.3051 32.3357 36.3514 32.2274 36.3755C32.119 36.3995 32.0069 36.4008 31.898 36.3792C31.7892 36.3576 31.686 36.3134 31.5951 36.2498ZM36.9782 30.1231L34.2106 28.5233L40.6095 17.4369L43.3771 19.0367L36.9782 30.1231ZM44.1769 17.653L41.4094 16.0533L43.0091 13.2857L45.7766 14.8855L44.1769 17.653Z" fill="#9DA9BC"/>
<path d="M28.7947 6.40686C29.0068 6.40686 29.2103 6.32258 29.3603 6.17258C29.5103 6.02258 29.5945 5.81913 29.5945 5.60699C29.5945 5.39486 29.5103 5.19141 29.3603 5.0414C29.2103 4.8914 29.0068 4.80713 28.7947 4.80713H7.99822C7.78609 4.80713 7.58264 4.8914 7.43263 5.0414C7.28263 5.19141 7.19836 5.39486 7.19836 5.60699V8.80645C7.19836 9.24837 7.5565 9.60631 7.99822 9.60631H28.7947C29.0068 9.60631 29.2103 9.52204 29.3603 9.37203C29.5103 9.22203 29.5945 9.01858 29.5945 8.80645C29.5945 8.59431 29.5103 8.39086 29.3603 8.24086C29.2103 8.09085 29.0068 8.00658 28.7947 8.00658H8.79809V6.40686H28.7947ZM10.3978 11.206C10.1857 11.206 9.98223 11.2903 9.83222 11.4403C9.68222 11.5903 9.59795 11.7938 9.59795 12.0059C9.59795 12.218 9.68222 12.4215 9.83222 12.5715C9.98223 12.7215 10.1857 12.8058 10.3978 12.8058H26.3951C26.6072 12.8058 26.8107 12.7215 26.9607 12.5715C27.1107 12.4215 27.1949 12.218 27.1949 12.0059C27.1949 11.7938 27.1107 11.5903 26.9607 11.4403C26.8107 11.2903 26.6072 11.206 26.3951 11.206H10.3978ZM31.1943 16.8051H13.5973C13.3851 16.8051 13.1817 16.8893 13.0317 17.0394C12.8817 17.1894 12.7974 17.3928 12.7974 17.6049C12.7974 17.8171 12.8817 18.0205 13.0317 18.1705C13.1817 18.3205 13.3851 18.4048 13.5973 18.4048H31.1943C31.4064 18.4048 31.6098 18.3205 31.7598 18.1705C31.9099 18.0205 31.9941 17.8171 31.9941 17.6049C31.9941 17.3928 31.9099 17.1894 31.7598 17.0394C31.6098 16.8893 31.4064 16.8051 31.1943 16.8051ZM23.1956 22.4041C23.1956 22.192 23.1114 21.9885 22.9614 21.8385C22.8113 21.6885 22.6079 21.6043 22.3958 21.6043H6.3985C6.18636 21.6043 5.98291 21.6885 5.83291 21.8385C5.6829 21.9885 5.59863 22.192 5.59863 22.4041C5.59863 22.6163 5.6829 22.8197 5.83291 22.9697C5.98291 23.1197 6.18636 23.204 6.3985 23.204H22.3958C22.8375 23.204 23.1956 22.846 23.1956 22.4041ZM31.1943 21.6043H25.5952C25.3831 21.6043 25.1796 21.6885 25.0296 21.8385C24.8796 21.9885 24.7954 22.192 24.7954 22.4041C24.7954 22.6163 24.8796 22.8197 25.0296 22.9697C25.1796 23.1197 25.3831 23.204 25.5952 23.204H31.1943C31.4064 23.204 31.6098 23.1197 31.7598 22.9697C31.9099 22.8197 31.9941 22.6163 31.9941 22.4041C31.9941 22.192 31.9099 21.9885 31.7598 21.8385C31.6098 21.6885 31.4064 21.6043 31.1943 21.6043ZM14.3971 27.2033C14.6093 27.2033 14.8127 27.119 14.9627 26.969C15.1127 26.819 15.197 26.6156 15.197 26.4034C15.197 26.1913 15.1127 25.9879 14.9627 25.8378C14.8127 25.6878 14.6093 25.6036 14.3971 25.6036H6.3985C6.18636 25.6036 5.98291 25.6878 5.83291 25.8378C5.6829 25.9879 5.59863 26.1913 5.59863 26.4034C5.59863 26.6156 5.6829 26.819 5.83291 26.969C5.98291 27.119 6.18636 27.2033 6.3985 27.2033H14.3971ZM17.5966 27.2033H23.1956C23.4078 27.2033 23.6112 27.119 23.7612 26.969C23.9112 26.819 23.9955 26.6156 23.9955 26.4034C23.9955 26.1913 23.9112 25.9879 23.7612 25.8378C23.6112 25.6878 23.4078 25.6036 23.1956 25.6036H17.5966C17.3844 25.6036 17.181 25.6878 17.031 25.8378C16.881 25.9879 16.7967 26.1913 16.7967 26.4034C16.7967 26.6156 16.881 26.819 17.031 26.969C17.181 27.119 17.3844 27.2033 17.5966 27.2033Z" fill="#9DA9BC"/>
<path d="M35.9939 36.802C35.7817 36.802 35.5783 36.8863 35.4283 37.0363C35.2783 37.1863 35.194 37.3897 35.194 37.6019V45.6005C35.194 46.0424 34.8358 46.4004 34.3941 46.4004H2.39959C1.95787 46.4004 1.59973 46.0424 1.59973 45.6005V2.40789C1.59973 2.19575 1.684 1.99231 1.834 1.8423C1.984 1.6923 2.18745 1.60803 2.39959 1.60803H34.3941C34.6063 1.60803 34.8097 1.6923 34.9597 1.8423C35.1097 1.99231 35.194 2.19575 35.194 2.40789V17.4293C35.194 17.6415 35.2783 17.8449 35.4283 17.9949C35.5783 18.1449 35.7817 18.2292 35.9939 18.2292C36.206 18.2292 36.4094 18.1449 36.5594 17.9949C36.7094 17.8449 36.7937 17.6415 36.7937 17.4293V2.40789C36.7937 1.08272 35.7193 0.00830078 34.3941 0.00830078H2.39959C1.07442 0.00830078 0 1.08272 0 2.40789V45.6005C0 46.9261 1.07442 48.0001 2.39959 48.0001H34.3941C35.7193 48.0001 36.7937 46.9261 36.7937 45.6005V37.6019C36.7937 37.3897 36.7094 37.1863 36.5594 37.0363C36.4094 36.8863 36.206 36.802 35.9939 36.802Z" fill="#9DA9BC"/>
<path d="M9.79093 38.6739L12.622 35.8502C12.7751 35.7192 12.9719 35.6507 13.1732 35.6586C13.3744 35.6664 13.5653 35.7498 13.7078 35.8923C13.8502 36.0347 13.9336 36.2256 13.9415 36.4269C13.9493 36.6281 13.8809 36.8249 13.7499 36.978L10.9266 39.8095C10.6247 40.109 10.2158 40.2758 9.79083 40.2734C9.3682 40.2739 8.96277 40.1071 8.66282 39.8095L6.96711 38.1138C6.89213 38.0394 6.83261 37.951 6.792 37.8535C6.75138 37.756 6.73047 37.6515 6.73047 37.5459C6.73047 37.4403 6.75138 37.3357 6.792 37.2383C6.83261 37.1408 6.89213 37.0523 6.96711 36.978C7.117 36.829 7.31974 36.7454 7.53106 36.7454C7.74238 36.7454 7.94512 36.829 8.09502 36.978L9.79093 38.6739Z" fill="#009FA2"/>
<path d="M9.99806 44.8004C6.2432 44.8004 3.19922 41.7567 3.19922 38.0016C3.19922 36.7389 3.55083 35.5011 4.21465 34.4271C4.87846 33.353 5.82825 32.485 6.95759 31.9204C8.08693 31.3557 9.3512 31.1167 10.6087 31.2301C11.8663 31.3435 13.0674 31.8049 14.0775 32.5625C14.1615 32.6255 14.2323 32.7045 14.2858 32.7949C14.3393 32.8853 14.3745 32.9853 14.3893 33.0893C14.4042 33.1933 14.3983 33.2992 14.3722 33.4009C14.3461 33.5027 14.3002 33.5983 14.2371 33.6823C14.1741 33.7663 14.0952 33.8371 14.0048 33.8907C13.9145 33.9442 13.8145 33.9794 13.7105 33.9943C13.6065 34.0091 13.5006 34.0034 13.3989 33.9773C13.2972 33.9512 13.2015 33.9054 13.1175 33.8424C12.2191 33.1644 11.1235 32.7992 9.99806 32.8024C7.12665 32.8024 4.79895 35.1302 4.79895 38.0016C4.79895 40.8729 7.12665 43.2007 9.99806 43.2007C12.8695 43.2007 15.1972 40.8729 15.1972 38.0016C15.1972 37.7894 15.2814 37.586 15.4314 37.436C15.5814 37.286 15.7849 37.2017 15.997 37.2017C16.2092 37.2017 16.4126 37.286 16.5626 37.436C16.7126 37.586 16.7969 37.7894 16.7969 38.0016C16.7969 41.7567 13.7529 44.8004 9.99806 44.8004Z" fill="#009FA2"/>
</g>
<defs>
<clipPath id="clip0_2239_1170">
<rect width="48" height="48" fill="white"/>
</clipPath>
</defs>
</svg>
