<svg width="26" height="26" viewBox="0 0 26 26" fill="none" xmlns="http://www.w3.org/2000/svg">
<g clip-path="url(#clip0_2768_602)">
<path fill-rule="evenodd" clip-rule="evenodd" d="M3.45302 22.547C3.49812 22.378 4.10255 21.5218 4.2453 21.3079C4.53438 20.8742 4.79847 20.478 5.07814 20.0585C5.22381 19.8399 6.65233 17.7605 6.70326 17.5704C6.89014 17.6204 8.37965 19.1099 8.42961 19.2967C8.26869 19.3399 4.54249 21.8374 4.1032 22.1304C3.88096 22.2787 3.68337 22.425 3.45302 22.547ZM16.3515 1.47263C16.6373 1.47263 17.1613 2.10464 17.4562 2.39956L24.0576 9.00095C24.7538 9.69687 24.7139 9.63783 23.7782 10.5751C23.4223 10.9317 23.1835 11.2334 22.7105 10.7542C22.119 10.155 21.5561 9.59727 20.9598 9.00095C20.5711 8.61227 18.6936 6.60074 18.2757 6.45117C17.8095 6.28409 17.3164 6.70521 17.3164 7.16007C17.3164 7.57828 17.8017 7.92478 18.0402 8.16324L20.6678 10.7656C20.4981 11.019 16.8488 14.6102 16.2373 15.2218C15.2416 16.2175 15.8947 15.9102 15.8947 17.875C15.8947 19.1653 15.4894 20.6753 14.8772 21.7326C14.1777 22.9412 14.0557 22.7647 13.3173 22.0263L3.99905 12.708C3.19412 11.9031 3.10587 11.8359 4.21188 11.1689C5.71469 10.2627 7.19057 10.0336 8.98538 10.1592C10.4486 10.2617 9.71894 10.8224 11.591 8.95034L14.5868 5.95413C15.0216 5.5197 15.9453 4.75338 15.9453 4.31635C15.9453 3.551 14.8548 3.32486 15.019 2.73309C15.0806 2.51084 16.0747 1.47263 16.3515 1.47263ZM13.5078 2.89466C13.5078 3.46373 13.8267 4.03701 14.168 4.26574C13.9912 4.52984 9.70239 8.73426 9.69915 8.73426C9.26277 8.73426 8.76995 8.63271 8.02341 8.63271C7.28985 8.63271 6.52515 8.73394 5.9405 8.88577C4.84941 9.16868 2.79051 9.95059 2.17764 10.9628C1.97195 11.3025 1.92977 11.5841 1.92977 12.0351C1.92977 12.6795 2.26654 13.0584 2.60266 13.3935L4.63366 15.4249C4.89061 15.6815 5.46585 16.198 5.63683 16.453C5.57745 16.7074 0.930495 23.6449 0.30465 24.5783C0.0752702 24.9203 0 24.9459 0 25.3398C0 25.6898 0.319574 26 0.812399 26C1.06741 26 2.69253 24.8654 3.01632 24.6494L8.41988 21.0646C8.66094 20.9102 9.31695 20.417 9.54698 20.3632C9.98206 20.6545 12.5977 23.5235 13.1028 23.8152C13.9818 24.323 14.9895 24.092 15.6491 23.2663C16.6717 21.9867 17.3673 19.6883 17.3673 17.9766C17.3673 17.2531 17.2615 16.6542 17.2615 16.4495C17.2615 16.1769 17.524 16.0173 17.8371 15.7042C18.3377 15.2033 21.4851 11.9988 21.7343 11.832C22.2063 12.537 23.4674 12.7265 24.2386 12.1526C24.517 11.9456 24.7042 11.7311 24.9462 11.4894C25.6902 10.7455 26 10.592 26 9.44543C26 9.12943 25.8203 8.78228 25.6931 8.58437C25.5393 8.34525 25.356 8.16649 25.1493 7.95982C24.1705 6.98131 17.9237 0.644987 17.4465 0.327036C16.9802 0.016222 16.7551 0 16.2499 0C15.4291 0 14.9398 0.624872 14.5106 1.05378C14.0262 1.53817 13.5078 1.94113 13.5078 2.89466Z" fill="white"/>
<path fill-rule="evenodd" clip-rule="evenodd" d="M5.78906 12.3398C5.78906 12.7159 6.05705 13.1016 6.55085 13.1016C6.89897 13.1016 7.26332 12.8985 8.22658 12.8985C8.70254 12.8985 8.91245 13.0001 9.44551 13.0001C9.94417 13.0001 10.2783 12.3129 9.96396 11.872C9.43772 11.1339 6.51451 11.4353 6.06062 11.7987C5.95226 11.8853 5.78906 12.1805 5.78906 12.3398Z" fill="white"/>
</g>
<defs>
<clipPath id="clip0_2768_602">
<rect width="26" height="26" fill="white"/>
</clipPath>
</defs>
</svg>
