<svg width="24" height="22" viewBox="0 0 24 22" fill="none" xmlns="http://www.w3.org/2000/svg">
<path fill-rule="evenodd" clip-rule="evenodd" d="M21 15.9991H19.5V21.2491C19.5 21.664 19.164 22 18.75 22H5.25C4.83514 22 4.5 21.664 4.5 21.2491V15.9991H3C1.34571 15.9991 0 14.6543 0 13V8.5C0 6.84486 1.34571 5.5 3 5.5H4.5V1.75C4.5 1.33514 4.83514 1 5.25 1H18.75C19.164 1 19.5 1.33514 19.5 1.75V5.5H21C22.6543 5.5 24 6.84486 24 8.5V13C24 14.6543 22.6543 15.9991 21 15.9991ZM6 20.4991H18V13H6V20.4991ZM18 2.49914H6V5.5H18V2.49914ZM22.5 8.5C22.5 7.67286 21.8263 6.99914 21 6.99914H3C2.17286 6.99914 1.5 7.67286 1.5 8.5V13C1.5 13.8263 2.17286 14.4991 3 14.4991H4.5V13H3.75C3.33514 13 3 12.664 3 12.2491C3 11.8351 3.33514 11.4991 3.75 11.4991H20.25C20.6649 11.4991 21 11.8351 21 12.2491C21 12.664 20.6649 13 20.25 13H19.5V14.4991H21C21.8263 14.4991 22.5 13.8263 22.5 13V8.5ZM20.25 9.99914C19.836 9.99914 19.5 9.664 19.5 9.24914C19.5 8.83514 19.836 8.5 20.25 8.5C20.664 8.5 21 8.83514 21 9.24914C21 9.664 20.664 9.99914 20.25 9.99914ZM15.75 18.9991H8.25C7.83514 18.9991 7.5 18.664 7.5 18.2491C7.5 17.8351 7.83514 17.5 8.25 17.5H15.75C16.1649 17.5 16.5 17.8351 16.5 18.2491C16.5 18.664 16.1649 18.9991 15.75 18.9991ZM15.75 15.9991H8.25C7.83514 15.9991 7.5 15.664 7.5 15.25C7.5 14.8351 7.83514 14.4991 8.25 14.4991H15.75C16.1649 14.4991 16.5 14.8351 16.5 15.25C16.5 15.664 16.1649 15.9991 15.75 15.9991Z" fill="white"/>
</svg>
