<svg width="53" height="53" viewBox="0 0 53 53" fill="none" xmlns="http://www.w3.org/2000/svg">
<path d="M41.5511 4.45115V31.3549H27.5454C26.8933 31.3549 26.2929 31.0133 25.9513 30.4543L23.4772 26.3965C23.1356 25.8375 22.5353 25.4959 21.8831 25.4959H10.7759V8.12596L15.4548 3.44705H40.5573C41.0956 3.44705 41.5511 3.89217 41.5511 4.45115Z" fill="#EAEFFE"/>
<path d="M16.5521 22.2455H14.6164C14.047 22.2455 13.5916 21.7797 13.5916 21.2207V11.6455C13.5916 11.0762 14.047 10.6207 14.6164 10.6207H16.5521C15.9828 10.6207 15.5273 11.0762 15.5273 11.6455V21.2207C15.5169 21.79 15.9724 22.2455 16.5521 22.2455Z" fill="#F3AE83"/>
<path d="M25.2164 11.6455V21.2207C25.2164 21.7797 24.7506 22.2455 24.1916 22.2455H16.5418C15.9724 22.2455 15.517 21.7797 15.517 21.2207V11.6455C15.517 11.0762 15.9724 10.6207 16.5418 10.6207H24.1916C24.7609 10.6103 25.2164 11.0762 25.2164 11.6455Z" fill="#F6C9AF"/>
<path d="M10.7759 8.12596L15.4444 3.44705V7.12186C15.4444 7.68084 14.989 8.12596 14.4403 8.12596H10.7759Z" fill="#D5DCF8"/>
<path d="M13.7675 52.8965H7.48413C6.44898 52.8965 5.62085 52.058 5.62085 51.0332V27.3592C5.62085 26.324 6.44898 25.4959 7.48413 25.4959H13.7675C12.7324 25.4959 11.9042 26.324 11.9042 27.3592V51.0332C11.9042 52.058 12.7324 52.8965 13.7675 52.8965Z" fill="#34CBCE"/>
<path d="M47.3791 33.2181V51.0332C47.3791 52.058 46.551 52.8965 45.5158 52.8965H13.7676C12.7324 52.8965 11.9043 52.058 11.9043 51.0332V27.3592C11.9043 26.324 12.7324 25.4959 13.7676 25.4959H21.8936C22.5457 25.4959 23.1461 25.8271 23.4877 26.3965L25.9617 30.4543C26.3033 31.0029 26.9037 31.3549 27.5559 31.3549H45.5262C46.551 31.3445 47.3791 32.183 47.3791 33.2181Z" fill="#74DBDD"/>
<path d="M8.10525 25.4855H7.49451C6.45935 25.4855 5.63123 26.3137 5.63123 27.3488V23.6637C5.63123 22.6596 6.4283 21.8418 7.42205 21.8004L8.10525 25.4855ZM47.3791 23.674V33.2182C47.3791 32.183 46.551 31.3549 45.5158 31.3549H41.5512V28.1666L43.5904 21.8107H45.5158C46.551 21.8107 47.3791 22.6492 47.3791 23.674Z" fill="#009FA2"/>
<path d="M32.4729 8.58144H33.7668V7.28749C33.7668 6.79062 34.1705 6.37656 34.6777 6.37656C35.185 6.37656 35.5887 6.78027 35.5887 7.28749V8.58144H36.8826C37.3795 8.58144 37.7936 8.98515 37.7936 9.49238C37.7936 9.9996 37.3898 10.4033 36.8826 10.4033H35.5887V11.6973C35.5887 12.1941 35.185 12.6082 34.6777 12.6082C34.1705 12.6082 33.7668 12.2045 33.7668 11.6973V10.4033H32.4729C31.2721 10.3723 31.2721 8.60214 32.4729 8.58144Z" fill="#F44A7E"/>
<path d="M22.6077 40.7851H24.6884V38.7045C24.6884 37.8971 25.3406 37.2346 26.1583 37.2346C26.9761 37.2346 27.6282 37.8867 27.6282 38.7045V40.7851H29.7089C30.5163 40.7851 31.1788 41.4373 31.1788 42.2551C31.1788 43.0728 30.5267 43.725 29.7089 43.725H27.6282V45.8057C27.6282 46.6131 26.9761 47.2756 26.1583 47.2756C25.3406 47.2756 24.6884 46.6234 24.6884 45.8057V43.725H22.6077C20.6823 43.6629 20.6823 40.8265 22.6077 40.7851Z" fill="#EAEFFE"/>
<path d="M22.0385 18.2084V20.2994H16.7592V18.2084C16.7592 17.225 17.3388 16.3762 18.1773 15.9932C18.8295 16.5729 19.9681 16.5729 20.6306 15.9932C21.4588 16.3762 22.0385 17.225 22.0385 18.2084Z" fill="#44569B"/>
<path d="M21.3345 14.4922C21.2724 17.0387 17.5355 17.0387 17.4734 14.4922C17.5355 11.9457 21.2724 11.9457 21.3345 14.4922Z" fill="#6A88C8"/>
<path d="M29.5231 3.44706H17.153L17.9915 0.807415C18.1571 0.279485 18.7264 -0.02071 19.2543 0.155267L29.5231 3.44706ZM47.3071 10.1963C45.9924 14.2955 42.8248 24.1709 41.5516 28.1562V7.29784L46.6653 8.93339C47.1932 9.10937 47.4727 9.66835 47.3071 10.1963ZM10.7764 10.3516V25.4959H8.10571C7.65024 23.084 6.11821 14.8338 5.64204 12.2873C5.53852 11.7594 5.88012 11.2625 6.3977 11.1693L10.7764 10.3516Z" fill="#C0C8F3"/>
<path d="M30.5164 13.1258H27.7836C27.0589 13.1258 27.0486 12.0078 27.7836 12.0078H30.5164C31.2513 12.0078 31.2513 13.1154 30.5164 13.1258ZM37.7728 16.5314H27.7836C27.0589 16.5314 27.0486 15.4135 27.7836 15.4135H37.7728C38.4974 15.4135 38.5078 16.5211 37.7728 16.5314ZM37.7728 19.8336H27.7836C27.0589 19.8336 27.0486 18.7156 27.7836 18.7156H37.7728C38.4974 18.7156 38.5078 19.8232 37.7728 19.8336ZM37.7728 23.3014H27.7836C27.0589 23.3014 27.0486 22.1834 27.7836 22.1834H37.7728C38.4974 22.1937 38.5078 23.3014 37.7728 23.3014ZM37.7728 26.7795H27.7836C27.0589 26.7795 27.0486 25.6615 27.7836 25.6615H37.7728C38.4974 25.6719 38.5078 26.7795 37.7728 26.7795Z" fill="#44569B"/>
</svg>
