<svg width="55" height="55" viewBox="0 0 55 55" fill="none" xmlns="http://www.w3.org/2000/svg">
<path d="M42 9.75004V50.1583C42.0003 50.4002 41.9532 50.6398 41.8616 50.8632C41.7699 51.0867 41.6354 51.2897 41.4658 51.4605C41.2967 51.6318 41.0957 51.7676 40.8744 51.8602C40.6531 51.9528 40.4159 52.0003 40.1764 52H8.88601C8.63826 52.0003 8.3929 51.9511 8.16402 51.8554C7.93515 51.7596 7.72728 51.619 7.55237 51.4418C7.37701 51.2652 7.23794 51.0553 7.14314 50.8242C7.04835 50.5931 6.9997 50.3454 7 50.0953V4.9047C7 4.37869 7.21108 3.90251 7.55237 3.55784C7.72732 3.38072 7.9352 3.24026 8.16407 3.14452C8.39294 3.04879 8.63828 2.99968 8.88601 3H35.3165C35.4576 3 35.5986 3.05466 35.7062 3.16301L41.8354 9.35296C41.937 9.45392 42 9.59442 42 9.74972V9.75004Z" fill="#C0C8F3"/>
<path d="M43 12.4745V51.2335C43.0003 51.4655 42.9546 51.6953 42.8655 51.9096C42.7765 52.124 42.6458 52.3187 42.481 52.4825C42.3167 52.6468 42.1215 52.7771 41.9066 52.8659C41.6916 52.9547 41.4612 53.0003 41.2285 53H10.8321C10.5915 53.0003 10.3531 52.9531 10.1308 52.8613C9.90843 52.7694 9.7065 52.6346 9.53659 52.4646C9.36624 52.2952 9.23114 52.0939 9.13905 51.8722C9.04697 51.6506 8.99971 51.413 9 51.173V7.82696C9 7.32242 9.20505 6.86568 9.53659 6.53507C9.70654 6.36518 9.90848 6.23045 10.1308 6.13863C10.3531 6.0468 10.5915 5.99969 10.8321 6H36.5075C36.6445 6 36.7815 6.05243 36.886 6.15636L42.8401 12.0937C42.9388 12.1905 43 12.3253 43 12.4742V12.4745Z" fill="white"/>
<path d="M43 12.4665V13H37.1496C36.9986 13.0002 36.849 12.9705 36.7095 12.9126C36.57 12.8548 36.4433 12.77 36.3367 12.663C36.2298 12.5564 36.145 12.4298 36.0873 12.2903C36.0295 12.1509 35.9998 12.0014 36 11.8504V6H36.5335C36.67 6 36.8064 6.05206 36.9105 6.15617L42.8407 12.0864C42.939 12.1831 43 12.3174 43 12.4665Z" fill="#C0C8F3"/>
<path d="M45 32.5814C45 32.2612 44.7434 32.0013 44.4265 32.0013C42.7353 32.0013 40.5114 32 38.5735 32C38.2566 32 38 32.2599 38 32.5801V39.0783C38 39.3044 38.0795 39.5037 38.2073 39.6611C38.293 39.7667 38.4007 39.8518 38.5227 39.9104C38.6448 39.969 38.7781 39.9996 38.9132 40C39.1108 40 39.3131 39.9344 39.4886 39.788L41.4993 38.1121L43.5111 39.788C43.6435 39.9001 43.805 39.9713 43.9763 39.993C44.1477 40.0146 44.3216 39.9859 44.4772 39.9102C44.5964 39.853 44.7053 39.7682 44.7927 39.6607C44.9272 39.4971 45.0006 39.2908 45 39.078V32.5814Z" fill="#74DBDD"/>
<path d="M32.5832 29.1301C32.7289 29.1266 32.8675 29.0655 32.9694 28.9599C33.0712 28.8543 33.1282 28.7126 33.1282 28.5651C33.1282 28.4175 33.0712 28.2758 32.9694 28.1702C32.8675 28.0646 32.7289 28.0035 32.5832 28H14.5584C14.4127 28.0035 14.2741 28.0646 14.1723 28.1702C14.0704 28.2758 14.0134 28.4175 14.0134 28.5651C14.0134 28.7126 14.0704 28.8543 14.1723 28.9599C14.2741 29.0655 14.4127 29.1266 14.5584 29.1301H32.5832ZM34.4704 34.754C34.6185 34.754 34.7605 34.6944 34.8653 34.5884C34.97 34.4824 35.0288 34.3386 35.0288 34.1887C35.0288 34.0388 34.97 33.8951 34.8653 33.7891C34.7605 33.6831 34.6185 33.6235 34.4704 33.6235H14.5584C14.4103 33.6235 14.2683 33.6831 14.1636 33.7891C14.0588 33.8951 14 34.0388 14 34.1887C14 34.3386 14.0588 34.4824 14.1636 34.5884C14.2683 34.6944 14.4103 34.754 14.5584 34.754H34.4704ZM35.911 40.3765C36.0591 40.3765 36.2011 40.3169 36.3059 40.2109C36.4106 40.1049 36.4694 39.9612 36.4694 39.8113C36.4694 39.6614 36.4106 39.5176 36.3059 39.4116C36.2011 39.3056 36.0591 39.246 35.911 39.246H14.5584C14.4103 39.246 14.2683 39.3056 14.1636 39.4116C14.0588 39.5176 14 39.6614 14 39.8113C14 39.9612 14.0588 40.1049 14.1636 40.2109C14.2683 40.3169 14.4103 40.3765 14.5584 40.3765H35.911ZM37.4416 46C37.5897 46 37.7317 45.9405 37.8364 45.8345C37.9412 45.7285 38 45.5847 38 45.4348C38 45.2849 37.9412 45.1411 37.8364 45.0351C37.7317 44.9291 37.5897 44.8696 37.4416 44.8696H14.5588C14.4107 44.8696 14.2686 44.9291 14.1639 45.0351C14.0592 45.1411 14.0003 45.2849 14.0003 45.4348C14.0003 45.5847 14.0592 45.7285 14.1639 45.8345C14.2686 45.9405 14.4107 46 14.5588 46H37.4416Z" fill="#4D4D4D"/>
<path d="M48 27.5002C48.001 28.3539 47.8333 29.1994 47.5066 29.9881C47.1798 30.7767 46.7004 31.4931 46.096 32.096C45.4931 32.7004 44.7768 33.1798 43.9881 33.5066C43.1994 33.8333 42.3539 34.001 41.5002 34C40.6464 34.0011 39.8008 33.8335 39.012 33.5068C38.2232 33.1801 37.5067 32.7008 36.9037 32.0963C36.2993 31.4934 35.8199 30.7769 35.4932 29.9882C35.1665 29.1994 34.9989 28.3539 35 27.5002C34.9989 26.6464 35.1665 25.8008 35.4932 25.012C35.8199 24.2232 36.2992 23.5067 36.9037 22.9037C37.5066 22.2993 38.2231 21.8199 39.0118 21.4932C39.8006 21.1665 40.6461 20.9989 41.4998 21C43.2948 21 44.9199 21.7277 46.0963 22.9037C47.2727 24.0798 48 25.7052 48 27.5002Z" fill="#5FC9CC"/>
<path d="M46 27.5004C46 28.7425 45.4964 29.8677 44.6821 30.6821C43.8674 31.4965 42.7425 32 41.5 32C40.2575 32 39.1323 31.4965 38.3179 30.6821C37.8994 30.2647 37.5676 29.7687 37.3414 29.2226C37.1152 28.6765 36.9992 28.0911 37 27.5C37 26.2578 37.5036 25.1326 38.3179 24.3183C39.1326 23.5035 40.2575 23 41.5 23C42.7425 23 43.8677 23.5039 44.6821 24.3183C45.1005 24.7357 45.4324 25.2316 45.6585 25.7776C45.8847 26.3237 46.0007 26.9093 46 27.5004Z" fill="#74DBDD"/>
<path fill-rule="evenodd" clip-rule="evenodd" d="M38.3136 24.2533C37.8965 24.6501 37.5658 25.1216 37.3404 25.6408C37.1149 26.1599 36.9993 26.7164 37 27.2783C37 28.4596 37.5019 29.5293 38.3136 30.3036C38.5987 30.5756 38.9208 30.8098 39.2713 31C38.6414 30.2444 38.2992 29.3072 38.3007 28.3419C38.3 27.78 38.4158 27.2235 38.6413 26.7043C38.8668 26.1852 39.1976 25.7137 39.6147 25.3169C40.0307 24.9191 40.5251 24.6037 41.0693 24.3886C41.6135 24.1735 42.1969 24.0631 42.786 24.0636C43.5909 24.0636 44.3468 24.2663 45 24.6205C44.8927 24.4918 44.7782 24.3693 44.6566 24.2533C44.2405 23.8555 43.7462 23.54 43.202 23.3249C42.6578 23.1098 42.0744 22.9994 41.4853 23C40.8961 22.9993 40.3126 23.1097 39.7683 23.3247C39.224 23.5398 38.7296 23.8554 38.3136 24.2533Z" fill="#009FA2"/>
<path d="M33 16.0002C33 18.4855 31.9926 20.7357 30.364 22.3644C28.7354 23.993 26.4852 25 23.9998 25C22.8177 25.0015 21.647 24.7694 20.5549 24.3171C19.4627 23.8647 18.4708 23.201 17.636 22.364C16.0074 20.7354 15 18.4852 15 15.9998C15 13.5145 16.0074 11.2646 17.636 9.63598C19.2646 8.00736 21.5145 7 23.9998 7C26.4852 7 28.7351 8.00736 30.364 9.63598C31.993 11.2646 33 13.5148 33 16.0002Z" fill="#74DBDD"/>
<path d="M26.153 13.8471H28.1832C28.4033 13.8471 28.6027 13.9341 28.7496 14.0752L28.7529 14.0785L28.7545 14.0801L28.7609 14.0859L28.7596 14.0872C28.9078 14.236 29 14.44 29 14.6633V17.3364C29 17.5329 28.9291 17.714 28.8112 17.8561C28.796 17.8761 28.779 17.8954 28.7609 17.9141C28.6851 17.9901 28.5951 18.05 28.4959 18.091C28.3968 18.1321 28.2905 18.1531 28.1832 18.1529H26.1533V20.1835C26.1533 20.382 26.0815 20.564 25.9622 20.7061C25.9477 20.7252 25.9316 20.7435 25.9139 20.7609C25.8382 20.8368 25.7482 20.897 25.6492 20.938C25.5502 20.979 25.444 21.0001 25.3368 21H22.6638C22.4383 21 22.2343 20.9085 22.0864 20.7609C21.9385 20.6133 21.8473 20.4091 21.8473 20.1835V18.1529H19.8168C19.7099 18.1529 19.6041 18.1317 19.5054 18.0907C19.4067 18.0497 19.3171 17.9896 19.2417 17.9138C19.1653 17.8382 19.1047 17.7483 19.0632 17.6492C19.0217 17.5501 19.0002 17.4438 19 17.3364V14.6636C19 14.4393 19.0925 14.2351 19.2417 14.0862C19.3171 14.0104 19.4067 13.9503 19.5054 13.9093C19.6041 13.8683 19.7099 13.8471 19.8168 13.8471H21.8473V11.8165C21.8473 11.6199 21.9182 11.4389 22.0362 11.2968C22.0513 11.2768 22.0684 11.2575 22.0864 11.2388C22.1622 11.1629 22.2522 11.1027 22.3513 11.0618C22.4504 11.0208 22.5566 10.9998 22.6638 11H25.3368C25.5569 11 25.7567 11.087 25.9033 11.2288L25.9055 11.2307L25.9081 11.2333L25.9145 11.2391L25.9139 11.2413C25.9897 11.3167 26.0499 11.4063 26.091 11.505C26.132 11.6037 26.1532 11.7096 26.1533 11.8165L26.153 13.8471Z" fill="white"/>
</svg>
