<svg width="53" height="53" viewBox="0 0 53 53" fill="none" xmlns="http://www.w3.org/2000/svg">
<path fill-rule="evenodd" clip-rule="evenodd" d="M32.4973 43.4856H20.3905C20.6545 45.7767 20.4146 48.4592 19.9199 50.703H33.0371C32.5107 48.4592 32.2334 45.7767 32.4973 43.4856Z" fill="#656565"/>
<path fill-rule="evenodd" clip-rule="evenodd" d="M15.0669 51.9648C14.37 51.9648 13.8051 51.3999 13.8051 50.703C13.8051 50.0061 14.37 49.4411 15.0669 49.4411H37.89C38.5869 49.4411 39.1519 50.0061 39.1519 50.703C39.1519 51.3999 38.5869 51.9648 37.89 51.9648H15.0669Z" fill="#515151"/>
<path fill-rule="evenodd" clip-rule="evenodd" d="M51.334 39.92C51.334 41.8892 49.7377 43.4856 47.7683 43.4856H5.23186C3.26247 43.4856 1.66626 41.8892 1.66626 39.92V10.872C1.66626 9.20398 3.02677 7.84348 4.69482 7.84348H48.3055C49.9736 7.84348 51.3341 9.20398 51.3341 10.872L51.334 39.92Z" fill="#6A676B"/>
<path fill-rule="evenodd" clip-rule="evenodd" d="M49.1131 34.1722V10.8721C49.1131 10.4298 48.7477 10.0644 48.3054 10.0644H4.69471C4.2525 10.0644 3.88708 10.4299 3.88708 10.8721V34.1722H49.1131Z" fill="#BBF7F8"/>
<path fill-rule="evenodd" clip-rule="evenodd" d="M5.23184 43.4856H47.7683C49.7377 43.4856 51.334 41.8893 51.334 39.92V36.3931H1.66614V39.92C1.66614 41.8893 3.26245 43.4856 5.23184 43.4856Z" fill="#E6E6E6"/>
<path fill-rule="evenodd" clip-rule="evenodd" d="M15.2474 1.03516H33.225C33.3932 1.03516 33.5379 1.09509 33.6568 1.21403L38.1845 5.7417C38.3034 5.86064 38.3633 6.00536 38.3633 6.17346V30.4695C38.363 30.6314 38.2986 30.7865 38.1841 30.901C38.0697 31.0154 37.9145 31.0798 37.7527 31.0802H15.2474C15.0855 31.0798 14.9304 31.0154 14.8159 30.901C14.7015 30.7865 14.637 30.6314 14.6367 30.4695V1.64579C14.637 1.48394 14.7015 1.32879 14.8159 1.21434C14.9304 1.09989 15.0855 1.03546 15.2474 1.03516Z" fill="#F2F2F2"/>
<path fill-rule="evenodd" clip-rule="evenodd" d="M33.4781 1.08804C33.5448 1.11896 33.6053 1.1616 33.6569 1.21392L38.1846 5.74159C38.237 5.79316 38.2797 5.85375 38.3106 5.92046H33.7834C33.7025 5.92033 33.6249 5.88811 33.5677 5.83087C33.5104 5.77363 33.4782 5.69604 33.4781 5.61509V1.08804ZM32.6103 18.6453C33.0589 18.6453 33.4229 19.0092 33.4229 19.4578C33.4229 19.9065 33.059 20.2704 32.6103 20.2704H20.3899C20.176 20.268 19.9716 20.1813 19.8212 20.0292C19.6708 19.8771 19.5864 19.6718 19.5864 19.4579C19.5864 19.2439 19.6708 19.0387 19.8212 18.8865C19.9716 18.7344 20.176 18.6477 20.3899 18.6453H32.6103ZM32.6103 26.0789C33.0589 26.0789 33.4229 26.4427 33.4229 26.8914C33.4229 27.34 33.059 27.704 32.6103 27.704H20.3899C20.176 27.7016 19.9716 27.6149 19.8212 27.4628C19.6708 27.3107 19.5864 27.1054 19.5864 26.8914C19.5864 26.6775 19.6708 26.4722 19.8212 26.3201C19.9716 26.168 20.176 26.0813 20.3899 26.0789H32.6103ZM32.6103 22.3621C32.8236 22.3655 33.027 22.4526 33.1766 22.6046C33.3262 22.7566 33.41 22.9614 33.41 23.1747C33.41 23.388 33.3262 23.5927 33.1766 23.7447C33.027 23.8967 32.8236 23.9838 32.6103 23.9873H20.3899C20.1744 23.9873 19.9677 23.9016 19.8153 23.7492C19.6629 23.5969 19.5773 23.3902 19.5773 23.1747C19.5773 22.9591 19.6629 22.7525 19.8153 22.6001C19.9677 22.4477 20.1744 22.3621 20.3899 22.3621H32.6103Z" fill="#CCCCCC"/>
<path fill-rule="evenodd" clip-rule="evenodd" d="M26.5001 16C27.3537 16 28.1989 15.8319 28.9876 15.5052C29.7762 15.1786 30.4927 14.6998 31.0963 14.0962C31.6999 13.4926 32.1787 12.7761 32.5053 11.9874C32.832 11.1988 33.0001 10.3536 33.0001 9.5C33.0001 8.64641 32.832 7.80117 32.5053 7.01256C32.1787 6.22394 31.6999 5.50739 31.0963 4.90381C30.4927 4.30022 29.7762 3.82144 28.9876 3.49478C28.1989 3.16813 27.3537 3 26.5001 3C24.7762 3 23.1229 3.68482 21.9039 4.90381C20.6849 6.12279 20.0001 7.77609 20.0001 9.5C20.0001 11.2239 20.6849 12.8772 21.9039 14.0962C23.1229 15.3152 24.7762 16 26.5001 16ZM26.3326 12.1289L29.9437 7.79556L28.8343 6.87111L25.7288 10.5971L24.1218 8.98939L23.1006 10.0106L25.2673 12.1773L25.8263 12.7363L26.3326 12.1289Z" fill="#3FC0C3"/>
</svg>
