<svg width="54" height="54" viewBox="0 0 54 54" fill="none" xmlns="http://www.w3.org/2000/svg">
<g clip-path="url(#clip0_2160_1876)">
<path d="M13.6477 42.873H10.1355C9.16523 42.873 8.38477 42.0926 8.38477 41.1117V11.8019H11.8969V41.1117C11.8969 42.082 12.6773 42.873 13.6477 42.873Z" fill="#D5DCF8"/>
<path d="M52.6078 11.8019V36.218C51.6269 34.9207 49.4543 35.7012 49.4965 37.3254L49.4226 35.1422C49.4226 35.1211 49.4121 35.0894 49.4121 35.0683C49.2328 32.8008 45.9738 32.843 45.9 35.1105C45.8894 34.9945 45.8472 33.1383 45.8156 33.075C45.5203 30.8707 42.3668 31.0183 42.314 33.2437L42.1347 27.5273C42.1242 27.5168 42.1242 27.5168 42.1347 27.5062C41.9871 25.2176 38.6015 25.3336 38.6226 27.6328C38.7176 30.7336 38.9496 38.243 39.0445 41.2594C38.8652 41.0273 35.6379 36.7348 35.6168 36.6926C34.1719 34.8152 31.4086 36.8086 32.7586 38.7492L35.8594 42.873H13.6476C12.6773 42.873 11.8969 42.0926 11.8969 41.1117V11.8019H52.6078Z" fill="#EAEFFE"/>
<path d="M16.1894 24.9434H13.3839C12.3714 24.9434 11.5593 24.1313 11.5593 23.1188V16.5164C11.5593 15.5145 12.3714 14.6918 13.3839 14.6918H16.1894C15.1769 14.6918 14.3648 15.5145 14.3648 16.5164V23.1188C14.3648 24.1313 15.1875 24.9434 16.1894 24.9434ZM16.1894 38.5383H13.3839C12.3714 38.5383 11.5593 37.7156 11.5593 36.7137V30.1113C11.5593 29.0988 12.3714 28.2867 13.3839 28.2867H16.1894C15.1769 28.2867 14.3648 29.0988 14.3648 30.1113V36.7137C14.3648 37.7156 15.1875 38.5383 16.1894 38.5383Z" fill="#67CDDF"/>
<path d="M21.811 16.5269V23.1293C21.811 24.1418 20.9989 24.9539 19.9864 24.9539H16.1895C15.177 24.9539 14.3649 24.1418 14.3649 23.1293V16.5269C14.3649 15.525 15.1875 14.7023 16.1895 14.7023H19.9864C20.9989 14.7023 21.811 15.525 21.811 16.5269ZM21.811 30.1113V36.7137C21.811 37.7156 20.9989 38.5383 19.9864 38.5383H16.1895C15.177 38.5383 14.3649 37.7156 14.3649 36.7137V30.1113C14.3649 29.0988 15.1875 28.2867 16.1895 28.2867H19.9864C20.9989 28.2973 21.811 29.1094 21.811 30.1113Z" fill="#78E7DC"/>
<path d="M33.6867 7.21406V1.66641C33.6867 0.801563 32.9801 0.105469 32.1258 0.105469H2.29922C1.43437 0.105469 0.738281 0.801563 0.738281 1.66641V52.323C0.738281 53.1879 1.43437 53.884 2.29922 53.884H32.1152C32.9801 53.884 33.6762 53.1879 33.6762 52.323V42.8625H31.7777V48.8742C31.7777 49.2539 31.4719 49.5598 31.0816 49.5598H3.32227C2.94258 49.5598 2.62617 49.2539 2.62617 48.8742V1.99336H11.1586C11.6965 2.59453 12.1816 3.72305 13.1309 3.68086H21.273C21.6949 3.68086 22.0957 3.49102 22.3488 3.14297L23.2453 1.99336H31.7777V7.21406H33.6867Z" fill="#74DBDD"/>
<path d="M13.6477 7.21405C12.6773 7.21405 11.8969 7.99452 11.8969 8.97538V11.8125H8.38477V8.97538C8.38477 8.00507 9.16523 7.21405 10.1355 7.21405H13.6477Z" fill="#67CDDF"/>
<path d="M52.6078 8.97538V11.8125H11.8969V8.97538C11.8969 8.00507 12.6773 7.21405 13.6476 7.21405H50.857C51.8168 7.21405 52.6078 7.99452 52.6078 8.97538Z" fill="#78E7DC"/>
<path d="M6.23325 49.5703H3.32231C2.94263 49.5703 2.62622 49.2644 2.62622 48.8848V1.99335H5.53716V48.8742C5.53716 49.2539 5.84302 49.5703 6.23325 49.5703Z" fill="#F8F2F2"/>
<path d="M8.38477 8.97538V41.1117C8.38477 42.082 9.16523 42.873 10.1355 42.873H31.7777V48.8848C31.7777 49.2644 31.4719 49.5703 31.0816 49.5703H6.2332C5.85352 49.5703 5.53711 49.2644 5.53711 48.8848V1.99335H11.1691C11.707 2.59452 12.1922 3.72303 13.1414 3.68085H21.2836C21.7055 3.68085 22.1063 3.491 22.3594 3.14296L23.2559 1.99335H31.7883V7.21405H10.1355C9.16523 7.21405 8.38477 7.99452 8.38477 8.97538Z" fill="white"/>
<path d="M53.2617 45.2566C53.3039 46.1531 52.9875 46.9969 52.5867 47.7773C52.0172 49.0219 50.7727 49.8551 49.391 49.8973L41.6496 50.1398C40.2363 50.182 38.9285 49.4121 38.2852 48.1465L37.6418 45.2355L32.8008 38.7914C32.168 38.0004 32.3262 36.8402 33.1594 36.2496C33.9399 35.6906 35.0473 35.9121 35.6168 36.6926L38.9813 41.175L39.0551 41.2699C39.0234 40.1836 38.6543 28.3078 38.6332 27.6434C38.6227 25.3336 42.0188 25.2281 42.1453 27.5379C42.1664 28.1707 42.3035 32.7375 42.3246 33.2543C42.3984 30.9234 45.7313 30.9234 45.8473 33.2648L45.8789 34.2457C45.8789 34.2562 45.9106 35.1211 45.9106 35.1316C45.9106 34.8152 45.9949 34.5094 46.1531 34.2562V34.2457C47.0391 32.7059 49.391 33.3809 49.4227 35.1527C49.4332 35.6168 49.4754 36.893 49.4965 37.3359C49.5914 35.0051 52.882 34.9945 53.0192 37.3465C53.0086 37.3359 53.2617 45.2566 53.2617 45.2566Z" fill="#F6C9AF"/>
<path d="M50.0133 40.8164C50.0554 41.5758 48.9375 41.6707 48.8636 40.9113C48.8531 40.8691 48.8636 40.8164 48.8742 40.7848L49.4754 36.6504L49.4965 37.3254C49.4965 37.0512 49.5492 36.8086 49.6652 36.5871L50.0133 40.8164ZM46.3851 40.8164C46.3957 41.5758 45.2777 41.618 45.2355 40.8586C45.2461 40.6687 45.8683 34.4039 45.8789 34.2351L45.9105 35.1105C45.9105 34.7941 45.9949 34.4883 46.1531 34.2351L46.3851 40.8164ZM42.7675 40.8164C42.757 41.6074 41.5863 41.5758 41.6179 40.7848L42.2929 32.3367L42.3246 33.2332C42.3246 32.8746 42.43 32.5371 42.6199 32.2629L42.7675 40.8164Z" fill="#F3AE83"/>
<path d="M49.1485 9.51328C49.1379 10.4203 47.7985 10.4203 47.7879 9.51328C47.809 8.61679 49.1379 8.61679 49.1485 9.51328ZM45.3832 9.51328C45.3727 10.4203 44.0332 10.4203 44.0227 9.51328C44.0332 8.61679 45.3727 8.61679 45.3832 9.51328ZM41.618 9.51328C41.6074 10.4203 40.268 10.4203 40.2574 9.51328C40.268 8.61679 41.6074 8.61679 41.618 9.51328Z" fill="#44569B"/>
<path d="M19.132 17.55C19.6277 18.0773 19.596 18.9211 19.0582 19.4062L17.571 20.7773L15.7781 18.8473L17.2652 17.4762C17.8136 16.991 18.6468 17.0226 19.132 17.55Z" fill="#F44A7E"/>
<path d="M15.7992 18.8578L17.5922 20.7879L16.1051 22.159C15.5672 22.6547 14.734 22.6231 14.2488 22.0852C13.7531 21.5473 13.7953 20.7246 14.3227 20.2289C14.3121 20.2395 15.7992 18.8578 15.7992 18.8578Z" fill="#F8F2F2"/>
<path d="M19.132 31.1449C19.6277 31.6723 19.596 32.516 19.0582 33.0012L17.571 34.3723L15.7781 32.4422L17.2652 31.0711C17.8136 30.5754 18.6468 30.607 19.132 31.1449Z" fill="#F44A7E"/>
<path d="M15.7992 32.4527L17.5922 34.3828L16.1051 35.7539C15.5672 36.2496 14.734 36.218 14.2488 35.6801C13.7531 35.1422 13.7953 34.3195 14.3227 33.8238C14.3121 33.8238 15.7992 32.4527 15.7992 32.4527Z" fill="#F8F2F2"/>
<path d="M34.0032 16.8434H24.9645C24.2157 16.8434 24.2157 15.7043 24.9645 15.6938H34.0032C34.752 15.7043 34.752 16.8434 34.0032 16.8434ZM34.0032 30.3223H24.9645C24.2157 30.3223 24.2157 29.1832 24.9645 29.1727H34.0032C34.752 29.1832 34.752 30.3223 34.0032 30.3223ZM47.7879 20.3977H24.9645C24.2157 20.3871 24.2051 19.2691 24.9645 19.2481H47.7879C48.5368 19.2586 48.5473 20.3871 47.7879 20.3977ZM47.7879 23.952H24.9645C24.2157 23.9414 24.2051 22.8234 24.9645 22.8023H47.7879C48.5368 22.8129 48.5473 23.9309 47.7879 23.952ZM36.8614 33.866H24.9645C24.2157 33.866 24.2157 32.727 24.9645 32.7164H36.8719C37.6102 32.7164 37.6208 33.8555 36.8614 33.866ZM29.4786 37.9477H24.954C24.2051 37.9477 24.2051 36.8086 24.954 36.7981H29.4786C30.2274 36.8086 30.2274 37.9477 29.4786 37.9477Z" fill="#44569B"/>
</g>
<defs>
<clipPath id="clip0_2160_1876">
<rect width="54" height="54" fill="white"/>
</clipPath>
</defs>
</svg>
