<svg width="271" height="71" viewBox="0 0 271 71" fill="none" xmlns="http://www.w3.org/2000/svg">
<path fill-rule="evenodd" clip-rule="evenodd" d="M150.803 68.1524C150.803 68.2526 150.749 68.2982 150.64 68.2982H149.844C149.735 68.2982 149.681 68.2526 149.681 68.1524L149.464 61.7168V61.3896C149.464 61.2793 149.473 61.1703 149.482 61.0613L149.292 61.7992L147.637 66.1581C147.6 66.2493 147.537 66.295 147.429 66.295H147.02C146.921 66.295 146.849 66.2493 146.812 66.1581L145.229 61.7992C145.181 61.6791 145.147 61.5535 145.129 61.4251C145.102 61.2895 145.084 61.1716 145.066 61.0613C145.053 61.1578 145.046 61.2553 145.048 61.3529V61.7168L144.84 68.1524C144.84 68.2526 144.785 68.2982 144.677 68.2982H143.88C143.772 68.2982 143.718 68.2526 143.718 68.1524L144.233 59.8784C144.233 59.7769 144.288 59.7326 144.396 59.7326H145.283C145.355 59.7326 145.411 59.7782 145.437 59.8784L147.048 64.1739C147.076 64.2474 147.111 64.3653 147.148 64.5289C147.184 64.6937 147.211 64.8293 147.219 64.9473C147.252 64.7921 147.289 64.6378 147.329 64.4845C147.355 64.3831 147.392 64.2842 147.429 64.184L149.057 59.8872C149.094 59.7871 149.148 59.7414 149.211 59.7414H150.097C150.207 59.7414 150.261 59.7871 150.261 59.8872L150.803 68.1524ZM157.717 59.8505L157.482 60.4882C157.463 60.5605 157.4 60.5972 157.301 60.5972H154.243V63.3827H156.93C157.038 63.3827 157.093 63.4284 157.093 63.5285V64.1016C157.093 64.2017 157.038 64.2474 156.93 64.2474H154.243V67.4145H157.527C157.636 67.4145 157.69 67.4601 157.69 67.5603V68.1334C157.69 68.2348 157.636 68.2792 157.527 68.2792H153.292C153.184 68.2792 153.128 68.2335 153.128 68.1334V59.8593C153.128 59.7604 153.184 59.7148 153.292 59.7148H157.582C157.708 59.7326 157.753 59.7693 157.717 59.8505ZM166.141 70.4459C166.141 70.5461 166.087 70.5918 165.979 70.5918H165.182C165.074 70.5918 165.02 70.5461 165.02 70.4459V68.3071H159.799V70.4459C159.799 70.5461 159.745 70.5918 159.635 70.5918H158.84C158.73 70.5918 158.676 70.5461 158.676 70.4459V67.6516C158.676 67.5603 158.686 67.4969 158.703 67.469C158.721 67.4424 158.803 67.4234 158.948 67.4234H159.409C159.755 66.7582 160.016 66.052 160.187 65.3213C160.338 64.6664 160.432 63.9995 160.468 63.3282C160.505 62.5992 160.531 61.7434 160.531 60.7697V59.9785C160.531 59.8517 160.55 59.7693 160.585 59.7503C160.656 59.7272 160.73 59.7182 160.803 59.7237H164.902C164.973 59.7192 165.043 59.7282 165.11 59.7503C165.156 59.7693 165.173 59.8416 165.173 59.9696V67.4145H165.853C165.996 67.4145 166.078 67.4234 166.096 67.4513C166.115 67.4779 166.124 67.5426 166.124 67.6414V70.4459H166.141ZM164.06 67.4234V60.5972H161.599V62.0172C161.599 64.184 161.274 65.9767 160.631 67.4234H164.06ZM173.834 68.1524C173.834 68.2526 173.78 68.2982 173.671 68.2982H172.875C172.766 68.2982 172.712 68.2526 172.712 68.1524V62.0451C172.712 61.8993 172.721 61.7345 172.748 61.5443C172.766 61.3529 172.802 61.1513 172.847 60.9345C172.784 61.0892 172.721 61.2514 172.667 61.4163C172.606 61.5721 172.536 61.7244 172.459 61.8727L169.11 68.179C169.056 68.2614 168.984 68.3058 168.893 68.3058H168.042C167.934 68.3058 167.88 68.2614 167.88 68.1613V59.8872C167.88 59.7871 167.934 59.7414 168.042 59.7414H168.839C168.947 59.7414 169.001 59.7871 169.001 59.8872V65.7029C169.001 65.8487 168.984 66.0135 168.965 66.2037C168.938 66.3951 168.911 66.5967 168.865 66.8135C168.92 66.6589 168.984 66.4966 169.047 66.3317C169.11 66.1669 169.183 66.0135 169.255 65.8753L172.459 59.8416C172.48 59.8052 172.511 59.7751 172.547 59.7544C172.584 59.7336 172.625 59.7231 172.667 59.7237H173.68C173.789 59.7237 173.843 59.7693 173.843 59.8695V68.1524H173.834ZM183.01 70.4459C183.01 70.5461 182.955 70.5918 182.846 70.5918H182.051C181.941 70.5918 181.887 70.5461 181.887 70.4459V68.3071H176.593C176.485 68.3071 176.431 68.2614 176.431 68.1613V59.8872C176.431 59.7871 176.485 59.7414 176.593 59.7414H177.39C177.498 59.7414 177.552 59.7871 177.552 59.8872V67.4335H180.928V59.8872C180.928 59.7871 180.982 59.7414 181.092 59.7414H181.887C181.996 59.7414 182.051 59.7871 182.051 59.8872V67.4335H182.729C182.874 67.4335 182.955 67.4424 182.974 67.469C182.991 67.4969 183 67.5603 183 67.6605V70.4459H183.01ZM190.702 68.1511C190.702 68.2525 190.647 68.2982 190.539 68.2982H189.742C189.634 68.2982 189.58 68.2526 189.58 68.1524V62.0451C189.58 61.8993 189.589 61.7345 189.615 61.5443C189.643 61.3529 189.671 61.1513 189.715 60.9345C189.652 61.0892 189.589 61.2514 189.534 61.4163C189.478 61.5756 189.406 61.7286 189.318 61.8727L185.969 68.179C185.914 68.2614 185.843 68.3058 185.752 68.3058H184.901C184.793 68.3058 184.738 68.2614 184.738 68.1613V59.8872C184.738 59.7871 184.793 59.7414 184.901 59.7414H185.698C185.806 59.7414 185.86 59.7871 185.86 59.8872V65.7029C185.86 65.8487 185.843 66.0135 185.824 66.2037C185.806 66.3951 185.769 66.5967 185.724 66.8135C185.778 66.6589 185.843 66.4966 185.906 66.3317C185.977 66.1669 186.05 66.0135 186.114 65.8753L189.308 59.8416C189.329 59.8054 189.359 59.7754 189.396 59.7547C189.432 59.734 189.474 59.7233 189.516 59.7237H190.53C190.639 59.7237 190.693 59.7693 190.693 59.8695V68.1524H190.702V68.1511ZM199.053 68.1511C199.053 68.2525 198.999 68.2982 198.891 68.2982H198.094C197.986 68.2982 197.932 68.2526 197.932 68.1524V64.2842H194.421V68.1511C194.421 68.2525 194.367 68.2982 194.257 68.2982H193.462C193.354 68.2982 193.298 68.2526 193.298 68.1524V59.8784C193.298 59.7769 193.354 59.7326 193.462 59.7326H194.257C194.367 59.7326 194.421 59.7782 194.421 59.8784V63.4093H197.932V59.8784C197.932 59.7769 197.986 59.7326 198.094 59.7326H198.891C198.999 59.7326 199.053 59.7782 199.053 59.8784V68.1524V68.1511ZM206.393 67.5147C206.393 67.5603 206.376 67.5971 206.339 67.6414C206.301 67.6832 206.258 67.7202 206.212 67.7517C205.949 67.98 205.642 68.1524 205.289 68.2792C204.936 68.406 204.565 68.4706 204.176 68.4706C203.299 68.4706 202.61 68.198 202.095 67.6338C201.398 66.8782 201.054 65.6484 201.054 63.9292C201.054 62.8185 201.199 61.9259 201.48 61.2527C201.95 60.1142 202.801 59.55 204.031 59.55C204.402 59.55 204.773 59.6134 205.153 59.7326C205.525 59.8505 205.85 60.033 206.112 60.2777C206.157 60.3158 206.194 60.3513 206.239 60.3969C206.273 60.4381 206.292 60.4894 206.294 60.5427L206.248 60.6239L205.878 61.0701C205.841 61.0803 205.813 61.098 205.813 61.1069L205.787 61.1335C205.759 61.1335 205.678 61.079 205.542 60.97C205.072 60.5884 204.592 60.3969 204.104 60.3969C203.308 60.3969 202.773 60.8153 202.502 61.6521C202.357 62.0984 202.284 62.7729 202.284 63.6553C202.284 64.7938 202.384 65.6585 202.583 66.2582C202.89 67.1875 203.442 67.6516 204.221 67.6516C204.466 67.6516 204.728 67.5882 205.018 67.4513C205.229 67.3415 205.431 67.217 205.624 67.0785C205.677 67.04 205.731 67.0036 205.787 66.9695C205.832 66.9505 205.859 66.9314 205.878 66.9238L205.986 66.9872L206.33 67.3879C206.375 67.4145 206.393 67.4601 206.393 67.5147ZM214.058 67.7429L213.85 68.3438C213.814 68.4427 213.75 68.4884 213.669 68.4884C213.582 68.4721 213.494 68.4602 213.406 68.4529L213.198 68.425C212.933 68.3973 212.675 68.3199 212.438 68.1968C212.294 68.1224 212.164 68.0209 212.058 67.8976C211.939 67.7538 211.853 67.586 211.804 67.4056C211.741 67.1964 211.659 66.9416 211.56 66.6145L211.216 65.3492C211.098 64.8927 210.945 64.5935 210.754 64.4477C210.609 64.3298 210.384 64.274 210.076 64.274H209.143V68.1435C209.143 68.2437 209.089 68.2881 208.981 68.2881H208.184C208.076 68.2881 208.022 68.2437 208.022 68.1435V59.8682C208.022 59.7668 208.076 59.7224 208.184 59.7224H208.981C209.089 59.7224 209.143 59.7681 209.143 59.8682V63.4081H210.076C210.356 63.4081 210.565 63.3637 210.691 63.2635C210.89 63.1076 211.053 62.8071 211.18 62.3342L211.443 61.415C211.514 61.157 211.596 60.902 211.687 60.6505C211.768 60.4415 211.888 60.2501 212.04 60.0863C212.175 59.9405 212.348 59.8314 212.538 59.7592C212.734 59.6848 212.937 59.6296 213.144 59.5944L213.298 59.5677C213.433 59.5398 213.524 59.5855 213.56 59.6945L213.75 60.2587C213.777 60.3677 213.714 60.4324 213.56 60.4679L213.352 60.5059C213.241 60.5268 213.132 60.5569 213.026 60.596C212.926 60.6411 212.841 60.7136 212.781 60.8052C212.706 60.9133 212.642 61.0293 212.592 61.1513C212.535 61.3227 212.484 61.4961 212.438 61.6711L212.23 62.371C212.121 62.7526 212.021 63.0264 211.932 63.1811C211.77 63.472 211.519 63.702 211.216 63.8366C211.469 63.9187 211.699 64.0618 211.886 64.2536C212.072 64.4454 212.209 64.68 212.285 64.9371L212.791 66.6398C212.845 66.8123 212.891 66.9492 212.936 67.0494C212.971 67.1427 213.027 67.2268 213.099 67.2953C213.162 67.3587 213.225 67.4044 213.307 67.4322C213.402 67.4714 213.503 67.4958 213.606 67.5045L213.868 67.5413C214.039 67.559 214.103 67.6338 214.058 67.7429ZM221.632 68.1524C221.632 68.2526 221.578 68.2982 221.47 68.2982H220.673C220.556 68.2982 220.51 68.2526 220.51 68.1524V62.0451C220.51 61.8993 220.519 61.7345 220.546 61.5443C220.565 61.3529 220.6 61.1513 220.645 60.9345C220.582 61.0892 220.519 61.2514 220.465 61.4163C220.401 61.5811 220.338 61.7345 220.257 61.8727L216.908 68.179C216.854 68.2614 216.782 68.3058 216.691 68.3058H215.84C215.732 68.3058 215.678 68.2614 215.678 68.1613V59.8872C215.678 59.7871 215.732 59.7414 215.84 59.7414H216.637C216.745 59.7414 216.8 59.7871 216.8 59.8872V65.7029C216.8 65.8487 216.782 66.0135 216.763 66.2037C216.737 66.3951 216.709 66.5967 216.663 66.8135C216.718 66.6589 216.782 66.4966 216.845 66.3317C216.917 66.1669 216.981 66.0135 217.062 65.8753L220.257 59.8416C220.278 59.8052 220.309 59.7751 220.345 59.7544C220.382 59.7336 220.423 59.7231 220.465 59.7237H221.478C221.587 59.7237 221.641 59.7693 221.641 59.8695V68.1524H221.632ZM228.979 57.7851L228.944 57.9753C228.899 58.1211 228.836 58.2669 228.763 58.3937C228.592 58.6899 228.323 58.9155 228.003 59.0302C227.749 59.1297 227.478 59.1796 227.206 59.1772C226.917 59.1772 226.664 59.1405 226.465 59.0593C226.288 58.9919 226.123 58.8964 225.976 58.7766C225.846 58.6678 225.739 58.5347 225.659 58.3848C225.58 58.2577 225.519 58.1198 225.478 57.9753L225.432 57.7851C225.432 57.6837 225.478 57.6304 225.577 57.6114L226.075 57.5392L226.166 57.5201C226.238 57.5201 226.283 57.5582 226.301 57.6393L226.346 57.8295C226.401 58.0755 226.51 58.2479 226.664 58.3582C226.818 58.4672 226.998 58.523 227.206 58.523C227.397 58.5257 227.584 58.4681 227.74 58.3582C227.903 58.2492 228.011 58.0755 228.066 57.8295L228.111 57.6393C228.13 57.548 228.202 57.5125 228.347 57.5379L228.836 57.6114C228.935 57.6304 228.979 57.685 228.979 57.7851ZM230.183 68.1524C230.183 68.2526 230.129 68.2982 230.021 68.2982H229.224C229.116 68.2982 229.061 68.2526 229.061 68.1524V62.0451C229.061 61.8993 229.079 61.7345 229.098 61.5443C229.124 61.3529 229.152 61.1513 229.197 60.9345C229.131 61.0928 229.071 61.2535 229.016 61.4163C228.953 61.5811 228.89 61.7345 228.808 61.8727L225.46 68.179C225.438 68.2174 225.406 68.2494 225.368 68.2716C225.33 68.2938 225.286 68.3056 225.242 68.3058H224.393C224.283 68.3058 224.229 68.2614 224.229 68.1613V59.8872C224.229 59.7871 224.283 59.7414 224.393 59.7414H225.188C225.296 59.7414 225.352 59.7871 225.352 59.8872V65.7029C225.352 65.8487 225.342 66.0135 225.315 66.2037C225.296 66.3951 225.261 66.5967 225.216 66.8135C225.27 66.6589 225.333 66.4966 225.396 66.3317C225.469 66.1669 225.541 66.0135 225.605 65.8753L228.808 59.8416C228.829 59.8054 228.86 59.7754 228.896 59.7547C228.933 59.734 228.974 59.7233 229.016 59.7237H230.029C230.138 59.7237 230.192 59.7693 230.192 59.8695V68.1524H230.183ZM242.545 70.4459C242.545 70.5461 242.49 70.5918 242.382 70.5918H241.585C241.477 70.5918 241.423 70.5461 241.423 70.4459V68.3071H236.129C236.02 68.3071 235.966 68.2614 235.966 68.1613V59.8872C235.966 59.7871 236.02 59.7414 236.129 59.7414H236.925C237.034 59.7414 237.088 59.7871 237.088 59.8872V67.4335H240.464V59.8872C240.464 59.7871 240.518 59.7414 240.626 59.7414H241.423C241.531 59.7414 241.585 59.7871 241.585 59.8872V67.4335H242.265C242.41 67.4335 242.49 67.4424 242.509 67.469C242.527 67.4969 242.536 67.5603 242.536 67.6605V70.4459H242.545ZM248.871 59.8505L248.635 60.4882C248.617 60.5605 248.553 60.5972 248.454 60.5972H245.396V63.3827H248.092C248.2 63.3827 248.254 63.4284 248.254 63.5285V64.1016C248.254 64.2017 248.2 64.2474 248.092 64.2474H245.396V67.4145H248.68C248.789 67.4145 248.843 67.4601 248.843 67.5603V68.1334C248.843 68.2348 248.789 68.2792 248.68 68.2792H244.445C244.337 68.2792 244.283 68.2335 244.283 68.1334V59.8593C244.283 59.7604 244.337 59.7148 244.445 59.7148H248.735C248.861 59.7326 248.906 59.7693 248.871 59.8505ZM256.634 68.1524C256.634 68.2526 256.58 68.2982 256.471 68.2982H255.675C255.566 68.2982 255.512 68.2526 255.512 68.1524V64.2842H252.002V68.1511C252.002 68.2525 251.948 68.2982 251.838 68.2982H251.043C250.933 68.2982 250.879 68.2526 250.879 68.1524V59.8784C250.879 59.7769 250.933 59.7326 251.043 59.7326H251.838C251.948 59.7326 252.002 59.7782 252.002 59.8784V63.4093H255.512V59.8784C255.512 59.7769 255.566 59.7326 255.675 59.7326H256.471C256.58 59.7326 256.634 59.7782 256.634 59.8784V68.1524ZM263.928 59.9151L263.712 60.4692C263.675 60.5605 263.602 60.6061 263.493 60.6061H261.566V68.1524C261.566 68.2526 261.512 68.2982 261.404 68.2982H260.607C260.499 68.2982 260.444 68.2526 260.444 68.1524V60.6061H258.409C258.299 60.6061 258.245 60.5605 258.245 60.4603V59.8872C258.245 59.7871 258.299 59.7414 258.409 59.7414H263.792C263.883 59.7414 263.937 59.7604 263.946 59.8048C263.955 59.8327 263.946 59.8784 263.928 59.9151ZM270.19 62.0071C270.19 62.8819 269.928 63.5463 269.403 64.0014C268.878 64.4566 268.155 64.6848 267.241 64.6848H266.254V68.1524C266.254 68.2526 266.2 68.2982 266.091 68.2982H265.295C265.186 68.2982 265.132 68.2526 265.132 68.1524V59.8784C265.132 59.7769 265.186 59.7326 265.295 59.7326H267.412C268.19 59.7326 268.779 59.8327 269.159 60.0242C269.846 60.3601 270.19 61.0245 270.19 62.0071ZM269.069 62.0717C269.069 61.4442 268.887 61.0346 268.534 60.8166C268.3 60.6695 267.891 60.6061 267.304 60.6061H266.254V63.81H267.141C267.674 63.81 268.073 63.7288 268.344 63.5818C268.824 63.3193 269.069 62.8084 269.069 62.0717Z" fill="#00979A"/>
<path fill-rule="evenodd" clip-rule="evenodd" d="M138.985 17.2682C137.184 16.5582 135.555 16.1385 133.555 16.1385C125.79 16.1385 119.438 22.6198 119.438 30.3652C119.438 38.1118 125.79 44.593 133.555 44.593C141.319 44.593 147.681 38.1118 147.681 30.3652C147.681 26.6795 146.26 23.1472 143.654 20.4353C142.75 19.4882 142.333 18.5234 142.56 17.3126C141.464 17.8501 140.215 17.7601 138.985 17.2682ZM133.555 8.3374C136.378 8.3374 139.782 8.98401 142.315 10.1859C143.645 10.8135 144.912 12.5061 144.632 14.3192C146.288 13.4355 148.523 14.1543 149.817 15.6555C153.111 19.4058 155.4 23.8585 155.4 30.3753C155.4 42.4263 145.636 52.4842 133.565 52.4842C121.492 52.4842 111.647 42.4352 111.647 30.374C111.638 18.3142 121.483 8.3374 133.555 8.3374ZM213.623 17.2669C211.822 16.5569 210.194 16.1385 208.193 16.1385C200.429 16.1385 194.077 22.6198 194.077 30.3652C194.077 38.1118 200.429 44.593 208.193 44.593C215.958 44.593 222.319 38.1118 222.319 30.3652C222.319 26.6795 220.899 23.1472 218.292 20.4353C217.388 19.4882 216.971 18.5234 217.198 17.3126C216.103 17.8501 214.862 17.7588 213.623 17.2669ZM208.193 8.3374C211.017 8.3374 214.42 8.98401 216.945 10.1859C218.275 10.8135 219.541 12.5061 219.262 14.3192C220.917 13.4355 223.153 14.1543 224.446 15.6555C227.741 19.4058 230.03 23.8585 230.03 30.3753C230.03 42.4263 220.266 52.4842 208.193 52.4842C196.122 52.4842 186.276 42.4352 186.276 30.374C186.276 18.3142 196.122 8.3374 208.193 8.3374ZM104.181 51.4826H100.715C98.9325 51.4826 98.1459 50.3085 98.1459 48.5881V17.859C98.1459 17.6866 98.1548 17.0767 98.064 16.9309C97.9102 16.8295 97.2409 16.8397 97.0594 16.8397H90.1546C89.3138 16.8397 89.3592 17.149 89.2949 17.9769C89.0681 20.8258 88.6987 24.6395 88.2462 27.4618C87.1332 34.3526 85.5665 43.8919 82.4178 50.1361C80.12 54.7055 76.1105 60.0127 69.7502 60.085C69.251 60.0939 68.7443 60.0748 68.2464 60.0748C65.9297 60.0748 64.0566 58.0818 64.0566 55.7603C64.0563 55.2069 64.1645 54.6588 64.3749 54.1474C64.5854 53.636 64.894 53.1713 65.2831 52.78C65.6723 52.3887 66.1343 52.0784 66.6428 51.8669C67.1512 51.6554 67.6962 51.5467 68.2464 51.5472C68.8351 51.5472 69.3153 51.5827 69.9115 51.456C72.7438 50.836 73.9299 48.3066 75.5042 44.6197C79.6852 34.771 81.1687 17.2593 81.441 12.5974C81.5948 10.0313 83.3771 9.02078 85.7303 9.02078H103.15C105.702 9.02078 106.824 10.7045 106.824 13.154V48.7618C106.815 50.6813 106.073 51.4826 104.181 51.4826ZM255.92 8.35642C258.643 8.35642 261.296 8.80144 263.82 9.77642C265.683 10.4319 267.168 11.6326 267.168 13.7258C267.168 15.8114 265.747 17.6853 263.232 17.6853C262.571 17.6853 261.982 17.4951 261.376 17.2403C261.145 17.1822 260.918 17.1059 260.698 17.0121C259.166 16.439 257.545 16.1462 255.911 16.1474C248.146 16.1474 241.993 22.6287 241.993 30.374C241.993 38.1206 248.146 44.5385 255.911 44.6019C259.313 44.6285 262.706 43.2276 264.154 41.9622C264.812 41.4983 265.596 41.2503 266.399 41.2522C266.913 41.2517 267.421 41.3531 267.896 41.5505C268.37 41.7479 268.801 42.0375 269.164 42.4027C269.527 42.7679 269.815 43.2015 270.011 43.6787C270.208 44.1559 270.308 44.6674 270.308 45.1839C270.308 46.3313 269.783 47.3329 269.032 48.0873C268.019 49.1079 266.272 49.989 265.023 50.5545C262.209 51.8376 259.033 52.4753 255.92 52.4753C243.848 52.4753 234.202 42.4174 234.202 30.3652C234.202 18.3142 243.848 8.35642 255.92 8.35642ZM175.002 16.5569C175.01 16.8485 175.037 17.1858 175.037 17.3937V48.8239C175.037 50.964 174.395 51.4737 172.431 51.4737C171.21 51.4737 170.006 51.5916 168.784 51.4737C166.848 51.2835 166.44 50.9184 166.44 48.834V17.4038C166.44 17.1858 166.477 16.8587 166.486 16.5671H157.952C156.134 16.5671 155.365 15.819 155.365 13.8995V11.7517C155.365 9.58371 156.061 9.0119 158.043 9.0119H183.254C185.155 9.0119 186.222 9.64837 186.222 11.7505V13.49C186.222 15.8837 185.317 16.5759 183.028 16.5759H175.544C175.363 16.5643 175.182 16.5579 175.002 16.5569Z" fill="#98A2A2"/>
<path fill-rule="evenodd" clip-rule="evenodd" d="M32.7716 0C35.5736 0.01775 37.8412 2.33286 37.8412 5.17159C37.8412 5.34655 37.8324 5.52025 37.8147 5.68634C37.7139 13.1908 37.298 20.5951 36.3085 28.1363C36.1724 29.1468 36.9349 29.1556 37.153 28.2555C39.4559 20.6128 40.6621 12.8878 41.5243 4.95986V4.95098C41.5243 4.52879 41.5873 4.12434 41.6957 3.73891L41.7058 3.70088C41.9086 2.88991 42.3865 2.1756 43.057 1.68118C43.7964 1.0713 44.7226 0.737167 45.6788 0.735357C46.3052 0.736579 46.9232 0.880084 47.4867 1.15516C48.0503 1.43024 48.5448 1.82979 48.9333 2.32398C49.677 3.14175 50.0677 4.28916 49.7677 5.74086C48.2438 13.0348 46.5851 20.1716 43.2473 27.3274C42.7658 28.3569 43.4641 28.5407 44.0994 27.5391C48.4619 20.7143 50.9374 13.7423 53.0613 6.62329C53.2014 5.83955 53.6101 5.12999 54.2165 4.61805C54.8229 4.10611 55.5885 3.82418 56.3801 3.82132C58.2393 3.82132 59.7531 5.35543 59.7531 7.2382V7.27623C59.7457 7.81313 59.6154 8.34109 59.3725 8.81921C57.2045 14.6881 55.0554 20.4201 51.0736 26.2345C50.2669 27.1524 51.1189 27.3921 51.9181 26.5096C56.7709 21.3938 59.1368 15.6707 61.8304 9.88421C62.3472 9.20464 63.2913 9.28705 63.7349 10.224C64.7962 12.4833 64.1975 15.8546 62.9547 19.0141C59.5262 27.7407 49.4148 40.7933 40.9798 47.9681C37.85 50.6319 35.3115 51.9733 32.7716 51.9821C30.2318 51.9644 27.6919 50.6319 24.5635 47.9681C16.1284 40.7933 6.01699 27.7407 2.58852 19.0141C1.34571 15.8546 0.746984 12.4846 1.80704 10.224C2.25198 9.28579 3.20489 9.20464 3.71286 9.88421C6.39765 15.6707 8.77363 21.3938 13.6252 26.5096C14.4319 27.3921 15.2764 27.1537 14.4697 26.2345C10.4866 20.4201 8.33877 14.6881 6.17076 8.81795C6.01049 8.51308 5.89985 8.18433 5.84304 7.84423C5.80748 7.6566 5.78975 7.46598 5.7901 7.27496V7.23946C5.7901 5.3567 7.30392 3.82259 9.16311 3.82259C10.8143 3.82259 12.1933 5.03466 12.4832 6.62455C14.6058 13.7436 17.0814 20.7155 21.4438 27.5404C22.0791 28.542 22.7774 28.348 22.2959 27.3287C18.9582 20.1729 17.3082 13.0361 15.7755 5.74213C15.4755 4.29043 15.8663 3.14302 16.6011 2.32525C16.9897 1.83065 17.4843 1.43076 18.0481 1.15546C18.6119 0.880149 19.2302 0.73654 19.8569 0.735357C20.8131 0.737167 21.7393 1.0713 22.4787 1.68118C23.1039 2.14014 23.5929 2.80196 23.8198 3.70214L23.8387 3.73891C23.9559 4.12434 24.0101 4.52879 24.0101 4.95098V4.95986C24.8723 12.8878 26.0773 20.6128 28.3814 28.2555C28.5995 29.1645 29.3608 29.1556 29.2259 28.1363C28.2365 20.5951 27.8193 13.1908 27.7197 5.68634C27.7016 5.51537 27.6927 5.34353 27.6932 5.17159C27.702 2.33286 29.9696 0.01775 32.7716 0Z" fill="#009FA2"/>
</svg>
