<svg width="531" height="438" viewBox="0 0 531 438" fill="none" xmlns="http://www.w3.org/2000/svg">
<path fill-rule="evenodd" clip-rule="evenodd" d="M265.501 0C289.11 0.149561 308.215 19.6566 308.215 43.5757C308.215 45.0499 308.141 46.5135 307.992 47.9129C307.142 111.145 303.638 173.533 295.301 237.076C294.154 245.59 300.579 245.665 302.416 238.08C321.819 173.683 331.982 108.592 339.247 41.7916V41.7168C339.247 38.1594 339.778 34.7516 340.691 31.504L340.776 31.1835C342.485 24.3503 346.511 18.3315 352.16 14.1656C358.39 9.02673 366.194 6.21135 374.25 6.1961C379.528 6.20639 384.735 7.41556 389.483 9.73336C394.231 12.0512 398.397 15.4177 401.671 19.5818C407.937 26.4723 411.229 36.1403 408.701 48.3723C395.862 109.831 381.886 169.965 353.764 230.26C349.707 238.934 355.591 240.483 360.943 232.044C397.699 174.538 418.557 115.792 436.451 55.8076C437.631 49.2038 441.075 43.2251 446.184 38.9115C451.293 34.5979 457.744 32.2225 464.414 32.1983C480.078 32.1983 492.833 45.1247 492.833 60.9888V61.3093C492.77 65.8332 491.672 70.2818 489.625 74.3104C471.359 123.762 453.252 172.059 419.704 221.051C412.907 228.786 420.086 230.805 426.819 223.369C467.706 180.264 487.64 132.041 510.334 83.2841C514.689 77.5581 522.643 78.2524 526.381 86.1471C535.323 105.184 530.279 133.59 519.807 160.212C490.921 233.742 405.728 343.723 334.659 404.178C308.289 426.623 286.901 437.925 265.501 438C244.102 437.85 222.703 426.623 196.344 404.178C125.275 343.723 40.0817 233.742 11.1954 160.212C0.724078 133.59 -4.32041 105.195 4.61099 86.1471C8.35984 78.2418 16.3885 77.5581 20.6684 83.2841C43.289 132.041 63.3076 180.264 104.184 223.369C110.981 230.805 118.096 228.796 111.299 221.051C77.7402 172.059 59.6437 123.762 41.3774 74.2998C40.027 71.7309 39.0948 68.961 38.6162 66.0953C38.3165 64.5143 38.1672 62.9081 38.1701 61.2986V60.9995C38.1701 45.1354 50.9247 32.209 66.5892 32.209C80.5014 32.209 92.1196 42.4219 94.5622 55.8183C112.446 115.803 133.304 174.548 170.06 232.055C175.412 240.494 181.296 238.86 177.239 230.27C149.117 169.976 135.215 109.842 122.302 48.383C119.774 36.151 123.066 26.483 129.258 19.5925C132.531 15.425 136.699 12.0556 141.449 9.73585C146.199 7.41611 151.409 6.20606 156.689 6.1961C164.745 6.21135 172.549 9.02673 178.779 14.1656C184.046 18.0328 188.167 23.6093 190.078 31.1941L190.238 31.504C191.225 34.7516 191.682 38.1594 191.682 41.7168V41.7916C198.946 108.592 209.099 173.683 228.512 238.08C230.349 245.739 236.764 245.665 235.627 237.076C227.291 173.533 223.776 111.145 222.937 47.9129C222.784 46.4723 222.709 45.0244 222.714 43.5757C222.788 19.6566 241.893 0.149561 265.501 0Z" fill="#009FA2" fill-opacity="0.03"/>
</svg>
