<svg width="14" height="14" viewBox="0 0 14 14" fill="none" xmlns="http://www.w3.org/2000/svg">
<path d="M12.2606 0.298443C12.6585 -0.0994809 13.3036 -0.0994808 13.7016 0.298443C14.0995 0.696366 14.0995 1.34153 13.7016 1.73945L1.73962 13.7016C1.3417 14.0995 0.696551 14.0995 0.298633 13.7016C-0.0992849 13.3036 -0.0992849 12.6585 0.298633 12.2605L12.2606 0.298443Z" fill="#687E95"/>
<path d="M1.73943 0.298443C1.34151 -0.0994809 0.696356 -0.0994808 0.298438 0.298443C-0.0994795 0.696366 -0.0994795 1.34153 0.298438 1.73945L12.2604 13.7016C12.6583 14.0995 13.3034 14.0995 13.7014 13.7016C14.0993 13.3036 14.0993 12.6585 13.7014 12.2605L1.73943 0.298443Z" fill="#687E95"/>
</svg>
