<svg width="51" height="51" viewBox="0 0 51 51" fill="none" xmlns="http://www.w3.org/2000/svg">
<path d="M38.184 12.7279C45.2218 19.7657 45.2218 31.146 38.184 38.1838C31.1462 45.2216 19.7659 45.2216 12.7281 38.1838C5.69034 31.146 5.69034 19.7657 12.7281 12.7279C19.7659 5.69013 31.1462 5.69013 38.184 12.7279ZM14.2255 36.6864C20.4398 42.9006 30.4724 42.9006 36.6866 36.6864C42.9008 30.4721 42.9008 20.4395 36.6866 14.2253C30.4723 8.0111 20.4397 8.01111 14.2255 14.2253C8.01131 20.4395 8.01131 30.4721 14.2255 36.6864Z" fill="#009FA2"/>
<path d="M31.1128 19.799L31.1128 29.6985ZM31.1128 19.799L21.2133 19.799ZM31.1128 19.799L19.092 31.8198Z" fill="white"/>
<path d="M31.1128 19.799L31.1128 29.6985M31.1128 19.799L21.2133 19.799M31.1128 19.799L19.092 31.8198" stroke="#009FA2" stroke-width="2" stroke-linecap="round" stroke-linejoin="round"/>
</svg>
