<svg width="29" height="24" viewBox="0 0 29 24" fill="none" xmlns="http://www.w3.org/2000/svg">
<path fill-rule="evenodd" clip-rule="evenodd" d="M14.5001 0C15.7894 0.00819512 16.8328 1.07707 16.8328 2.38771C16.8328 2.46849 16.8288 2.54868 16.8207 2.62537C16.7743 6.09015 16.5829 9.50868 16.1276 12.9904C16.0649 13.457 16.4158 13.4611 16.5162 13.0455C17.5758 9.51688 18.1309 5.95024 18.5276 2.28995V2.28585C18.5276 2.09093 18.5566 1.9042 18.6065 1.72624L18.6111 1.70868C18.7044 1.33426 18.9243 1.00447 19.2329 0.776195C19.5731 0.494615 19.9993 0.340348 20.4393 0.339512C20.7275 0.340076 21.0119 0.406332 21.2712 0.533335C21.5305 0.660337 21.758 0.844807 21.9368 1.07298C22.279 1.45054 22.4588 1.98029 22.3208 2.65054C21.6196 6.01815 20.8563 9.31317 19.3204 12.617C19.0989 13.0923 19.4202 13.1772 19.7125 12.7147C21.7199 9.56371 22.859 6.34478 23.8363 3.05795C23.9008 2.6961 24.0889 2.3685 24.3679 2.13214C24.6469 1.89578 24.9992 1.76561 25.3635 1.76429C26.219 1.76429 26.9155 2.47259 26.9155 3.34185V3.35941C26.9121 3.6073 26.8522 3.85106 26.7404 4.07181C25.7428 6.78146 24.7539 9.4279 22.9217 12.1124C22.5505 12.5362 22.9425 12.6468 23.3103 12.2394C25.5433 9.87746 26.6319 7.23512 27.8714 4.56351C28.1092 4.24976 28.5436 4.28781 28.7477 4.72039C29.2361 5.76351 28.9606 7.32 28.3887 8.77873C26.8111 12.8078 22.1584 18.8341 18.277 22.1467C16.8369 23.3766 15.6688 23.9959 14.5001 24C13.3314 23.9918 12.1627 23.3766 10.7231 22.1467C6.84177 18.8341 2.18902 12.8078 0.611424 8.77873C0.0395448 7.32 -0.235955 5.7641 0.251824 4.72039C0.456564 4.28722 0.895043 4.24976 1.12878 4.56351C2.36418 7.23512 3.45748 9.87746 5.68989 12.2394C6.06109 12.6468 6.44969 12.5368 6.07849 12.1124C4.2457 9.4279 3.25738 6.78146 2.25978 4.07122C2.18603 3.93046 2.13512 3.77868 2.10898 3.62166C2.09262 3.53503 2.08446 3.44702 2.08462 3.35883V3.34244C2.08462 2.47317 2.7812 1.76488 3.6367 1.76488C4.3965 1.76488 5.03102 2.32449 5.16442 3.05854C6.14113 6.34537 7.28025 9.56429 9.28763 12.7153C9.57995 13.1778 9.90127 13.0882 9.67971 12.6176C8.14387 9.31376 7.38465 6.01873 6.67937 2.65112C6.54133 1.98088 6.72113 1.45112 7.05927 1.07356C7.23806 0.845207 7.46567 0.66058 7.72509 0.533471C7.98451 0.406362 8.26903 0.340058 8.55741 0.339512C8.9974 0.340348 9.42358 0.494615 9.76381 0.776195C10.0515 0.988098 10.2765 1.29366 10.3809 1.70927L10.3896 1.72624C10.4436 1.9042 10.4685 2.09093 10.4685 2.28585V2.28995C10.8652 5.95024 11.4197 9.51688 12.4799 13.0455C12.5803 13.4652 12.9306 13.4611 12.8685 12.9904C12.4132 9.50868 12.2213 6.09015 12.1754 2.62537C12.1671 2.54643 12.163 2.46709 12.1633 2.38771C12.1673 1.07707 13.2107 0.00819512 14.5001 0Z" fill="#63D8DA"/>
</svg>
