<svg width="66" height="53" viewBox="0 0 66 53" fill="none" xmlns="http://www.w3.org/2000/svg">
<path fill-rule="evenodd" clip-rule="evenodd" d="M0.042878 26.6835H0.064317C1.05051 11.8209 13.4851 0.0638106 28.6961 0V11.0392C19.6328 11.103 12.1827 17.9255 11.2287 26.6835H26.5683V53H0.042878V30.1877C0.0160793 29.6613 0 29.1295 0 28.5925C0 28.066 0.0160793 27.5449 0.042878 27.0238V26.6835ZM37.3414 26.6835H37.3628C38.3544 11.8209 50.7837 0.0638106 66 0V11.0392C56.9313 11.103 49.4866 17.9255 48.5326 26.6835H63.8668V53H37.3414V30.1877C37.3146 29.6613 37.2985 29.1295 37.2985 28.5925C37.2985 28.066 37.3146 27.5449 37.3414 27.0238V26.6835Z" fill="white"/>
</svg>
