<svg width="14" height="14" viewBox="0 0 14 14" fill="none" xmlns="http://www.w3.org/2000/svg">
<g clip-path="url(#clip0_5417_2530)">
<path d="M6.34667 7.51335C6.34667 7.68724 6.41575 7.85401 6.53871 7.97697C6.66167 8.09994 6.82844 8.16901 7.00233 8.16901C7.17623 8.16901 7.343 8.09994 7.46596 7.97697C7.58892 7.85401 7.658 7.68724 7.658 7.51335V4.15335C7.658 3.97945 7.58892 3.81268 7.46596 3.68972C7.343 3.56676 7.17623 3.49768 7.00233 3.49768C6.82844 3.49768 6.66167 3.56676 6.53871 3.68972C6.41575 3.81268 6.34667 3.97945 6.34667 4.15335V7.51335ZM7 9.62501C6.76794 9.62501 6.54538 9.7172 6.38128 9.8813C6.21719 10.0454 6.125 10.2679 6.125 10.5C6.125 10.7321 6.21719 10.9546 6.38128 11.1187C6.54538 11.2828 6.76794 11.375 7 11.375C7.23206 11.375 7.45462 11.2828 7.61872 11.1187C7.78281 10.9546 7.875 10.7321 7.875 10.5C7.875 10.2679 7.78281 10.0454 7.61872 9.8813C7.45462 9.7172 7.23206 9.62501 7 9.62501Z" fill="#009FA2"/>
<path fill-rule="evenodd" clip-rule="evenodd" d="M0.284334 10.185L4.671 1.44668C5.63583 -0.47832 8.35767 -0.47832 9.31433 1.44668L13.701 10.185C14.5795 11.935 13.3195 14 11.3793 14H2.59433C0.646001 14 -0.602333 11.935 0.272667 10.185H0.284334ZM1.32733 10.7088L5.714 1.97051C5.83228 1.73117 6.01515 1.52967 6.24192 1.38879C6.4687 1.2479 6.73036 1.17324 6.99733 1.17324C7.26431 1.17324 7.52597 1.2479 7.75275 1.38879C7.97952 1.52967 8.16238 1.73117 8.28067 1.97051L12.6673 10.7088C13.1632 11.6958 12.4433 12.8322 11.384 12.8322H2.599C1.54083 12.8322 0.825667 11.6935 1.31567 10.7088H1.32733Z" fill="#009FA2"/>
</g>
<defs>
<clipPath id="clip0_5417_2530">
<rect width="14" height="14" fill="white"/>
</clipPath>
</defs>
</svg>
