<svg width="121" height="106" viewBox="0 0 121 106" fill="none" xmlns="http://www.w3.org/2000/svg">
<path d="M84.9635 0C78.3141 0 71.8193 1.86914 66.1755 5.40605C65.0931 5.99121 56.8875 10.7351 58.1611 19.3774C58.6262 22.5338 60.2963 24.7896 61.9116 26.9714C64.191 30.0501 66.3664 32.9931 65.7733 38.9465C65.7411 38.9295 65.7111 38.9096 65.6787 38.8931C63.9913 38.0326 62.07 37.8814 60.2684 38.4665C58.6193 39.0023 57.2533 40.0977 56.3746 41.5731C55.7666 40.9846 55.0774 40.4864 54.328 40.0934C53.0036 39.3979 51.5575 39.0571 50.1024 39.0788C49.993 37.8939 50.0547 37.1152 50.1249 36.2426C50.2135 35.1387 50.3137 33.8876 50.0474 31.9192C49.5293 28.0949 47.3393 24.7539 43.8801 22.5114C39.7082 19.8064 34.1008 19.0128 29.2468 20.4393C20.4194 23.0334 15.3161 32.3297 17.8705 41.1621C18.6244 43.7683 20.0096 46.1725 21.8763 48.1142C22.8562 49.1335 23.3863 50.4792 23.3312 51.8059C23.1745 55.5761 23.6954 59.3205 24.8794 62.9359C27.415 70.6771 32.9255 77.0777 40.3959 80.9575C45.0714 83.3858 50.1128 84.619 55.1417 84.6187C58.1471 84.6187 61.1485 84.1782 64.0632 83.2894C65.6763 82.7976 67.248 82.1787 68.7633 81.4384C72.8797 79.4247 76.1427 75.9872 77.9509 71.7583C78.9517 69.4162 79.48 66.8995 79.5057 64.3527C80.6228 64.5581 81.8038 64.4985 82.9519 64.1284C86.6353 62.9413 88.68 58.9192 87.5109 55.1632L85.698 49.3398C84.4932 45.4706 81.44 42.5229 77.5312 41.4542C75.0355 40.7726 72.4517 40.9303 70.1269 41.8389C71.8403 32.4408 68.4717 27.887 65.7113 24.1586C64.3264 22.2881 63.1306 20.6725 62.838 18.6878C61.9998 12.9993 68.1864 9.68788 68.4426 9.55365C68.5036 9.52221 68.5634 9.48818 68.6215 9.45155C73.5275 6.36012 79.1788 4.72613 84.9649 4.72613C102.23 4.72613 116.275 19.1602 116.275 36.9018C116.275 56.3709 100.989 72.7308 88.1655 83.0268C76.1578 92.6674 63.9911 98.9488 60.4995 100.668C57.1427 99.015 45.7771 93.1514 34.2496 84.1472C33.2209 83.344 31.736 83.5264 30.9323 84.5549C30.1288 85.5837 30.3114 87.0688 31.3399 87.8723C45.459 98.9009 58.9417 105.175 59.5089 105.437C59.8193 105.58 60.1571 105.654 60.4991 105.654C60.841 105.654 61.1789 105.58 61.4893 105.437C62.0936 105.158 76.4542 98.4736 91.0464 86.7745C99.6713 79.8602 106.557 72.6299 111.512 65.2855C117.808 55.9542 121.001 46.4046 121.001 36.9022C121.001 16.5542 104.834 0 84.9635 0ZM46.9895 47.2949C48.0603 46.3538 49.2164 45.3362 49.8448 43.8253C50.6285 43.7516 51.4176 43.9033 52.1309 44.2779C52.9505 44.7065 53.5999 45.4011 53.9726 46.2477L52.9868 48.1818L46.1501 48.0464C46.4263 47.792 46.7062 47.5414 46.9895 47.2949ZM67.7591 50.4229L68.5463 48.8783C68.864 48.4076 69.2375 47.9772 69.6585 47.5962C71.462 45.9646 73.9385 45.373 76.2838 46.014C78.6294 46.6551 80.4612 48.424 81.1841 50.7455L82.997 56.5685C83.3995 57.8612 82.7283 59.2345 81.501 59.6301C80.3357 60.0066 79.0744 59.424 78.6015 58.305L77.2199 53.8674C76.8319 52.6213 75.507 51.9253 74.2608 52.3136C73.0146 52.7016 72.3189 54.0262 72.7069 55.2727L74.1247 59.8265C76.2651 66.7337 73.1364 74.0378 66.6855 77.193C65.3953 77.8231 64.0572 78.3499 62.6837 78.7686C49.0586 82.9235 33.803 74.9987 29.3704 61.465C28.3629 58.3892 27.9198 55.2055 28.0528 52.0026C28.1613 49.3944 27.1519 46.7837 25.2833 44.8394C23.9265 43.4276 22.9597 41.7487 22.4105 39.849C20.577 33.5095 24.2413 26.8365 30.579 24.974C31.758 24.6275 32.9964 24.4583 34.2359 24.4583C36.7488 24.4583 39.2672 25.1538 41.3086 26.4772C42.9249 27.5251 44.9403 29.4297 45.3633 32.5533C45.5616 34.0169 45.4928 34.8729 45.4132 35.8643C45.3167 37.0667 45.2073 38.4294 45.5417 40.7355C45.7341 42.0625 45.4734 42.3343 43.8688 43.7445C43.4275 44.1323 42.9275 44.5716 42.4099 45.0821L42.3922 45.0996L42.3633 45.1277C41.0706 46.3907 40.6639 48.2889 41.3268 49.9637C41.6476 50.7759 42.2018 51.4748 42.9195 51.9723C43.6372 52.4697 44.4862 52.7433 45.3593 52.7586L53.4709 52.9193C54.9255 52.9507 56.2763 52.1354 56.9333 50.8462L60.3533 44.1365C60.4934 43.8596 60.6872 43.6132 60.9232 43.4116C61.1593 43.21 61.433 43.0573 61.7285 42.9622C62.0235 42.8655 62.3349 42.8283 62.6445 42.8528C62.954 42.8772 63.2557 42.9629 63.5319 43.1047C63.8089 43.2449 64.0554 43.4386 64.257 43.6746C64.4586 43.9107 64.6114 44.1844 64.7065 44.4799C64.8031 44.775 64.8404 45.0863 64.8159 45.3958C64.7915 45.7053 64.706 46.0069 64.5642 46.2831L64.4437 46.5195C64.051 47.14 63.7168 47.7956 63.4454 48.4779L61.1445 52.9925C60.1105 55.0212 58.2546 56.5779 56.0528 57.2637C55.1873 57.5344 54.2838 57.6633 53.3773 57.6454L43.1565 57.4398C42.8461 57.4332 42.5374 57.4879 42.2482 57.6008C41.959 57.7136 41.6949 57.8824 41.471 58.0975C41.2471 58.3126 41.0679 58.5697 40.9435 58.8541C40.8191 59.1386 40.752 59.4447 40.7461 59.7551C40.7199 61.0601 41.7564 62.1392 43.0615 62.1655L53.2823 62.3711C54.6971 62.3987 56.1071 62.1981 57.458 61.7767C59.8392 61.0351 61.961 59.632 63.5723 57.7787L65.2377 63.1276C65.3299 63.4239 65.4796 63.6992 65.6783 63.9377C65.8769 64.1762 66.1206 64.3732 66.3954 64.5175C66.6702 64.6618 66.9707 64.7506 67.2798 64.7787C67.5889 64.8068 67.9005 64.7738 68.1968 64.6814C69.443 64.2934 70.1387 62.9685 69.7507 61.7223L67.6457 54.9617C67.1763 53.4527 67.2366 51.8577 67.7591 50.4229Z" fill="white"/>
<path d="M27.6561 78.6353L27.5882 78.5746C26.6172 77.7025 25.1228 77.7829 24.2508 78.7539C23.3787 79.725 23.4591 81.2193 24.4302 82.0914L24.498 82.1521C24.9311 82.5422 25.4934 82.7577 26.0762 82.7571C26.7237 82.7571 27.3687 82.4925 27.8354 81.9728C28.7075 81.0012 28.6271 79.5074 27.6561 78.6353ZM54.8988 5.45355C49.238 1.88568 42.7157 0 36.037 0C16.1662 0 0 16.5542 0 36.9022C0 49.7525 5.77922 62.5519 17.1772 74.9453C17.3984 75.1863 17.6673 75.3786 17.9669 75.5101C18.2665 75.6415 18.5901 75.7091 18.9173 75.7086C19.5099 75.7092 20.0809 75.4865 20.5165 75.0847C21.4772 74.2013 21.5398 72.7063 20.6562 71.7453C10.0859 60.2524 4.7266 48.5292 4.7266 36.9022C4.7266 19.1605 18.7726 4.7266 36.037 4.7266C41.8224 4.7266 47.4735 6.36083 52.3788 9.45226C53.4827 10.1483 54.9423 9.81739 55.6383 8.71302C56.334 7.60889 56.0029 6.14955 54.8988 5.45355ZM84.964 11.2337C83.6587 11.2337 82.6005 12.2918 82.6005 13.597C82.6005 14.9023 83.6585 15.9603 84.9638 15.9603H84.9768C86.282 15.9603 87.3337 14.9023 87.3337 13.597C87.3337 12.2918 86.2692 11.2337 84.964 11.2337ZM105.489 22.1415C102.566 17.8928 98.518 14.6856 93.7829 12.8658C92.5646 12.3976 91.1974 13.0057 90.729 14.224C90.2609 15.4423 90.8689 16.8095 92.0872 17.2779C100.003 20.3199 105.322 28.2065 105.322 36.9025C105.322 38.2077 106.38 39.2658 107.685 39.2658C108.991 39.2658 110.049 38.2077 110.049 36.9025C110.049 31.582 108.472 26.4777 105.489 22.1415Z" fill="white"/>
</svg>
