<svg width="24" height="24" viewBox="0 0 24 24" fill="none" xmlns="http://www.w3.org/2000/svg">
<path d="M6.1875 7.125C6.1875 5.71604 6.74721 4.36478 7.7435 3.3685C8.73978 2.37221 10.091 1.8125 11.5 1.8125C12.909 1.8125 14.2602 2.37221 15.2565 3.3685C16.2528 4.36478 16.8125 5.71604 16.8125 7.125V10.3125C16.8125 11.7215 16.2528 13.0727 15.2565 14.069C14.2602 15.0653 12.909 15.625 11.5 15.625C10.091 15.625 8.73978 15.0653 7.7435 14.069C6.74721 13.0727 6.1875 11.7215 6.1875 10.3125V7.125Z" stroke="#009FA2" stroke-width="1.5"/>
<path d="M12.5625 7.125H16.8125M12.5625 10.3125H16.8125M20 9.25V10.3125C20 12.5668 19.1045 14.7288 17.5104 16.3229C15.9163 17.917 13.7543 18.8125 11.5 18.8125M11.5 18.8125C9.24566 18.8125 7.08365 17.917 5.48959 16.3229C3.89553 14.7288 3 12.5668 3 10.3125V9.25M11.5 18.8125V22" stroke="#009FA2" stroke-width="1.5" stroke-linecap="round"/>
</svg>
