<svg width="24" height="24" viewBox="0 0 24 24" fill="none" xmlns="http://www.w3.org/2000/svg">
<path fill-rule="evenodd" clip-rule="evenodd" d="M12 1.24998C10.172 1.24998 8.661 1.41098 7.498 1.60698L7.364 1.62998C6.354 1.79898 5.514 1.93998 4.857 2.74798C4.437 3.26698 4.3 3.82798 4.269 4.45298L3.777 4.61698C3.314 4.77098 2.907 4.90698 2.586 5.05698C2.238 5.21898 1.919 5.42698 1.675 5.76598C1.431 6.10498 1.334 6.47298 1.29 6.85398C1.25 7.20698 1.25 7.63398 1.25 8.12298V8.26798C1.25 8.66998 1.25 9.02498 1.28 9.32198C1.312 9.64298 1.383 9.95598 1.56 10.258C1.739 10.561 1.977 10.775 2.243 10.959C2.488 11.129 2.798 11.302 3.15 11.497L5.79 12.964C6.33 14.025 7.071 14.971 8.09 15.654C8.977 16.25 10.042 16.624 11.303 16.723C11.2691 16.8114 11.2511 16.9052 11.25 17V18.75H9.82C9.41542 18.75 9.02334 18.8902 8.71047 19.1467C8.39761 19.4032 8.1833 19.7602 8.104 20.157L7.885 21.25H6C5.80109 21.25 5.61032 21.329 5.46967 21.4697C5.32902 21.6103 5.25 21.8011 5.25 22C5.25 22.1989 5.32902 22.3897 5.46967 22.5303C5.61032 22.671 5.80109 22.75 6 22.75H18C18.1989 22.75 18.3897 22.671 18.5303 22.5303C18.671 22.3897 18.75 22.1989 18.75 22C18.75 21.8011 18.671 21.6103 18.5303 21.4697C18.3897 21.329 18.1989 21.25 18 21.25H16.115L15.896 20.157C15.8167 19.7602 15.6024 19.4032 15.2895 19.1467C14.9767 18.8902 14.5846 18.75 14.18 18.75H12.75V17C12.7489 16.9052 12.7309 16.8114 12.697 16.723C13.958 16.623 15.023 16.25 15.91 15.655C16.93 14.971 17.67 14.025 18.21 12.964L20.85 11.497C21.202 11.302 21.512 11.129 21.757 10.959C22.022 10.775 22.261 10.561 22.439 10.259C22.617 9.95598 22.689 9.64298 22.72 9.32198C22.75 9.02498 22.75 8.66998 22.75 8.26798V8.12298C22.75 7.63498 22.75 7.20698 22.71 6.85398C22.666 6.47298 22.57 6.10398 22.325 5.76598C22.081 5.42698 21.762 5.21898 21.415 5.05598C21.092 4.90598 20.686 4.77098 20.223 4.61698L19.731 4.45298C19.701 3.82698 19.564 3.26698 19.143 2.74798C18.487 1.93898 17.647 1.79798 16.637 1.62998L16.502 1.60698C15.0139 1.36246 13.508 1.24305 12 1.24998ZM14.585 21.25L14.425 20.451C14.4137 20.3943 14.3831 20.3433 14.3384 20.3067C14.2938 20.2701 14.2378 20.25 14.18 20.25H9.82C9.76223 20.25 9.70625 20.2701 9.66158 20.3067C9.61692 20.3433 9.58632 20.3943 9.575 20.451L9.415 21.25H14.585ZM4.288 6.02798L4.302 6.02298C4.374 7.54298 4.545 9.22298 4.973 10.793L3.907 10.202C3.518 9.98498 3.274 9.84898 3.098 9.72698C2.936 9.61398 2.883 9.54698 2.854 9.49698C2.824 9.44698 2.792 9.36898 2.772 9.17298C2.75133 8.86077 2.74399 8.54782 2.75 8.23498V8.16198C2.75 7.62298 2.751 7.28198 2.78 7.02398C2.808 6.78598 2.852 6.69698 2.892 6.64298C2.931 6.58798 3.001 6.51798 3.218 6.41698C3.454 6.30698 3.778 6.19898 4.288 6.02798ZM19.698 6.02198C19.627 7.54198 19.455 9.22198 19.028 10.792L20.093 10.201C20.482 9.98398 20.726 9.84798 20.902 9.72598C21.064 9.61298 21.117 9.54598 21.146 9.49598C21.176 9.44598 21.208 9.36798 21.228 9.17198C21.249 8.95798 21.25 8.67898 21.25 8.23398V8.16098C21.25 7.62198 21.249 7.28098 21.22 7.02298C21.192 6.78498 21.148 6.69598 21.108 6.64198C21.069 6.58698 20.999 6.51698 20.782 6.41598C20.546 6.30598 20.222 6.19698 19.712 6.02598L19.698 6.02198ZM7.748 3.08598C9.15352 2.8559 10.5758 2.74351 12 2.74998C13.74 2.74998 15.167 2.90298 16.252 3.08598C17.459 3.28998 17.712 3.36598 17.979 3.69398C18.241 4.01598 18.266 4.32198 18.212 5.67698C18.122 7.93498 17.824 10.373 16.902 12.227C16.446 13.141 15.85 13.889 15.075 14.409C14.304 14.926 13.309 15.25 12 15.25C10.691 15.25 9.697 14.926 8.926 14.409C8.15 13.889 7.554 13.141 7.099 12.226C6.176 10.373 5.879 7.93598 5.789 5.67598C5.735 4.32198 5.759 4.01598 6.022 3.69398C6.288 3.36598 6.541 3.28998 7.748 3.08598Z" fill="#009FA2"/>
</svg>
