<svg width="29" height="29" viewBox="0 0 29 29" fill="none" xmlns="http://www.w3.org/2000/svg">
<path d="M8.26326 19.2004C7.95312 19.0256 7.70662 18.788 7.52376 18.4875C7.3409 18.1862 7.24947 17.8487 7.24947 17.4749V12.7902L5.32581 11.7233C5.15019 11.6185 5.01969 11.4945 4.93431 11.3511C4.84892 11.2077 4.80703 11.049 4.80864 10.875C4.81025 10.701 4.85294 10.5423 4.93672 10.3989C5.0205 10.2555 5.1506 10.1315 5.32701 10.0268L13.5678 5.53176C13.7145 5.4504 13.8655 5.3924 14.021 5.35776C14.1764 5.32312 14.3359 5.3054 14.4995 5.30459C14.663 5.30379 14.8229 5.32151 14.9792 5.35776C15.1355 5.39401 15.2869 5.45161 15.4335 5.53055L24.7631 10.5898C24.9338 10.6905 25.0627 10.8166 25.1497 10.9681C25.2375 11.1203 25.2814 11.2846 25.2814 11.4611V17.9861C25.2814 18.1568 25.2234 18.3002 25.1074 18.4162C24.9914 18.5322 24.848 18.5902 24.6773 18.5902C24.5065 18.5902 24.3627 18.5322 24.2459 18.4162C24.1291 18.3002 24.0715 18.1568 24.0731 17.9861V11.5541L21.7495 12.7902V17.4749C21.7495 17.8487 21.658 18.1862 21.4752 18.4875C21.2923 18.7888 21.0462 19.0264 20.7369 19.2004L15.4383 22.069C15.2885 22.1536 15.1355 22.2136 14.9792 22.2491C14.8229 22.2845 14.663 22.3018 14.4995 22.301C14.3359 22.3002 14.176 22.2829 14.0198 22.2491C13.8635 22.2152 13.7104 22.1548 13.5606 22.0678L8.26326 19.2004ZM14.2203 15.2069C14.3291 15.2681 14.4258 15.2987 14.5103 15.2987C14.5957 15.2987 14.6928 15.2681 14.8016 15.2069L22.7524 10.875L14.8016 6.5673C14.6936 6.50527 14.5969 6.47426 14.5116 6.47426C14.4262 6.47426 14.3295 6.50527 14.2216 6.5673L6.24656 10.875L14.2203 15.2069ZM14.1974 21.0456C14.3061 21.1076 14.4068 21.1386 14.4995 21.1386C14.5921 21.1386 14.6928 21.1076 14.8016 21.0456L20.1931 18.1323C20.3172 18.0549 20.4058 17.9659 20.459 17.8652C20.5121 17.7645 20.5395 17.6364 20.5411 17.481V13.4548L15.4456 16.2364C15.295 16.321 15.1419 16.381 14.9864 16.4164C14.8326 16.4511 14.6702 16.4684 14.4995 16.4684C14.3287 16.4684 14.166 16.4511 14.0113 16.4164C13.8566 16.3818 13.704 16.3214 13.5533 16.2352L8.4578 13.456V17.4822C8.4578 17.6062 8.48479 17.7267 8.53876 17.8435C8.59274 17.9595 8.68175 18.0561 8.8058 18.1335L14.1974 21.0456Z" fill="#009FA2"/>
</svg>
