<svg width="19" height="19" viewBox="0 0 19 19" fill="none" xmlns="http://www.w3.org/2000/svg">
<path d="M7.29697 3.84C8.3528 1.94667 8.8803 1 9.66947 1C10.4586 1 10.9861 1.94667 12.042 3.84L12.3153 4.33C12.6153 4.86833 12.7653 5.1375 12.9986 5.315C13.232 5.4925 13.5236 5.55833 14.107 5.69L14.637 5.81C16.687 6.27417 17.7111 6.50583 17.9553 7.29C18.1986 8.07333 17.5003 8.89083 16.1028 10.525L15.7411 10.9475C15.3445 11.4117 15.1453 11.6442 15.0561 11.9308C14.967 12.2183 14.997 12.5283 15.057 13.1475L15.112 13.7117C15.3228 15.8925 15.4286 16.9825 14.7903 17.4667C14.152 17.9508 13.192 17.5092 11.2736 16.6258L10.7761 16.3975C10.2311 16.1458 9.95863 16.0208 9.66947 16.0208C9.3803 16.0208 9.1078 16.1458 8.5628 16.3975L8.06613 16.6258C6.14697 17.5092 5.18697 17.9508 4.54947 17.4675C3.9103 16.9825 4.01613 15.8925 4.22697 13.7117L4.28197 13.1483C4.34197 12.5283 4.37197 12.2183 4.28197 11.9317C4.19363 11.6442 3.99447 11.4117 3.5978 10.9483L3.23613 10.525C1.83863 8.89167 1.1403 8.07417 1.38363 7.29C1.62697 6.50583 2.6528 6.27333 4.7028 5.81L5.2328 5.69C5.8153 5.55833 6.10613 5.4925 6.3403 5.315C6.57447 5.1375 6.72363 4.86833 7.02363 4.33L7.29697 3.84Z" stroke="#748CA4" stroke-width="1.5"/>
</svg>
