<svg width="20" height="19" viewBox="0 0 20 19" fill="none" xmlns="http://www.w3.org/2000/svg">
<path d="M7.629 3.84C8.68483 1.94667 9.21233 1 10.0015 1C10.7907 1 11.3182 1.94667 12.374 3.84L12.6473 4.33C12.9473 4.86833 13.0973 5.1375 13.3307 5.315C13.564 5.4925 13.8557 5.55833 14.439 5.69L14.969 5.81C17.019 6.27417 18.0432 6.50583 18.2873 7.29C18.5307 8.07333 17.8323 8.89083 16.4348 10.525L16.0732 10.9475C15.6765 11.4117 15.4773 11.6442 15.3882 11.9308C15.299 12.2183 15.329 12.5283 15.389 13.1475L15.444 13.7117C15.6548 15.8925 15.7607 16.9825 15.1223 17.4667C14.484 17.9508 13.524 17.5092 11.6057 16.6258L11.1082 16.3975C10.5632 16.1458 10.2907 16.0208 10.0015 16.0208C9.71233 16.0208 9.43983 16.1458 8.89483 16.3975L8.39816 16.6258C6.479 17.5092 5.519 17.9508 4.8815 17.4675C4.24233 16.9825 4.34816 15.8925 4.559 13.7117L4.614 13.1483C4.674 12.5283 4.704 12.2183 4.614 11.9317C4.52566 11.6442 4.3265 11.4117 3.92983 10.9483L3.56816 10.525C2.17066 8.89167 1.47233 8.07417 1.71566 7.29C1.959 6.50583 2.98483 6.27333 5.03483 5.81L5.56483 5.69C6.14733 5.55833 6.43816 5.4925 6.67233 5.315C6.9065 5.1375 7.05566 4.86833 7.35566 4.33L7.629 3.84Z" stroke="#009FA2" stroke-width="1.5"/>
</svg>
