<svg width="16" height="15" viewBox="0 0 16 15" fill="none" xmlns="http://www.w3.org/2000/svg">
<mask id="mask0_870_440" style="mask-type:alpha" maskUnits="userSpaceOnUse" x="0" y="0" width="16" height="15">
<path d="M7.16047 0.472783C7.24605 0.328929 7.36863 0.209571 7.51599 0.126613C7.66334 0.0436561 7.83033 0 8.00029 0C8.17025 0 8.33724 0.0436561 8.4846 0.126613C8.63196 0.209571 8.75454 0.328929 8.84011 0.472783L11.0135 4.12777L15.2344 5.02361C15.4004 5.05896 15.5541 5.13631 15.6801 5.24798C15.8061 5.35964 15.9 5.50171 15.9525 5.66001C16.005 5.81832 16.0142 5.98734 15.9792 6.15021C15.9442 6.31309 15.8662 6.46413 15.7531 6.58829L12.8759 9.74279L13.3114 13.9516C13.3285 14.1173 13.301 14.2846 13.2316 14.4366C13.1622 14.5887 13.0532 14.7202 12.9157 14.8181C12.7781 14.9161 12.6167 14.9769 12.4476 14.9946C12.2786 15.0123 12.1077 14.9863 11.9521 14.919L8.00029 13.2127L4.04848 14.919C3.8929 14.9863 3.72203 15.0123 3.55295 14.9946C3.38387 14.9769 3.22249 14.9161 3.08492 14.8181C2.94735 14.7202 2.83841 14.5887 2.76898 14.4366C2.69954 14.2846 2.67204 14.1173 2.68922 13.9516L3.12468 9.74279L0.247525 6.58905C0.134171 6.4649 0.0560428 6.3138 0.0209402 6.15082C-0.0141624 5.98784 -0.00501128 5.8187 0.0474799 5.66027C0.0999711 5.50184 0.193966 5.35967 0.320081 5.24795C0.446195 5.13624 0.600017 5.05888 0.76619 5.02361L4.98705 4.12777L7.16047 0.472783Z" fill="url(#paint0_linear_870_440)"/>
</mask>
<g mask="url(#mask0_870_440)">
<rect y="-1" width="16" height="16" fill="#A9C9E9"/>
</g>
<defs>
<linearGradient id="paint0_linear_870_440" x1="8" y1="0" x2="8" y2="15" gradientUnits="userSpaceOnUse">
<stop stop-color="#FFD45E"/>
<stop offset="1" stop-color="#CDB921"/>
</linearGradient>
</defs>
</svg>
