<svg width="36" height="36" viewBox="0 0 36 36" fill="none" xmlns="http://www.w3.org/2000/svg">
<path d="M11.3021 27L10 26.4625C10.3617 25.6561 11.5191 25.1858 12.7489 24.6482C13.9787 24.1107 15.4979 23.5059 15.4979 22.7668V21.7589C15.0638 21.4229 14.3404 20.6838 14.1957 19.6087C13.834 19.2727 13.2553 18.668 13.2553 17.8617C13.2553 17.3913 13.4723 16.9881 13.617 16.7194C13.4723 16.1818 13.3277 15.1739 13.3277 14.3676C13.3277 11.747 15.2809 10 18.3915 10C19.2596 10 20.3447 10.2016 20.9234 10.8063C22.2979 11.0751 23.4553 12.5534 23.4553 14.3676C23.4553 15.5099 23.2383 16.4506 23.0936 16.9209C23.2383 17.1225 23.383 17.4585 23.383 17.8617C23.383 18.7352 22.8766 19.3399 22.4426 19.6087C22.2979 20.6838 21.6468 21.3557 21.2128 21.6917V22.7668C21.2128 23.3715 22.5149 23.8419 23.6723 24.2451C25.0468 24.7154 26.4936 25.253 27 26.3281L25.6255 26.7984C25.4085 26.2609 24.2511 25.8577 23.166 25.5217C21.5745 24.9842 19.766 24.3794 19.766 22.834V21.087L20.1277 20.8854C20.1277 20.8854 20.9957 20.3478 20.9957 19.2727V18.8024L21.4298 18.6008C21.5021 18.6008 21.8638 18.3992 21.8638 17.8617C21.8638 17.7273 21.7191 17.5257 21.6468 17.4585L21.3574 17.1897L21.5021 16.8538C21.5021 16.8538 21.8638 15.7787 21.8638 14.4348C21.8638 13.1581 21.0681 12.2174 20.417 12.2174H19.983L19.766 11.8814C19.766 11.6126 19.2596 11.3439 18.3915 11.3439C16.1489 11.3439 14.7745 12.4862 14.7745 14.3676C14.7745 15.2411 15.1362 16.7194 15.1362 16.7194L15.2085 17.0553L14.9191 17.3913C14.8468 17.3913 14.7021 17.5929 14.7021 17.8617C14.7021 18.1976 15.1362 18.6008 15.3532 18.7352L15.6426 18.9368V19.2727C15.6426 20.2806 16.583 20.8182 16.583 20.8854L16.9447 21.087V22.834C16.9447 24.4466 15.0638 25.253 13.3277 25.9249C12.5319 26.1937 11.4468 26.664 11.3021 27Z" fill="white"/>
</svg>
