<svg width="364" height="95" viewBox="0 0 364 95" fill="none" xmlns="http://www.w3.org/2000/svg">
<path fill-rule="evenodd" clip-rule="evenodd" d="M186.986 23.1054C184.566 22.1554 182.379 21.5939 179.692 21.5939C169.263 21.5939 160.73 30.266 160.73 40.6295C160.73 50.9947 169.263 59.6668 179.692 59.6668C190.121 59.6668 198.666 50.9947 198.666 40.6295C198.666 35.698 196.758 30.9717 193.256 27.3431C192.043 26.0759 191.482 24.7849 191.787 23.1648C190.316 23.8841 188.638 23.7636 186.986 23.1054ZM179.692 11.1558C183.484 11.1558 188.056 12.0209 191.458 13.6292C193.245 14.4689 194.946 16.7336 194.57 19.1595C196.795 17.9771 199.797 18.939 201.535 20.9475C205.959 25.9656 209.034 31.9234 209.034 40.6431C209.034 56.7676 195.92 70.2254 179.706 70.2254C163.49 70.2254 150.266 56.7795 150.266 40.6414C150.254 24.505 163.478 11.1558 179.692 11.1558ZM287.238 23.1037C284.819 22.1537 282.631 21.5939 279.944 21.5939C269.515 21.5939 260.984 30.266 260.984 40.6295C260.984 50.9947 269.515 59.6668 279.944 59.6668C290.373 59.6668 298.918 50.9947 298.918 40.6295C298.918 35.698 297.01 30.9717 293.509 27.3431C292.295 26.0759 291.735 24.7849 292.039 23.1648C290.568 23.8841 288.902 23.7619 287.238 23.1037ZM279.944 11.1558C283.737 11.1558 288.308 12.0209 291.699 13.6292C293.485 14.4689 295.187 16.7336 294.811 19.1595C297.034 17.9771 300.037 18.939 301.774 20.9475C306.2 25.9656 309.274 31.9234 309.274 40.6431C309.274 56.7676 296.16 70.2254 279.944 70.2254C263.73 70.2254 250.506 56.7795 250.506 40.6414C250.506 24.505 263.73 11.1558 279.944 11.1558ZM140.238 68.8852H135.582C133.188 68.8852 132.132 67.3143 132.132 65.0123V23.8959C132.132 23.6652 132.143 22.8492 132.022 22.6542C131.815 22.5184 130.916 22.532 130.672 22.532H121.398C120.269 22.532 120.33 22.9459 120.243 24.0537C119.938 27.8656 119.442 32.9684 118.835 36.7447C117.34 45.9648 115.235 58.7287 111.006 67.0836C107.92 73.1975 102.534 80.2988 93.9911 80.3955C93.3207 80.4074 92.6401 80.3819 91.9714 80.3819C88.8596 80.3819 86.3438 77.7151 86.3438 74.609C86.3433 73.8684 86.4886 73.135 86.7713 72.4508C87.0539 71.7665 87.4685 71.1448 87.9912 70.6213C88.5138 70.0977 89.1344 69.6825 89.8174 69.3995C90.5003 69.1164 91.2323 68.9711 91.9714 68.9717C92.762 68.9717 93.407 69.0192 94.2078 68.8496C98.0121 68.0201 99.6052 64.6357 101.72 59.7025C107.336 46.5246 109.328 23.0935 109.694 16.8558C109.9 13.4222 112.294 12.0701 115.455 12.0701H138.853C142.281 12.0701 143.788 14.323 143.788 17.6005V65.2447C143.776 67.8131 142.779 68.8852 140.238 68.8852ZM344.049 11.1812C347.708 11.1812 351.27 11.7767 354.661 13.0812C357.163 13.9583 359.158 15.5648 359.158 18.3656C359.158 21.1562 357.25 23.6635 353.87 23.6635C352.983 23.6635 352.192 23.4091 351.378 23.0681C351.067 22.9903 350.762 22.8882 350.467 22.7627C348.41 21.9959 346.232 21.6041 344.037 21.6058C333.608 21.6058 325.343 30.2779 325.343 40.6414C325.343 51.0066 333.608 59.5939 344.037 59.6787C348.607 59.7143 353.164 57.8398 355.11 56.1467C355.993 55.5259 357.046 55.1941 358.125 55.1967C358.814 55.1961 359.497 55.3317 360.135 55.5958C360.772 55.86 361.351 56.2474 361.839 56.7361C362.326 57.2247 362.713 57.8049 362.977 58.4434C363.24 59.082 363.376 59.7663 363.375 60.4574C363.375 61.9926 362.671 63.3328 361.662 64.3422C360.3 65.7078 357.954 66.8868 356.276 67.6434C352.497 69.3602 348.231 70.2135 344.049 70.2135C327.835 70.2135 314.878 56.7558 314.878 40.6295C314.878 24.505 327.835 11.1812 344.049 11.1812ZM235.362 22.1537C235.374 22.5439 235.409 22.9951 235.409 23.2734V65.3278C235.409 68.1914 234.548 68.8734 231.91 68.8734C230.269 68.8734 228.653 69.0311 227.01 68.8734C224.41 68.6189 223.863 68.1303 223.863 65.3414V23.2869C223.863 22.9951 223.912 22.5575 223.924 22.1673H212.462C210.019 22.1673 208.986 21.1664 208.986 18.598V15.7242C208.986 12.8234 209.921 12.0583 212.584 12.0583H246.446C248.999 12.0583 250.433 12.9099 250.433 15.7225V18.05C250.433 21.2529 249.218 22.1792 246.143 22.1792H236.09C235.848 22.1635 235.605 22.155 235.362 22.1537Z" fill="#98A2A2"/>
<path fill-rule="evenodd" clip-rule="evenodd" d="M44.0183 0C47.7819 0.02375 50.8276 3.12143 50.8276 6.91973C50.8276 7.15384 50.8158 7.38625 50.7921 7.60848C50.6566 17.6496 50.0979 27.5568 48.7689 37.6471C48.586 38.9992 49.6103 39.0111 49.9032 37.8066C52.9964 27.5805 54.6166 17.2442 55.7746 6.63643V6.62455C55.7746 6.05964 55.8593 5.51848 56.0049 5.00277L56.0184 4.95188C56.2909 3.86679 56.9328 2.91101 57.8333 2.24946C58.8265 1.43343 60.0705 0.98635 61.3548 0.983929C62.1962 0.985564 63.0263 1.17758 63.7832 1.54564C64.5401 1.9137 65.2043 2.44831 65.7262 3.10955C66.7251 4.20375 67.2499 5.73902 66.847 7.68143C64.8001 17.441 62.5721 26.9902 58.089 36.5648C57.4422 37.9423 58.3802 38.1883 59.2335 36.8481C65.093 27.7163 68.4181 18.3876 71.2709 8.86214C71.459 7.81348 72.008 6.86407 72.8225 6.17908C73.6369 5.49409 74.6653 5.11687 75.7286 5.11304C78.2258 5.11304 80.2591 7.16571 80.2591 9.68491V9.7358C80.2491 10.4542 80.0741 11.1606 79.7478 11.8004C76.8358 19.6531 73.9492 27.3227 68.601 35.1025C67.5174 36.3307 68.6619 36.6513 69.7353 35.4706C76.2534 28.6255 79.4312 20.9679 83.0492 13.2254C83.7434 12.3161 85.0114 12.4263 85.6074 13.68C87.0329 16.703 86.2287 21.2138 84.5594 25.4413C79.9544 37.1179 66.3729 54.5826 55.0432 64.1827C50.8395 67.7469 47.4297 69.5417 44.0183 69.5536C40.6068 69.5298 37.1954 67.7469 32.9933 64.1827C21.6636 54.5826 8.08216 37.1179 3.47714 25.4413C1.80781 21.2138 1.00363 16.7047 2.42746 13.68C3.0251 12.4246 4.30502 12.3161 4.98731 13.2254C8.59345 20.9679 11.7848 28.6255 18.3012 35.4706C19.3848 36.6513 20.5191 36.3324 19.4356 35.1025C14.0856 27.3227 11.2007 19.6531 8.28871 11.7987C8.07344 11.3907 7.92482 10.9509 7.84852 10.4958C7.80075 10.2447 7.77694 9.98969 7.77741 9.73411V9.68661C7.77741 7.16741 9.81073 5.11473 12.3079 5.11473C14.5258 5.11473 16.378 6.73652 16.7674 8.86384C19.6184 18.3893 22.9435 27.7179 28.8031 36.8498C29.6564 38.19 30.5943 37.9305 29.9476 36.5665C25.4644 26.9919 23.2483 17.4427 21.1895 7.68313C20.7866 5.74071 21.3114 4.20545 22.2985 3.11125C22.8204 2.44947 23.4848 1.9144 24.242 1.54603C24.9993 1.17766 25.8298 0.985511 26.6716 0.983929C27.9559 0.98635 29.1999 1.43343 30.193 2.24946C31.0328 2.86357 31.6897 3.74911 31.9944 4.95357L32.0198 5.00277C32.1773 5.51848 32.2501 6.05964 32.2501 6.62455V6.63643C33.4081 17.2442 35.0266 27.5805 38.1215 37.8066C38.4144 39.0229 39.437 39.0111 39.2558 37.6471C37.9268 27.5568 37.3664 17.6496 37.2326 7.60848C37.2083 7.37972 37.1964 7.14979 37.1971 6.91973C37.2089 3.12143 40.2547 0.02375 44.0183 0Z" fill="#009FA2"/>
</svg>
